<svg xmlns="http://www.w3.org/2000/svg">
<defs>
<font id="StruckBasePERSONALUSEONLY-PERSONALUSEONLY" horiz-adv-x="0" >
  <font-face 
    font-family="Struck Base PERSONAL USE ONLY PERSONAL USE ONLY"
    font-weight="400"
    font-style="italic"
    font-stretch="normal"
    units-per-em="2048"
    panose-1="0 0 0 0 0 0 0 0 0 0"
    ascent="1638"
    descent="-410"
    x-height="1096"
    cap-height="2018.5"
    bbox="-11476.5 -1292 12216 3347.85"
    underline-thickness="102"
    underline-position="-358"
    slope="-15"
    unicode-range="U+0020-FF5D"
  />
<missing-glyph horiz-adv-x="5398" 
d="M319 483h103l4 -602h-86l-8 250l-45 -250h-70l-49 246l-4 -246h-90l8 602h98l70 -377zM504 -119v602h78l102 -286v286h94v-602h-73l-107 295v-295h-94zM844 -119v111h102v-111h-102zM987 94l94 4q0 -71 21 -106q16 -32 37 -21q24 5 24 49q0 23 -10.5 46.5t-21 37.5
t-31.5 37t-27 31q-8 10 -30.5 30t-26.5 31q-39 57 -25 140q3 67 63.5 100.5t125.5 5.5q47 -22 62 -71.5t15 -120.5l-94 -4q-1 8 -1.5 25t-1.5 29.5t-4 26.5t-10.5 22.5t-19.5 10.5q-30 3 -39.5 -25.5t-1.5 -52.5q5 -15 13.5 -26t25 -25.5t19.5 -17.5l45 -53q86 -86 74 -201
q-3 -42 -31.5 -77t-75.5 -46q-45 -6 -85 13.5t-58 60.5q-25 56 -25 147zM1161 -700q0 -10 -1 -32.5t-1 -37.5t1.5 -36.5t6.5 -35.5t13.5 -27.5t23.5 -20.5t35 -7q31 0 47.5 18t19.5 37.5t3 50.5h-37q0 -5 0.5 -14t0.5 -14.5t-1 -12t-4 -12.5q-6 -18 -27 -20.5t-27 12.5
q-7 9 -10 23t-3.5 25t0.5 28.5t1 21.5q0 5 -1 22.5t-1 29.5t2 26t8 21q9 16 30.5 15t27.5 -19q4 -7 5 -15.5t0 -21t-1 -13.5h37q0 16 -0.5 25.5t-3.5 24t-9 22.5t-17.5 15t-27.5 8q-46 6 -68 -19.5t-22 -66.5zM1307 184q0 9 -1 52.5t0 70.5t5 53q16 96 86 123q84 22 135 -12
q23 -14 37.5 -35t20 -51t6.5 -49t1 -54v-12h-98q0 61 -4 90q0 22 -29 37q-18 4 -53 -20q-2 -20 -2 -44.5t1 -52t1 -38.5v-144q0 -5 -0.5 -19.5t-1 -25.5t1 -26t5 -25.5t10.5 -19t18 -11.5q22 -9 36 0.5t19 37.5t6 43t0 43v11h-61v91h156v-316h-78l-4 21q-27 -27 -72.5 -28.5

<glyph glyph-name=".notdef" horiz-adv-x="5398" 
d="M319 483h103l4 -602h-86l-8 250l-45 -250h-70l-49 246l-4 -246h-90l8 602h98l70 -377zM504 -119v602h78l102 -286v286h94v-602h-73l-107 295v-295h-94zM844 -119v111h102v-111h-102zM987 94l94 4q0 -71 21 -106q16 -32 37 -21q24 5 24 49q0 23 -10.5 46.5t-21 37.5
t-31.5 37t-27 31q-8 10 -30.5 30t-26.5 31q-39 57 -25 140q3 67 63.5 100.5t125.5 5.5q47 -22 62 -71.5t15 -120.5l-94 -4q-1 8 -1.5 25t-1.5 29.5t-4 26.5t-10.5 22.5t-19.5 10.5q-30 3 -39.5 -25.5t-1.5 -52.5q5 -15 13.5 -26t25 -25.5t19.5 -17.5l45 -53q86 -86 74 -201
q-3 -42 -31.5 -77t-75.5 -46q-45 -6 -85 13.5t-58 60.5q-25 56 -25 147zM1161 -700q0 -10 -1 -32.5t-1 -37.5t1.5 -36.5t6.5 -35.5t13.5 -27.5t23.5 -20.5t35 -7q31 0 47.5 18t19.5 37.5t3 50.5h-37q0 -5 0.5 -14t0.5 -14.5t-1 -12t-4 -12.5q-6 -18 -27 -20.5t-27 12.5
q-7 9 -10 23t-3.5 25t0.5 28.5t1 21.5q0 5 -1 22.5t-1 29.5t2 26t8 21q9 16 30.5 15t27.5 -19q4 -7 5 -15.5t0 -21t-1 -13.5h37q0 16 -0.5 25.5t-3.5 24t-9 22.5t-17.5 15t-27.5 8q-46 6 -68 -19.5t-22 -66.5zM1307 184q0 9 -1 52.5t0 70.5t5 53q16 96 86 123q84 22 135 -12
q23 -14 37.5 -35t20 -51t6.5 -49t1 -54v-12h-98q0 61 -4 90q0 22 -29 37q-18 4 -53 -20q-2 -20 -2 -44.5t1 -52t1 -38.5v-144q0 -5 -0.5 -19.5t-1 -25.5t1 -26t5 -25.5t10.5 -19t18 -11.5q22 -9 36 0.5t19 37.5t6 43t0 43v11h-61v91h156v-316h-78l-4 21q-27 -27 -72.5 -28.5
t-75.5 20.5q-52 26 -61 122q-3 20 -4 43t-1 40t0.5 44t0.5 41zM1341 -750q0 -3 -0.5 -25.5t0 -29.5t2.5 -26t7.5 -27t13.5 -19t22 -15.5t33 -4.5q23 0 38.5 9t23 20.5t11.5 33t4.5 34.5t0.5 38v8v19v21.5t-1 19.5t-3 21t-5.5 17.5t-9 16.5t-13 12t-18.5 9.5t-24 3.5
q-24 3 -40 -3.5t-24.5 -17t-12.5 -33t-4.5 -37.5t-0.5 -45zM1350 1671h69v254q4 0 29.5 -0.5t36 0t30 3t32.5 9t24 17.5q44 32 49 94.5t-25 110.5q-17 38 -49 49.5t-82 11.5h-114v-549zM1354 1253q0 -94 12 -135q21 -54 80 -73.5t108 4.5q24 8 41.5 22.5t27.5 36.5t16.5 42
t8.5 50.5t2.5 48.5t-0.5 50.5t-1 43.5v250h-78v-200v-176q0 -25 -4.5 -47.5t-16 -44t-31.5 -28t-51 0.5q-7 4 -13 9t-10.5 9.5t-8 12.5t-5.5 12.5t-3.5 15t-2.5 14t-1.5 15.5t-0.5 14.5v15v13.5v364h-69v-340zM1382 -729q0 4 -1 12.5t-1 16t2 12.5q0 25 14.5 40t39.5 1
q8 -3 13 -13.5t6.5 -26t1.5 -28t-0.5 -30t-0.5 -21.5v-6v-17t-0.5 -18t-2 -19t-4 -16.5t-7 -14t-10 -8t-14.5 -2.5t-19 7q-11 4 -16 22t-5 36t2 43t2 30zM1419 1982v181q7 0 20.5 0.5t21 0.5t19 -1t21.5 -4q16 -4 26 -13.5t13.5 -25.5t4.5 -26.5t1 -29.5q0 -67 -45 -77
q-18 -5 -82 -5zM1448 -545h41v131h49v25h-49v94h65v29h-106v-279zM1534 -893h33v205l45 -205h28l46 205v-205h28l-4 279h-37l-45 -226l-49 226h-45v-279zM1579 -397v-18.5v-21t0.5 -20t2 -21t4 -18.5t6.5 -17.5t10 -14t13.5 -12t18 -6.5t23.5 -3q28 0 45 12.5t23.5 37.5
t8 42t1.5 47q0 79 -13 107q-18 37 -61 41q-24 1 -40 -7t-24 -19t-12.5 -32.5t-5 -35.5t-0.5 -41zM1616 -389v45q0 27 17 43t40 2q9 -3 14.5 -13.5t7 -26t1.5 -28.5t-1 -29.5t-1 -21.5q0 -67 -7 -85q-12 -31 -47 -17q-14 6 -20.5 25t-7 36t1.5 42t2 28zM1622 -193l164 754h94
l-172 -754h-86zM1673 1671h213v53h-139v201h111v57h-111v181h135v57h-209v-549zM1706 1196q3 -67 42.5 -111.5t104.5 -44.5q66 0 102.5 51t24.5 117q-4 25 -13.5 45t-30 41.5t-28.5 29t-38 32.5q-6 5 -17.5 14t-18 14.5t-16.5 14.5t-15.5 15.5t-11.5 16.5t-8.5 18.5
t-2.5 19.5t4 22q3 25 22.5 38t46.5 7q53 -9 62 -102l57 24q0 81 -45 115q-58 35 -135 20q-62 -18 -79.5 -85t18.5 -119q11 -18 29 -36.5t42.5 -39.5t34.5 -31q8 -5 15.5 -10.5t14.5 -12.5t11 -12t11 -14t9 -12q17 -25 18 -55t-22 -52q-19 -18 -45 -16.5t-41 20.5
q-7 7 -12 16t-7.5 20.5t-4 19.5t-2.5 23t-2 20zM1763 -893h29l4 205l41 -205h29l49 205l4 -205h25l-5 279h-36l-50 -226l-49 226h-41v-279zM1772 -545h36v131h29l37 -131h45l-45 135q41 16 38.5 66t-38.5 70q-13 7 -28.5 9t-42 0.5t-31.5 -1.5v-279zM1800 627h37v135h14h14
t12.5 0.5t14 2.5t13 5t14.5 8q14 14 16.5 48.5t-4.5 58.5q-7 11 -18.5 17.5t-28.5 8.5t-28 2.5t-31.5 0t-24.5 -0.5v-286zM1808 -389v94q33 0 49.5 -8.5t16.5 -36.5q0 -30 -17.5 -39.5t-48.5 -9.5zM1837 786v103q23 0 33.5 -1.5t19 -12t8.5 -31.5q0 -41 -20 -53
q-10 -5 -41 -5zM1894 94l95 4q0 -73 20 -106q3 -13 13 -20t24 -1q9 2 14 10t5.5 15.5t0.5 23.5q0 23 -11.5 47.5t-19.5 35.5t-34.5 39t-28.5 30q-7 11 -26 30.5t-23 30.5q-37 47 -29 140q3 67 65 100.5t124 5.5q35 -15 54 -49t23.5 -66t4.5 -77l-99 -4v13v15.5t-0.5 15.5
t-1.5 16l-2.5 15t-4 14.5t-6.5 11t-9 9t-12 4.5q-19 2 -29.5 -13t-10.5 -33t3 -32q3 -9 7.5 -17.5t11 -16t10.5 -11.5l12.5 -12.5l11.5 -11.5l49 -53q85 -92 74 -201q-3 -41 -32.5 -76t-74.5 -47q-44 -6 -85 13.5t-62 60.5q-21 47 -21 147zM1944 1671h81v258h58l74 -258h69
l-69 275q43 16 58.5 68t-0.5 107t-54 79q-21 10 -52 15t-50 6t-62.5 0t-52.5 -1v-549zM1968 627h107v32h-74v254h-33v-286zM1989 -893h110v25h-69v110h57v29h-57v86h69v29h-110v-279zM2009 -295h49v-250h41v250h53v29h-143v-29zM2025 1982v181q56 0 78 -9q37 -13 37 -73
q6 -32 -3.5 -57t-33.5 -37q-36 -5 -78 -5zM2046 1049h213v45h-139v204h110v58h-110v176h139v61h-213v-544zM2103 627h107v32h-74v103h62v29h-62v98h74v24h-107v-286zM2128 -893h41v135h33l32 -135h37l-41 139q36 12 36 62t-32 69q-10 6 -24.5 8.5t-25 2.5t-29 -1t-27.5 -1
v-279zM2169 -729v86q32 0 46.5 -8.5t14.5 -36.5t-13.5 -34.5t-47.5 -6.5zM2169 -545h37v131h69v-131h45v279h-45v-123h-69v123h-37v-279zM2185 381v102h275v-102h-86v-500h-103v500h-86zM2226 627h37l8 78h62l12 -78h41l-57 286h-41zM2275 729l33 131l21 -131h-54z
M2275 1823q3 -67 43.5 -111.5t108.5 -44.5q66 0 102.5 49.5t24.5 118.5q-5 17 -12 32.5t-22 34t-21.5 25.5t-29.5 29.5t-26 25.5q-24 17 -36 27.5t-29.5 29t-23 39.5t-1.5 44q3 21 24 33t50 12q7 -2 12.5 -5t10 -6.5t9 -9.5t7 -9.5t6 -11.5t4.5 -12t3.5 -13t3.5 -12t3 -13
t2 -11l58 21q-9 88 -49 115q-24 18 -64.5 22t-67.5 -6q-43 -10 -65.5 -45.5t-20.5 -80t25 -83.5q15 -22 56.5 -58t45.5 -40q36 -27 62 -62q19 -26 20 -58t-20 -48q-19 -18 -45 -16.5t-45 20.5q-22 22 -29 98zM2308 -700q0 -12 -1.5 -38.5t-2 -44.5t2 -41.5t9.5 -37.5
t23 -24.5t39 -10.5q31 0 48 17.5t21 38t4 50.5h-41q0 -6 1.5 -18t0.5 -20t-6 -15q-3 -18 -23.5 -20.5t-29.5 12.5q-7 9 -10 23t-3.5 25t0.5 28.5t1 21.5t-1 22.5t-0.5 30t3.5 25.5t10 21q9 16 29.5 15t23.5 -19q5 -7 6 -16t-0.5 -20.5t-1.5 -13.5h41q0 19 -1.5 32t-7 28.5
t-19 24.5t-33.5 10q-42 6 -62 -19.5t-20 -66.5zM2361 -545h107v21h-66v110h58v25h-58v94h66v29h-107v-279zM2402 709q3 -35 24 -58.5t54 -23.5q37 0 55.5 28.5t6.5 65.5q-4 33 -62 70q-2 2 -13 15t-15 19t-8 17.5t-1 21.5q5 33 45 25q12 -15 21 -53l33 4q0 21 -10.5 41
t-30.5 28q-15 6 -37 3.5t-37 -11.5q-28 -30 -21 -62.5t37 -56.5q6 -7 25 -24.5t30 -33t11 -32.5q0 -39 -45 -33q-21 8 -21 62zM2464 1270q0 -78 4 -115q9 -55 48.5 -85t98.5 -30q57 0 94 28.5t46 82.5q5 18 6 38t-0.5 49.5t-1.5 43.5q0 15 4 70.5t1 95t-18 72.5
q-28 80 -143 73q-104 0 -131 -90q-7 -33 -9 -69t-0.5 -94.5t1.5 -69.5zM2492 -893h37v279h-37v-279zM2499 -119v602h176q40 0 73.5 -39.5t32.5 -115.5q0 -120 -69 -168l65 -279h-98l-53 262h-29v-262h-98zM2542 1217v98q0 17 -2 53t-2 65.5t4 53.5q9 25 21 35.5t36 13.5
q12 6 31 1t34 -17q6 -6 10 -13.5t6.5 -13t3.5 -16t1 -14.5v-17.5v-15.5v-197q0 -5 1 -17.5t1 -22.5t-2 -17q-9 -57 -41 -70q-27 -20 -70 0q-8 3 -13.5 8.5t-9 14t-5.5 14.5t-3 19t-1 17.5v20v17.5zM2558 -893h41l12 74h62l8 -74h37l-62 279h-41zM2574 627h115v32h-74v103h58
v29h-58v98h70v24h-111v-286zM2587 -545h28v131h58v25h-58v94h78v29h-106v-279zM2597 229h53q18 9 25 50.5t-5 80t-40 37.5h-33v-168zM2607 1888q0 -69 4 -102q18 -119 144 -119q120 0 143 111q8 37 8 127q0 12 2.5 71.5t-0.5 96.5t-14 69q-34 82 -148 82q-110 -7 -131 -94
q-7 -33 -9 -70.5t-0.5 -98.5t1.5 -73zM2615 -799l25 131l24 -131h-49zM2685 1839v98q0 14 -2.5 54.5t-1.5 70.5t8 52q12 43 53 49q44 7 66 -21q12 -9 17.5 -26.5t6 -28.5t0.5 -35v-250q-2 -14 -3.5 -22t-6 -19t-12 -18.5t-19.5 -13.5t-32.5 -6t-32.5 6q-7 3 -12.5 7t-9.5 8
t-7 10.5t-5 11t-3.5 12.5t-2 12t-1 13t-0.5 12v12.5v11.5zM2718 -479q6 -40 36 -59t70 -7q15 6 24 18.5t12 31.5t3.5 34t-1 38t-1.5 30v127h-29v-123q0 -2 0.5 -17.5t0 -24t-1.5 -25t-4 -26.5t-8 -20.5t-13 -16t-19 -5.5q-14 0 -22.5 10t-11.5 29t-4 33t0 37.5t1 25.5v123
h-32v-148q0 -6 -1 -20t-1 -25t2 -20zM2746 -893h111v25h-74v254h-37v-279zM2783 913l62 -286h37l57 286h-33l-45 -204l-37 204h-41zM2818 98v385h102v-372q0 -96 5 -119q7 -10 21 -17t28 -4q22 11 26 21q2 6 2 16q4 29 4 90v385h99v-385v-11q0 -35 -1 -54.5t-6 -49.5
t-19 -50.5t-36 -34.5q-57 -35 -139 -13q-75 28 -82 123q-4 33 -4 90zM2841 1049h57v368l164 -368h53v544h-70v-364l-155 364h-49v-544zM2906 -545h107v21h-66v258h-41v-279zM2951 -614l62 -279h28l66 279h-37l-41 -205l-45 205h-33zM2972 627h41v286h-41v-286zM2984 1671h61
v369l156 -369h49v549h-65v-365l-152 365h-49v-549zM3041 -545h111v21h-70v258h-41v-279zM3049 709q7 -82 74 -82q36 0 53.5 28t8.5 66q-1 9 -5 17.5t-12 17t-12.5 12.5t-16 13t-12.5 10q-4 5 -12 12.5t-13.5 13.5t-11.5 15t-5.5 15.5t5.5 16.5q3 17 16 23t21 2q7 -6 12 -14
t6.5 -12t4.5 -15l2 -12l33 4q-9 56 -37 69q-33 13 -78 -8q-19 -17 -21 -40.5t8.5 -43t28.5 -35.5q3 -3 15 -12.5t16.5 -14t13.5 -14t12.5 -16t6.5 -15.5t2 -18q0 -18 -10.5 -27t-26.5 -6q-14 5 -21.5 24.5t-7.5 37.5zM3135 -893h111v25h-70v110h58v29h-58v86h70v29h-111
v-279zM3150 0v365q0 52 36.5 86t86.5 41q35 7 69 -13q47 -22 62.5 -72t15.5 -120l-94 -4v8q0 21 -0.5 33t-4 30.5t-12.5 29t-24 13.5q-13 3 -25 -7t-12 -30v-356q0 -20 12 -30t25 -7q42 7 41 107v4v4l94 -4q0 -71 -15.5 -121t-62.5 -72q-32 -19 -69 -12q-50 7 -86.5 41
t-36.5 86zM3197 1049h213v45h-139v499h-74v-544zM3222 627h40v286h-40v-286zM3246 -545h33l16 70h58l12 -70h41l-62 279h-45zM3275 -893h41v135h32l37 -135h33l-33 139q33 13 31 62t-31 69q-12 6 -27 8.5t-26 2.5t-30 -1t-27 -1v-279zM3287 889h53v-262h33v262h45v24h-131
v-24zM3299 -446l25 127l24 -127h-49zM3308 1671h69l29 131h110l25 -131h74l-115 549h-78zM3316 -729v86q32 0 46.5 -8.5t14.5 -36.5t-13.5 -34.5t-47.5 -6.5zM3414 1860l49 254l45 -254h-94zM3430 -545h37v189l74 -189h29v279h-33v-185l-82 185h-25v-279zM3430 1593l78 -245
q27 -56 37 -107q2 -11 2 -25t-1 -31.5t-1 -25.5v-110h78v131q0 5 -1.5 20.5t-0.5 28.5t6 24l37 111q62 194 74 229h-74l-82 -262l-82 262h-70zM3447 -815q3 -36 23 -59t55 -23q36 0 52.5 27t4.5 59q0 18 -8 31.5t-24 29t-21 21.5q-4 4 -13.5 12.5t-13 12.5t-11 13.5t-6 15
t2.5 16.5q14 28 45 16q6 -3 9.5 -9.5t5 -12t3 -16.5t2.5 -15l29 12q0 55 -33 66q-15 9 -37 6t-41 -15q-28 -25 -21.5 -58.5t34.5 -64.5q69 -44 69 -81q0 -20 -12 -29t-33 0q-24 10 -24 53zM3465 -119v602h103v-254h16l86 254h98l-102 -303l102 -299h-98l-86 254h-16v-254
h-103zM3615 -545q3 0 24 -1t32 0t27.5 5t26.5 13q12 6 19 16t9 24.5t2.5 25t-0.5 28.5t-1 24q0 9 1.5 32t1.5 36.5t-4.5 29.5t-14.5 25q-13 10 -32 15.5t-29 6t-35.5 0t-26.5 -0.5v-279zM3623 -893h33v279h-33v-279zM3652 -524v229q23 0 33.5 -1.5t20 -11t11.5 -28.5v-143
q-4 -21 -14 -31.5t-20 -12t-31 -1.5zM3672 1671h217v53h-139v496h-78v-549zM3697 -750v-7q0 -24 0.5 -37.5t4.5 -36t12 -34.5t24.5 -22t40.5 -10q13 0 24 2.5t18.5 9t13 12t8.5 16.5t5.5 18t3 21.5t0.5 20.5v22.5v20.5t0.5 29t0 33t-4 27t-10 26.5t-19.5 15.5t-32 9
q-26 3 -44 -3.5t-27 -17t-13.5 -33t-5 -37.5t-0.5 -45zM3742 127v106h127v-106h-127zM3746 -729v41q0 26 12.5 40.5t40.5 0.5q7 -3 11 -13.5t5.5 -26t1.5 -28t-1 -29.5t-1 -22v-6v-17t-0.5 -18t-2 -19t-4 -16.5t-7 -14t-10 -8t-14.5 -2.5t-19 7q-15 5 -18 29t1.5 61t4.5 41z
M3779 1049h73v73h-73v-73zM3779 1593l24 -430h25l24 430h-73zM3897 -893h25v193l86 -193h29v279h-33v-189l-82 189h-25v-279zM3930 -119v602h172q43 0 79 -39.5t36 -115.5q0 -106 -53 -135q57 -40 57 -152q0 -79 -34 -119.5t-77 -40.5h-180zM4028 -29h45q26 0 37.5 29.5
t8.5 69.5q-8 73 -54 73h-37v-172zM4028 229h37q45 0 45 78q0 90 -49 90h-33v-168zM4239 -119l111 602h94l103 -602h-99l-20 144h-66l-20 -144h-103zM4379 111h32l-16 122zM4563 94l94 4q0 -71 21 -106q8 -32 36 -21q21 4 21 49q0 23 -11.5 47.5t-19.5 35.5t-34.5 39
t-28.5 30q-7 11 -26 30.5t-23 30.5q-37 47 -29 140q3 67 64.5 100.5t123.5 5.5q35 -15 54 -49t23.5 -66t4.5 -77l-98 -4v13v15.5t-0.5 15t-1.5 17t-2.5 15t-4.5 14l-7 10.5t-9 9.5t-12 4.5q-19 2 -29.5 -13t-10.5 -33t3 -32q3 -9 7.5 -17.5t11 -16t10.5 -11.5l12.5 -12.5
l11.5 -11.5l50 -53q84 -91 73 -201q-3 -41 -32 -76t-74 -47q-44 -6 -85.5 13.5t-62.5 60.5q-20 45 -20 147zM4880 -119v602h234v-102h-135v-131h110v-107h-110v-159h135v-103h-234z" />
    <glyph glyph-name=".null" 
 />
    <glyph glyph-name="nonmarkingreturn" horiz-adv-x="682" 
 />
    <glyph glyph-name="space" unicode=" " horiz-adv-x="616" 
 />
    <glyph glyph-name="exclam" unicode="!" horiz-adv-x="1105" 
d="M369 578l454 1134l394 12l-689 -1146h-159zM98 209q0 86 61.5 147.5t147.5 61.5t147.5 -61.5t61.5 -147.5t-61.5 -147.5t-147.5 -61.5t-147.5 61.5t-61.5 147.5z" />
    <glyph glyph-name="quotedbl" unicode="&#x22;" horiz-adv-x="1165" 
d="M180 852q181 53 266 197q-49 17 -85.5 63.5t-36.5 116.5q0 75 63.5 131.5t144.5 56.5q77 0 133 -56t56 -132q0 -63 -35 -128.5t-92 -120t-126.5 -100t-141.5 -74.5t-133 -36zM588 852q181 53 266 197q-50 17 -86.5 63.5t-36.5 116.5q0 75 64 131.5t145 56.5
q76 0 132 -55.5t56 -132.5q0 -63 -35 -128.5t-92 -120t-126.5 -100t-141.5 -74.5t-133 -36z" />
    <glyph glyph-name="numbersign" unicode="#" horiz-adv-x="1671" 
d="M690 4l174 283h-364l-174 -283h-254l174 283h-217l49 184h280l179 289h-308l50 184h370l201 326h254l-201 -326h365l200 326h254l-200 -326h149l-49 -184h-213l-178 -289h239l-49 -184h-303l-174 -283h-254zM612 471h365l178 289h-364z" />
    <glyph glyph-name="dollar" unicode="$" horiz-adv-x="1273" 
d="M233 -385l164 430q-94 14 -173 52t-134 97t-75 136.5t5 169.5q31 115 131 146q78 24 152 -12q63 -31 67 -81q3 -50 -59 -94q-69 -50 -72 -130q-2 -82 68 -133q97 -72 275 -36q61 12 111.5 39.5t81.5 63.5t38 78.5t-11 83t-72 79t-140 65.5q-105 35 -175.5 98t-96 137
t-9.5 154.5t70.5 150t158 124.5t240.5 78h2l133 381h152l-135 -375q83 -7 148.5 -40t101.5 -78.5t49.5 -99.5t1 -104t-53 -92t-104.5 -63q-113 -35 -177 22q-49 43 -37 109q14 73 98 114q27 13 59 21q13 2 -2 27q-28 46 -92 66q-53 16 -115 5q-68 -12 -119.5 -40t-78.5 -64
t-34 -77t8 -79t53.5 -70.5t96.5 -50.5q127 -41 211.5 -109t116.5 -145t19 -160t-68.5 -154.5t-158.5 -128t-239 -81.5q-23 -4 -69 -8l-160 -422h-152z" />
    <glyph glyph-name="percent" unicode="%" horiz-adv-x="1710" 
d="M487 510q-59 0 -108 20t-82.5 54t-57 78t-34 93.5t-10 100t11.5 96.5q47 194 182.5 320.5t315.5 126.5q154 0 225.5 -128t21.5 -325q-16 -61 -43.5 -120.5t-70 -117t-93.5 -101t-118 -70.5t-140 -27zM102 -2l1356 1239h172l-1356 -1239h-172zM406 958q-12 -51 -17.5 -109
t-1 -118.5t31.5 -100.5t75 -40q62 0 122 69.5t96.5 160t49.5 175.5q15 83 17 157.5t-21 126.5t-68 52q-54 0 -101 -31t-81.5 -85t-59.5 -118t-42 -139zM788 289q45 194 181.5 320t316.5 126q154 0 226 -127.5t20 -324.5q-15 -61 -42.5 -120.5t-69.5 -117.5t-93 -101.5
t-118 -70.5t-140 -27q-59 0 -108 20t-82.5 54t-57.5 78.5t-34.5 94t-10 100t11.5 96.5zM987 295q-12 -50 -17.5 -108.5t-1.5 -119.5t30.5 -101t74.5 -40q63 0 123 69.5t96 160t51 176.5q15 83 16.5 157.5t-21.5 126.5t-68 52q-54 0 -101 -31t-81 -85t-59 -118t-42 -139z" />
    <glyph glyph-name="ampersand" unicode="&#x26;" horiz-adv-x="2506" 
d="M1860 250q-49 72 1 129q41 47 114 51q85 4 131 -59q20 -29 28 -68q13 -68 -48.5 -134.5t-173 -107.5t-260 -49t-309.5 41q-174 -82 -366.5 -126.5t-371 -45t-322 63.5t-205.5 190q-58 116 -27 238t122.5 232t232.5 202q84 55 208 115q-4 211 103 399.5t282 300.5
q202 132 399 116q149 -12 231 -102q82 -92 49 -214q-38 -134 -208 -255q-65 -47 -169 -98.5t-176.5 -80.5t-211.5 -83q53 -138 177 -287q188 -222 362 -346q185 137 174 306q-6 84 -51 106q-207 -34 -350 21q-64 29 -61 77q3 43 57 68q46 20 110 14q97 -9 137 -16
q63 12 155 42t168 58.5t172 50t178.5 24t176 -27.5t176.5 -98l-28 -74q-48 21 -106 28t-107.5 4t-122.5 -19t-119 -29.5t-130.5 -39.5t-125.5 -38q61 -64 64 -160q9 -192 -240 -374q57 -28 106 -40t82.5 -8t56 18.5t31.5 36.5t5 48zM426 291q51 -70 134 -115t180 -61
t201.5 -10.5t207.5 32.5q-200 109 -354 305q-127 164 -166 344q-86 -44 -121 -69q-72 -51 -111 -104.5t-44 -107.5t13.5 -106t59.5 -108zM879 1040q142 64 239.5 124t163.5 139q49 59 74.5 112.5t27.5 92t-17 62.5t-55 29t-91 -13.5t-119 -61.5q-128 -83 -187 -208.5
t-36 -275.5z" />
    <glyph glyph-name="quotesingle" unicode="'" 
d="M-57 918q87 153 121 292t34 322h381q-81 -190 -194.5 -343.5t-264.5 -307.5z" />
    <glyph glyph-name="parenleft" unicode="(" horiz-adv-x="942" 
d="M471 -553q-154 116 -257 262.5t-150 304.5t-44 330t54.5 340t152.5 334t241.5 311.5t331 273.5t412.5 220l136 -58q-200 -89 -364 -221.5t-275 -282.5t-190 -320.5t-114.5 -339t-42 -334.5t20 -309.5t79 -262.5t128.5 -195z" />
    <glyph glyph-name="parenright" unicode=")" horiz-adv-x="909" 
d="M504 1823q154 -116 257 -262.5t150 -304.5t43.5 -330t-54.5 -340t-152 -334t-242 -311.5t-331.5 -273.5t-412.5 -220l-135 57q200 89 364 221.5t275 282.5t190 320.5t114.5 339t42 334.5t-20 309.5t-79 262.5t-128.5 195z" />
    <glyph glyph-name="asterisk" unicode="*" horiz-adv-x="1302" 
d="M518 508q109 133 193 301q-109 -42 -183.5 -85t-130.5 -110q-101 138 -84 283q123 -23 210.5 -23.5t185.5 23.5q-127 78 -326 152q21 55 86.5 104t134.5 55q63 -141 100 -198q27 -40 56 -72q38 157 35 324q112 53 254 12q-121 -153 -203 -324q180 82 319 221
q86 -58 68 -245q-116 -3 -198 -17t-177 -43l-6 -2q106 -62 313 -143q-30 -46 -93 -91.5t-114 -51.5q-72 141 -161 245q-40 -156 -19 -303q-136 -68 -260 -12z" />
    <glyph glyph-name="plus" unicode="+" horiz-adv-x="1384" 
d="M455 102l131 390h-494l41 184h514l135 405h189l-135 -405h469l-41 -184h-490l-131 -390h-188z" />
    <glyph glyph-name="comma" unicode="," horiz-adv-x="782" 
d="M-66 -160q182 53 267 197q-50 17 -86.5 63.5t-36.5 116.5q0 75 64 132t145 57q76 0 132 -56t56 -133q0 -63 -35 -128.5t-92 -120t-126.5 -100t-141.5 -74.5t-133 -36z" />
    <glyph glyph-name="hyphen" unicode="-" horiz-adv-x="970" 
d="M94 410l37 180h717l-37 -180h-717z" />
    <glyph glyph-name="period" unicode="." horiz-adv-x="819" 
d="M307 0q-86 0 -147.5 61.5t-61.5 147.5t61.5 147.5t147.5 61.5t147.5 -61.5t61.5 -147.5t-61.5 -147.5t-147.5 -61.5z" />
    <glyph glyph-name="slash" unicode="/" horiz-adv-x="1216" 
d="M-528 -471l2142 1987h225l-2142 -1987h-225z" />
    <glyph glyph-name="personal" unicode="0" horiz-adv-x="5398" 
d="M319 483h103l4 -602h-86l-8 250l-45 -250h-70l-49 246l-4 -246h-90l8 602h98l70 -377zM504 -119v602h78l102 -286v286h94v-602h-73l-107 295v-295h-94zM844 -119v111h102v-111h-102zM987 94l94 4q0 -71 21 -106q16 -32 37 -21q24 5 24 49q0 23 -10.5 46.5t-21 37.5
t-31.5 37t-27 31q-8 10 -30.5 30t-26.5 31q-39 57 -25 140q3 67 63.5 100.5t125.5 5.5q47 -22 62 -71.5t15 -120.5l-94 -4q-1 8 -1.5 25t-1.5 29.5t-4 26.5t-10.5 22.5t-19.5 10.5q-30 3 -39.5 -25.5t-1.5 -52.5q5 -15 13.5 -26t25 -25.5t19.5 -17.5l45 -53q86 -86 74 -201
q-3 -42 -31.5 -77t-75.5 -46q-45 -6 -85 13.5t-58 60.5q-25 56 -25 147zM1161 -700q0 -10 -1 -32.5t-1 -37.5t1.5 -36.5t6.5 -35.5t13.5 -27.5t23.5 -20.5t35 -7q31 0 47.5 18t19.5 37.5t3 50.5h-37q0 -5 0.5 -14t0.5 -14.5t-1 -12t-4 -12.5q-6 -18 -27 -20.5t-27 12.5
q-7 9 -10 23t-3.5 25t0.5 28.5t1 21.5q0 5 -1 22.5t-1 29.5t2 26t8 21q9 16 30.5 15t27.5 -19q4 -7 5 -15.5t0 -21t-1 -13.5h37q0 16 -0.5 25.5t-3.5 24t-9 22.5t-17.5 15t-27.5 8q-46 6 -68 -19.5t-22 -66.5zM1307 184q0 9 -1 52.5t0 70.5t5 53q16 96 86 123q84 22 135 -12
q23 -14 37.5 -35t20 -51t6.5 -49t1 -54v-12h-98q0 61 -4 90q0 22 -29 37q-18 4 -53 -20q-2 -20 -2 -44.5t1 -52t1 -38.5v-144q0 -5 -0.5 -19.5t-1 -25.5t1 -26t5 -25.5t10.5 -19t18 -11.5q22 -9 36 0.5t19 37.5t6 43t0 43v11h-61v91h156v-316h-78l-4 21q-27 -27 -72.5 -28.5
t-75.5 20.5q-52 26 -61 122q-3 20 -4 43t-1 40t0.5 44t0.5 41zM1341 -750q0 -3 -0.5 -25.5t0 -29.5t2.5 -26t7.5 -27t13.5 -19t22 -15.5t33 -4.5q23 0 38.5 9t23 20.5t11.5 33t4.5 34.5t0.5 38v8v19v21.5t-1 19.5t-3 21t-5.5 17.5t-9 16.5t-13 12t-18.5 9.5t-24 3.5
q-24 3 -40 -3.5t-24.5 -17t-12.5 -33t-4.5 -37.5t-0.5 -45zM1350 1671h69v254q4 0 29.5 -0.5t36 0t30 3t32.5 9t24 17.5q44 32 49 94.5t-25 110.5q-17 38 -49 49.5t-82 11.5h-114v-549zM1354 1253q0 -94 12 -135q21 -54 80 -73.5t108 4.5q24 8 41.5 22.5t27.5 36.5t16.5 42
t8.5 50.5t2.5 48.5t-0.5 50.5t-1 43.5v250h-78v-200v-176q0 -25 -4.5 -47.5t-16 -44t-31.5 -28t-51 0.5q-7 4 -13 9t-10.5 9.5t-8 12.5t-5.5 12.5t-3.5 15t-2.5 14t-1.5 15.5t-0.5 14.5v15v13.5v364h-69v-340zM1382 -729q0 4 -1 12.5t-1 16t2 12.5q0 25 14.5 40t39.5 1
q8 -3 13 -13.5t6.5 -26t1.5 -28t-0.5 -30t-0.5 -21.5v-6v-17t-0.5 -18t-2 -19t-4 -16.5t-7 -14t-10 -8t-14.5 -2.5t-19 7q-11 4 -16 22t-5 36t2 43t2 30zM1419 1982v181q7 0 20.5 0.5t21 0.5t19 -1t21.5 -4q16 -4 26 -13.5t13.5 -25.5t4.5 -26.5t1 -29.5q0 -67 -45 -77
q-18 -5 -82 -5zM1448 -545h41v131h49v25h-49v94h65v29h-106v-279zM1534 -893h33v205l45 -205h28l46 205v-205h28l-4 279h-37l-45 -226l-49 226h-45v-279zM1579 -397v-18.5v-21t0.5 -20t2 -21t4 -18.5t6.5 -17.5t10 -14t13.5 -12t18 -6.5t23.5 -3q28 0 45 12.5t23.5 37.5
t8 42t1.5 47q0 79 -13 107q-18 37 -61 41q-24 1 -40 -7t-24 -19t-12.5 -32.5t-5 -35.5t-0.5 -41zM1616 -389v45q0 27 17 43t40 2q9 -3 14.5 -13.5t7 -26t1.5 -28.5t-1 -29.5t-1 -21.5q0 -67 -7 -85q-12 -31 -47 -17q-14 6 -20.5 25t-7 36t1.5 42t2 28zM1622 -193l164 754h94
l-172 -754h-86zM1673 1671h213v53h-139v201h111v57h-111v181h135v57h-209v-549zM1706 1196q3 -67 42.5 -111.5t104.5 -44.5q66 0 102.5 51t24.5 117q-4 25 -13.5 45t-30 41.5t-28.5 29t-38 32.5q-6 5 -17.5 14t-18 14.5t-16.5 14.5t-15.5 15.5t-11.5 16.5t-8.5 18.5
t-2.5 19.5t4 22q3 25 22.5 38t46.5 7q53 -9 62 -102l57 24q0 81 -45 115q-58 35 -135 20q-62 -18 -79.5 -85t18.5 -119q11 -18 29 -36.5t42.5 -39.5t34.5 -31q8 -5 15.5 -10.5t14.5 -12.5t11 -12t11 -14t9 -12q17 -25 18 -55t-22 -52q-19 -18 -45 -16.5t-41 20.5
q-7 7 -12 16t-7.5 20.5t-4 19.5t-2.5 23t-2 20zM1763 -893h29l4 205l41 -205h29l49 205l4 -205h25l-5 279h-36l-50 -226l-49 226h-41v-279zM1772 -545h36v131h29l37 -131h45l-45 135q41 16 38.5 66t-38.5 70q-13 7 -28.5 9t-42 0.5t-31.5 -1.5v-279zM1800 627h37v135h14h14
t12.5 0.5t14 2.5t13 5t14.5 8q14 14 16.5 48.5t-4.5 58.5q-7 11 -18.5 17.5t-28.5 8.5t-28 2.5t-31.5 0t-24.5 -0.5v-286zM1808 -389v94q33 0 49.5 -8.5t16.5 -36.5q0 -30 -17.5 -39.5t-48.5 -9.5zM1837 786v103q23 0 33.5 -1.5t19 -12t8.5 -31.5q0 -41 -20 -53
q-10 -5 -41 -5zM1894 94l95 4q0 -73 20 -106q3 -13 13 -20t24 -1q9 2 14 10t5.5 15.5t0.5 23.5q0 23 -11.5 47.5t-19.5 35.5t-34.5 39t-28.5 30q-7 11 -26 30.5t-23 30.5q-37 47 -29 140q3 67 65 100.5t124 5.5q35 -15 54 -49t23.5 -66t4.5 -77l-99 -4v13v15.5t-0.5 15.5
t-1.5 16l-2.5 15t-4 14.5t-6.5 11t-9 9t-12 4.5q-19 2 -29.5 -13t-10.5 -33t3 -32q3 -9 7.5 -17.5t11 -16t10.5 -11.5l12.5 -12.5l11.5 -11.5l49 -53q85 -92 74 -201q-3 -41 -32.5 -76t-74.5 -47q-44 -6 -85 13.5t-62 60.5q-21 47 -21 147zM1944 1671h81v258h58l74 -258h69
l-69 275q43 16 58.5 68t-0.5 107t-54 79q-21 10 -52 15t-50 6t-62.5 0t-52.5 -1v-549zM1968 627h107v32h-74v254h-33v-286zM1989 -893h110v25h-69v110h57v29h-57v86h69v29h-110v-279zM2009 -295h49v-250h41v250h53v29h-143v-29zM2025 1982v181q56 0 78 -9q37 -13 37 -73
q6 -32 -3.5 -57t-33.5 -37q-36 -5 -78 -5zM2046 1049h213v45h-139v204h110v58h-110v176h139v61h-213v-544zM2103 627h107v32h-74v103h62v29h-62v98h74v24h-107v-286zM2128 -893h41v135h33l32 -135h37l-41 139q36 12 36 62t-32 69q-10 6 -24.5 8.5t-25 2.5t-29 -1t-27.5 -1
v-279zM2169 -729v86q32 0 46.5 -8.5t14.5 -36.5t-13.5 -34.5t-47.5 -6.5zM2169 -545h37v131h69v-131h45v279h-45v-123h-69v123h-37v-279zM2185 381v102h275v-102h-86v-500h-103v500h-86zM2226 627h37l8 78h62l12 -78h41l-57 286h-41zM2275 729l33 131l21 -131h-54z
M2275 1823q3 -67 43.5 -111.5t108.5 -44.5q66 0 102.5 49.5t24.5 118.5q-5 17 -12 32.5t-22 34t-21.5 25.5t-29.5 29.5t-26 25.5q-24 17 -36 27.5t-29.5 29t-23 39.5t-1.5 44q3 21 24 33t50 12q7 -2 12.5 -5t10 -6.5t9 -9.5t7 -9.5t6 -11.5t4.5 -12t3.5 -13t3.5 -12t3 -13
t2 -11l58 21q-9 88 -49 115q-24 18 -64.5 22t-67.5 -6q-43 -10 -65.5 -45.5t-20.5 -80t25 -83.5q15 -22 56.5 -58t45.5 -40q36 -27 62 -62q19 -26 20 -58t-20 -48q-19 -18 -45 -16.5t-45 20.5q-22 22 -29 98zM2308 -700q0 -12 -1.5 -38.5t-2 -44.5t2 -41.5t9.5 -37.5
t23 -24.5t39 -10.5q31 0 48 17.5t21 38t4 50.5h-41q0 -6 1.5 -18t0.5 -20t-6 -15q-3 -18 -23.5 -20.5t-29.5 12.5q-7 9 -10 23t-3.5 25t0.5 28.5t1 21.5t-1 22.5t-0.5 30t3.5 25.5t10 21q9 16 29.5 15t23.5 -19q5 -7 6 -16t-0.5 -20.5t-1.5 -13.5h41q0 19 -1.5 32t-7 28.5
t-19 24.5t-33.5 10q-42 6 -62 -19.5t-20 -66.5zM2361 -545h107v21h-66v110h58v25h-58v94h66v29h-107v-279zM2402 709q3 -35 24 -58.5t54 -23.5q37 0 55.5 28.5t6.5 65.5q-4 33 -62 70q-2 2 -13 15t-15 19t-8 17.5t-1 21.5q5 33 45 25q12 -15 21 -53l33 4q0 21 -10.5 41
t-30.5 28q-15 6 -37 3.5t-37 -11.5q-28 -30 -21 -62.5t37 -56.5q6 -7 25 -24.5t30 -33t11 -32.5q0 -39 -45 -33q-21 8 -21 62zM2464 1270q0 -78 4 -115q9 -55 48.5 -85t98.5 -30q57 0 94 28.5t46 82.5q5 18 6 38t-0.5 49.5t-1.5 43.5q0 15 4 70.5t1 95t-18 72.5
q-28 80 -143 73q-104 0 -131 -90q-7 -33 -9 -69t-0.5 -94.5t1.5 -69.5zM2492 -893h37v279h-37v-279zM2499 -119v602h176q40 0 73.5 -39.5t32.5 -115.5q0 -120 -69 -168l65 -279h-98l-53 262h-29v-262h-98zM2542 1217v98q0 17 -2 53t-2 65.5t4 53.5q9 25 21 35.5t36 13.5
q12 6 31 1t34 -17q6 -6 10 -13.5t6.5 -13t3.5 -16t1 -14.5v-17.5v-15.5v-197q0 -5 1 -17.5t1 -22.5t-2 -17q-9 -57 -41 -70q-27 -20 -70 0q-8 3 -13.5 8.5t-9 14t-5.5 14.5t-3 19t-1 17.5v20v17.5zM2558 -893h41l12 74h62l8 -74h37l-62 279h-41zM2574 627h115v32h-74v103h58
v29h-58v98h70v24h-111v-286zM2587 -545h28v131h58v25h-58v94h78v29h-106v-279zM2597 229h53q18 9 25 50.5t-5 80t-40 37.5h-33v-168zM2607 1888q0 -69 4 -102q18 -119 144 -119q120 0 143 111q8 37 8 127q0 12 2.5 71.5t-0.5 96.5t-14 69q-34 82 -148 82q-110 -7 -131 -94
q-7 -33 -9 -70.5t-0.5 -98.5t1.5 -73zM2615 -799l25 131l24 -131h-49zM2685 1839v98q0 14 -2.5 54.5t-1.5 70.5t8 52q12 43 53 49q44 7 66 -21q12 -9 17.5 -26.5t6 -28.5t0.5 -35v-250q-2 -14 -3.5 -22t-6 -19t-12 -18.5t-19.5 -13.5t-32.5 -6t-32.5 6q-7 3 -12.5 7t-9.5 8
t-7 10.5t-5 11t-3.5 12.5t-2 12t-1 13t-0.5 12v12.5v11.5zM2718 -479q6 -40 36 -59t70 -7q15 6 24 18.5t12 31.5t3.5 34t-1 38t-1.5 30v127h-29v-123q0 -2 0.5 -17.5t0 -24t-1.5 -25t-4 -26.5t-8 -20.5t-13 -16t-19 -5.5q-14 0 -22.5 10t-11.5 29t-4 33t0 37.5t1 25.5v123
h-32v-148q0 -6 -1 -20t-1 -25t2 -20zM2746 -893h111v25h-74v254h-37v-279zM2783 913l62 -286h37l57 286h-33l-45 -204l-37 204h-41zM2818 98v385h102v-372q0 -96 5 -119q7 -10 21 -17t28 -4q22 11 26 21q2 6 2 16q4 29 4 90v385h99v-385v-11q0 -35 -1 -54.5t-6 -49.5
t-19 -50.5t-36 -34.5q-57 -35 -139 -13q-75 28 -82 123q-4 33 -4 90zM2841 1049h57v368l164 -368h53v544h-70v-364l-155 364h-49v-544zM2906 -545h107v21h-66v258h-41v-279zM2951 -614l62 -279h28l66 279h-37l-41 -205l-45 205h-33zM2972 627h41v286h-41v-286zM2984 1671h61
v369l156 -369h49v549h-65v-365l-152 365h-49v-549zM3041 -545h111v21h-70v258h-41v-279zM3049 709q7 -82 74 -82q36 0 53.5 28t8.5 66q-1 9 -5 17.5t-12 17t-12.5 12.5t-16 13t-12.5 10q-4 5 -12 12.5t-13.5 13.5t-11.5 15t-5.5 15.5t5.5 16.5q3 17 16 23t21 2q7 -6 12 -14
t6.5 -12t4.5 -15l2 -12l33 4q-9 56 -37 69q-33 13 -78 -8q-19 -17 -21 -40.5t8.5 -43t28.5 -35.5q3 -3 15 -12.5t16.5 -14t13.5 -14t12.5 -16t6.5 -15.5t2 -18q0 -18 -10.5 -27t-26.5 -6q-14 5 -21.5 24.5t-7.5 37.5zM3135 -893h111v25h-70v110h58v29h-58v86h70v29h-111
v-279zM3150 0v365q0 52 36.5 86t86.5 41q35 7 69 -13q47 -22 62.5 -72t15.5 -120l-94 -4v8q0 21 -0.5 33t-4 30.5t-12.5 29t-24 13.5q-13 3 -25 -7t-12 -30v-356q0 -20 12 -30t25 -7q42 7 41 107v4v4l94 -4q0 -71 -15.5 -121t-62.5 -72q-32 -19 -69 -12q-50 7 -86.5 41
t-36.5 86zM3197 1049h213v45h-139v499h-74v-544zM3222 627h40v286h-40v-286zM3246 -545h33l16 70h58l12 -70h41l-62 279h-45zM3275 -893h41v135h32l37 -135h33l-33 139q33 13 31 62t-31 69q-12 6 -27 8.5t-26 2.5t-30 -1t-27 -1v-279zM3287 889h53v-262h33v262h45v24h-131
v-24zM3299 -446l25 127l24 -127h-49zM3308 1671h69l29 131h110l25 -131h74l-115 549h-78zM3316 -729v86q32 0 46.5 -8.5t14.5 -36.5t-13.5 -34.5t-47.5 -6.5zM3414 1860l49 254l45 -254h-94zM3430 -545h37v189l74 -189h29v279h-33v-185l-82 185h-25v-279zM3430 1593l78 -245
q27 -56 37 -107q2 -11 2 -25t-1 -31.5t-1 -25.5v-110h78v131q0 5 -1.5 20.5t-0.5 28.5t6 24l37 111q62 194 74 229h-74l-82 -262l-82 262h-70zM3447 -815q3 -36 23 -59t55 -23q36 0 52.5 27t4.5 59q0 18 -8 31.5t-24 29t-21 21.5q-4 4 -13.5 12.5t-13 12.5t-11 13.5t-6 15
t2.5 16.5q14 28 45 16q6 -3 9.5 -9.5t5 -12t3 -16.5t2.5 -15l29 12q0 55 -33 66q-15 9 -37 6t-41 -15q-28 -25 -21.5 -58.5t34.5 -64.5q69 -44 69 -81q0 -20 -12 -29t-33 0q-24 10 -24 53zM3465 -119v602h103v-254h16l86 254h98l-102 -303l102 -299h-98l-86 254h-16v-254
h-103zM3615 -545q3 0 24 -1t32 0t27.5 5t26.5 13q12 6 19 16t9 24.5t2.5 25t-0.5 28.5t-1 24q0 9 1.5 32t1.5 36.5t-4.5 29.5t-14.5 25q-13 10 -32 15.5t-29 6t-35.5 0t-26.5 -0.5v-279zM3623 -893h33v279h-33v-279zM3652 -524v229q23 0 33.5 -1.5t20 -11t11.5 -28.5v-143
q-4 -21 -14 -31.5t-20 -12t-31 -1.5zM3672 1671h217v53h-139v496h-78v-549zM3697 -750v-7q0 -24 0.5 -37.5t4.5 -36t12 -34.5t24.5 -22t40.5 -10q13 0 24 2.5t18.5 9t13 12t8.5 16.5t5.5 18t3 21.5t0.5 20.5v22.5v20.5t0.5 29t0 33t-4 27t-10 26.5t-19.5 15.5t-32 9
q-26 3 -44 -3.5t-27 -17t-13.5 -33t-5 -37.5t-0.5 -45zM3742 127v106h127v-106h-127zM3746 -729v41q0 26 12.5 40.5t40.5 0.5q7 -3 11 -13.5t5.5 -26t1.5 -28t-1 -29.5t-1 -22v-6v-17t-0.5 -18t-2 -19t-4 -16.5t-7 -14t-10 -8t-14.5 -2.5t-19 7q-15 5 -18 29t1.5 61t4.5 41z
M3779 1049h73v73h-73v-73zM3779 1593l24 -430h25l24 430h-73zM3897 -893h25v193l86 -193h29v279h-33v-189l-82 189h-25v-279zM3930 -119v602h172q43 0 79 -39.5t36 -115.5q0 -106 -53 -135q57 -40 57 -152q0 -79 -34 -119.5t-77 -40.5h-180zM4028 -29h45q26 0 37.5 29.5
t8.5 69.5q-8 73 -54 73h-37v-172zM4028 229h37q45 0 45 78q0 90 -49 90h-33v-168zM4239 -119l111 602h94l103 -602h-99l-20 144h-66l-20 -144h-103zM4379 111h32l-16 122zM4563 94l94 4q0 -71 21 -106q8 -32 36 -21q21 4 21 49q0 23 -11.5 47.5t-19.5 35.5t-34.5 39
t-28.5 30q-7 11 -26 30.5t-23 30.5q-37 47 -29 140q3 67 64.5 100.5t123.5 5.5q35 -15 54 -49t23.5 -66t4.5 -77l-98 -4v13v15.5t-0.5 15t-1.5 17t-2.5 15t-4.5 14l-7 10.5t-9 9.5t-12 4.5q-19 2 -29.5 -13t-10.5 -33t3 -32q3 -9 7.5 -17.5t11 -16t10.5 -11.5l12.5 -12.5
l11.5 -11.5l50 -53q84 -91 73 -201q-3 -41 -32 -76t-74 -47q-44 -6 -85.5 13.5t-62.5 60.5q-20 45 -20 147zM4880 -119v602h234v-102h-135v-131h110v-107h-110v-159h135v-103h-234z" />
    <glyph glyph-name="personal" unicode="9" horiz-adv-x="5398" 
d="M319 483h103l4 -602h-86l-8 250l-45 -250h-70l-49 246l-4 -246h-90l8 602h98l70 -377zM504 -119v602h78l102 -286v286h94v-602h-73l-107 295v-295h-94zM844 -119v111h102v-111h-102zM987 94l94 4q0 -71 21 -106q16 -32 37 -21q24 5 24 49q0 23 -10.5 46.5t-21 37.5
t-31.5 37t-27 31q-8 10 -30.5 30t-26.5 31q-39 57 -25 140q3 67 63.5 100.5t125.5 5.5q47 -22 62 -71.5t15 -120.5l-94 -4q-1 8 -1.5 25t-1.5 29.5t-4 26.5t-10.5 22.5t-19.5 10.5q-30 3 -39.5 -25.5t-1.5 -52.5q5 -15 13.5 -26t25 -25.5t19.5 -17.5l45 -53q86 -86 74 -201
q-3 -42 -31.5 -77t-75.5 -46q-45 -6 -85 13.5t-58 60.5q-25 56 -25 147zM1161 -700q0 -10 -1 -32.5t-1 -37.5t1.5 -36.5t6.5 -35.5t13.5 -27.5t23.5 -20.5t35 -7q31 0 47.5 18t19.5 37.5t3 50.5h-37q0 -5 0.5 -14t0.5 -14.5t-1 -12t-4 -12.5q-6 -18 -27 -20.5t-27 12.5
q-7 9 -10 23t-3.5 25t0.5 28.5t1 21.5q0 5 -1 22.5t-1 29.5t2 26t8 21q9 16 30.5 15t27.5 -19q4 -7 5 -15.5t0 -21t-1 -13.5h37q0 16 -0.5 25.5t-3.5 24t-9 22.5t-17.5 15t-27.5 8q-46 6 -68 -19.5t-22 -66.5zM1307 184q0 9 -1 52.5t0 70.5t5 53q16 96 86 123q84 22 135 -12
q23 -14 37.5 -35t20 -51t6.5 -49t1 -54v-12h-98q0 61 -4 90q0 22 -29 37q-18 4 -53 -20q-2 -20 -2 -44.5t1 -52t1 -38.5v-144q0 -5 -0.5 -19.5t-1 -25.5t1 -26t5 -25.5t10.5 -19t18 -11.5q22 -9 36 0.5t19 37.5t6 43t0 43v11h-61v91h156v-316h-78l-4 21q-27 -27 -72.5 -28.5
t-75.5 20.5q-52 26 -61 122q-3 20 -4 43t-1 40t0.5 44t0.5 41zM1341 -750q0 -3 -0.5 -25.5t0 -29.5t2.5 -26t7.5 -27t13.5 -19t22 -15.5t33 -4.5q23 0 38.5 9t23 20.5t11.5 33t4.5 34.5t0.5 38v8v19v21.5t-1 19.5t-3 21t-5.5 17.5t-9 16.5t-13 12t-18.5 9.5t-24 3.5
q-24 3 -40 -3.5t-24.5 -17t-12.5 -33t-4.5 -37.5t-0.5 -45zM1350 1671h69v254q4 0 29.5 -0.5t36 0t30 3t32.5 9t24 17.5q44 32 49 94.5t-25 110.5q-17 38 -49 49.5t-82 11.5h-114v-549zM1354 1253q0 -94 12 -135q21 -54 80 -73.5t108 4.5q24 8 41.5 22.5t27.5 36.5t16.5 42
t8.5 50.5t2.5 48.5t-0.5 50.5t-1 43.5v250h-78v-200v-176q0 -25 -4.5 -47.5t-16 -44t-31.5 -28t-51 0.5q-7 4 -13 9t-10.5 9.5t-8 12.5t-5.5 12.5t-3.5 15t-2.5 14t-1.5 15.5t-0.5 14.5v15v13.5v364h-69v-340zM1382 -729q0 4 -1 12.5t-1 16t2 12.5q0 25 14.5 40t39.5 1
q8 -3 13 -13.5t6.5 -26t1.5 -28t-0.5 -30t-0.5 -21.5v-6v-17t-0.5 -18t-2 -19t-4 -16.5t-7 -14t-10 -8t-14.5 -2.5t-19 7q-11 4 -16 22t-5 36t2 43t2 30zM1419 1982v181q7 0 20.5 0.5t21 0.5t19 -1t21.5 -4q16 -4 26 -13.5t13.5 -25.5t4.5 -26.5t1 -29.5q0 -67 -45 -77
q-18 -5 -82 -5zM1448 -545h41v131h49v25h-49v94h65v29h-106v-279zM1534 -893h33v205l45 -205h28l46 205v-205h28l-4 279h-37l-45 -226l-49 226h-45v-279zM1579 -397v-18.5v-21t0.5 -20t2 -21t4 -18.5t6.5 -17.5t10 -14t13.5 -12t18 -6.5t23.5 -3q28 0 45 12.5t23.5 37.5
t8 42t1.5 47q0 79 -13 107q-18 37 -61 41q-24 1 -40 -7t-24 -19t-12.5 -32.5t-5 -35.5t-0.5 -41zM1616 -389v45q0 27 17 43t40 2q9 -3 14.5 -13.5t7 -26t1.5 -28.5t-1 -29.5t-1 -21.5q0 -67 -7 -85q-12 -31 -47 -17q-14 6 -20.5 25t-7 36t1.5 42t2 28zM1622 -193l164 754h94
l-172 -754h-86zM1673 1671h213v53h-139v201h111v57h-111v181h135v57h-209v-549zM1706 1196q3 -67 42.5 -111.5t104.5 -44.5q66 0 102.5 51t24.5 117q-4 25 -13.5 45t-30 41.5t-28.5 29t-38 32.5q-6 5 -17.5 14t-18 14.5t-16.5 14.5t-15.5 15.5t-11.5 16.5t-8.5 18.5
t-2.5 19.5t4 22q3 25 22.5 38t46.5 7q53 -9 62 -102l57 24q0 81 -45 115q-58 35 -135 20q-62 -18 -79.5 -85t18.5 -119q11 -18 29 -36.5t42.5 -39.5t34.5 -31q8 -5 15.5 -10.5t14.5 -12.5t11 -12t11 -14t9 -12q17 -25 18 -55t-22 -52q-19 -18 -45 -16.5t-41 20.5
q-7 7 -12 16t-7.5 20.5t-4 19.5t-2.5 23t-2 20zM1763 -893h29l4 205l41 -205h29l49 205l4 -205h25l-5 279h-36l-50 -226l-49 226h-41v-279zM1772 -545h36v131h29l37 -131h45l-45 135q41 16 38.5 66t-38.5 70q-13 7 -28.5 9t-42 0.5t-31.5 -1.5v-279zM1800 627h37v135h14h14
t12.5 0.5t14 2.5t13 5t14.5 8q14 14 16.5 48.5t-4.5 58.5q-7 11 -18.5 17.5t-28.5 8.5t-28 2.5t-31.5 0t-24.5 -0.5v-286zM1808 -389v94q33 0 49.5 -8.5t16.5 -36.5q0 -30 -17.5 -39.5t-48.5 -9.5zM1837 786v103q23 0 33.5 -1.5t19 -12t8.5 -31.5q0 -41 -20 -53
q-10 -5 -41 -5zM1894 94l95 4q0 -73 20 -106q3 -13 13 -20t24 -1q9 2 14 10t5.5 15.5t0.5 23.5q0 23 -11.5 47.5t-19.5 35.5t-34.5 39t-28.5 30q-7 11 -26 30.5t-23 30.5q-37 47 -29 140q3 67 65 100.5t124 5.5q35 -15 54 -49t23.5 -66t4.5 -77l-99 -4v13v15.5t-0.5 15.5
t-1.5 16l-2.5 15t-4 14.5t-6.5 11t-9 9t-12 4.5q-19 2 -29.5 -13t-10.5 -33t3 -32q3 -9 7.5 -17.5t11 -16t10.5 -11.5l12.5 -12.5l11.5 -11.5l49 -53q85 -92 74 -201q-3 -41 -32.5 -76t-74.5 -47q-44 -6 -85 13.5t-62 60.5q-21 47 -21 147zM1944 1671h81v258h58l74 -258h69
l-69 275q43 16 58.5 68t-0.5 107t-54 79q-21 10 -52 15t-50 6t-62.5 0t-52.5 -1v-549zM1968 627h107v32h-74v254h-33v-286zM1989 -893h110v25h-69v110h57v29h-57v86h69v29h-110v-279zM2009 -295h49v-250h41v250h53v29h-143v-29zM2025 1982v181q56 0 78 -9q37 -13 37 -73
q6 -32 -3.5 -57t-33.5 -37q-36 -5 -78 -5zM2046 1049h213v45h-139v204h110v58h-110v176h139v61h-213v-544zM2103 627h107v32h-74v103h62v29h-62v98h74v24h-107v-286zM2128 -893h41v135h33l32 -135h37l-41 139q36 12 36 62t-32 69q-10 6 -24.5 8.5t-25 2.5t-29 -1t-27.5 -1
v-279zM2169 -729v86q32 0 46.5 -8.5t14.5 -36.5t-13.5 -34.5t-47.5 -6.5zM2169 -545h37v131h69v-131h45v279h-45v-123h-69v123h-37v-279zM2185 381v102h275v-102h-86v-500h-103v500h-86zM2226 627h37l8 78h62l12 -78h41l-57 286h-41zM2275 729l33 131l21 -131h-54z
M2275 1823q3 -67 43.5 -111.5t108.5 -44.5q66 0 102.5 49.5t24.5 118.5q-5 17 -12 32.5t-22 34t-21.5 25.5t-29.5 29.5t-26 25.5q-24 17 -36 27.5t-29.5 29t-23 39.5t-1.5 44q3 21 24 33t50 12q7 -2 12.5 -5t10 -6.5t9 -9.5t7 -9.5t6 -11.5t4.5 -12t3.5 -13t3.5 -12t3 -13
t2 -11l58 21q-9 88 -49 115q-24 18 -64.5 22t-67.5 -6q-43 -10 -65.5 -45.5t-20.5 -80t25 -83.5q15 -22 56.5 -58t45.5 -40q36 -27 62 -62q19 -26 20 -58t-20 -48q-19 -18 -45 -16.5t-45 20.5q-22 22 -29 98zM2308 -700q0 -12 -1.5 -38.5t-2 -44.5t2 -41.5t9.5 -37.5
t23 -24.5t39 -10.5q31 0 48 17.5t21 38t4 50.5h-41q0 -6 1.5 -18t0.5 -20t-6 -15q-3 -18 -23.5 -20.5t-29.5 12.5q-7 9 -10 23t-3.5 25t0.5 28.5t1 21.5t-1 22.5t-0.5 30t3.5 25.5t10 21q9 16 29.5 15t23.5 -19q5 -7 6 -16t-0.5 -20.5t-1.5 -13.5h41q0 19 -1.5 32t-7 28.5
t-19 24.5t-33.5 10q-42 6 -62 -19.5t-20 -66.5zM2361 -545h107v21h-66v110h58v25h-58v94h66v29h-107v-279zM2402 709q3 -35 24 -58.5t54 -23.5q37 0 55.5 28.5t6.5 65.5q-4 33 -62 70q-2 2 -13 15t-15 19t-8 17.5t-1 21.5q5 33 45 25q12 -15 21 -53l33 4q0 21 -10.5 41
t-30.5 28q-15 6 -37 3.5t-37 -11.5q-28 -30 -21 -62.5t37 -56.5q6 -7 25 -24.5t30 -33t11 -32.5q0 -39 -45 -33q-21 8 -21 62zM2464 1270q0 -78 4 -115q9 -55 48.5 -85t98.5 -30q57 0 94 28.5t46 82.5q5 18 6 38t-0.5 49.5t-1.5 43.5q0 15 4 70.5t1 95t-18 72.5
q-28 80 -143 73q-104 0 -131 -90q-7 -33 -9 -69t-0.5 -94.5t1.5 -69.5zM2492 -893h37v279h-37v-279zM2499 -119v602h176q40 0 73.5 -39.5t32.5 -115.5q0 -120 -69 -168l65 -279h-98l-53 262h-29v-262h-98zM2542 1217v98q0 17 -2 53t-2 65.5t4 53.5q9 25 21 35.5t36 13.5
q12 6 31 1t34 -17q6 -6 10 -13.5t6.5 -13t3.5 -16t1 -14.5v-17.5v-15.5v-197q0 -5 1 -17.5t1 -22.5t-2 -17q-9 -57 -41 -70q-27 -20 -70 0q-8 3 -13.5 8.5t-9 14t-5.5 14.5t-3 19t-1 17.5v20v17.5zM2558 -893h41l12 74h62l8 -74h37l-62 279h-41zM2574 627h115v32h-74v103h58
v29h-58v98h70v24h-111v-286zM2587 -545h28v131h58v25h-58v94h78v29h-106v-279zM2597 229h53q18 9 25 50.5t-5 80t-40 37.5h-33v-168zM2607 1888q0 -69 4 -102q18 -119 144 -119q120 0 143 111q8 37 8 127q0 12 2.5 71.5t-0.5 96.5t-14 69q-34 82 -148 82q-110 -7 -131 -94
q-7 -33 -9 -70.5t-0.5 -98.5t1.5 -73zM2615 -799l25 131l24 -131h-49zM2685 1839v98q0 14 -2.5 54.5t-1.5 70.5t8 52q12 43 53 49q44 7 66 -21q12 -9 17.5 -26.5t6 -28.5t0.5 -35v-250q-2 -14 -3.5 -22t-6 -19t-12 -18.5t-19.5 -13.5t-32.5 -6t-32.5 6q-7 3 -12.5 7t-9.5 8
t-7 10.5t-5 11t-3.5 12.5t-2 12t-1 13t-0.5 12v12.5v11.5zM2718 -479q6 -40 36 -59t70 -7q15 6 24 18.5t12 31.5t3.5 34t-1 38t-1.5 30v127h-29v-123q0 -2 0.5 -17.5t0 -24t-1.5 -25t-4 -26.5t-8 -20.5t-13 -16t-19 -5.5q-14 0 -22.5 10t-11.5 29t-4 33t0 37.5t1 25.5v123
h-32v-148q0 -6 -1 -20t-1 -25t2 -20zM2746 -893h111v25h-74v254h-37v-279zM2783 913l62 -286h37l57 286h-33l-45 -204l-37 204h-41zM2818 98v385h102v-372q0 -96 5 -119q7 -10 21 -17t28 -4q22 11 26 21q2 6 2 16q4 29 4 90v385h99v-385v-11q0 -35 -1 -54.5t-6 -49.5
t-19 -50.5t-36 -34.5q-57 -35 -139 -13q-75 28 -82 123q-4 33 -4 90zM2841 1049h57v368l164 -368h53v544h-70v-364l-155 364h-49v-544zM2906 -545h107v21h-66v258h-41v-279zM2951 -614l62 -279h28l66 279h-37l-41 -205l-45 205h-33zM2972 627h41v286h-41v-286zM2984 1671h61
v369l156 -369h49v549h-65v-365l-152 365h-49v-549zM3041 -545h111v21h-70v258h-41v-279zM3049 709q7 -82 74 -82q36 0 53.5 28t8.5 66q-1 9 -5 17.5t-12 17t-12.5 12.5t-16 13t-12.5 10q-4 5 -12 12.5t-13.5 13.5t-11.5 15t-5.5 15.5t5.5 16.5q3 17 16 23t21 2q7 -6 12 -14
t6.5 -12t4.5 -15l2 -12l33 4q-9 56 -37 69q-33 13 -78 -8q-19 -17 -21 -40.5t8.5 -43t28.5 -35.5q3 -3 15 -12.5t16.5 -14t13.5 -14t12.5 -16t6.5 -15.5t2 -18q0 -18 -10.5 -27t-26.5 -6q-14 5 -21.5 24.5t-7.5 37.5zM3135 -893h111v25h-70v110h58v29h-58v86h70v29h-111
v-279zM3150 0v365q0 52 36.5 86t86.5 41q35 7 69 -13q47 -22 62.5 -72t15.5 -120l-94 -4v8q0 21 -0.5 33t-4 30.5t-12.5 29t-24 13.5q-13 3 -25 -7t-12 -30v-356q0 -20 12 -30t25 -7q42 7 41 107v4v4l94 -4q0 -71 -15.5 -121t-62.5 -72q-32 -19 -69 -12q-50 7 -86.5 41
t-36.5 86zM3197 1049h213v45h-139v499h-74v-544zM3222 627h40v286h-40v-286zM3246 -545h33l16 70h58l12 -70h41l-62 279h-45zM3275 -893h41v135h32l37 -135h33l-33 139q33 13 31 62t-31 69q-12 6 -27 8.5t-26 2.5t-30 -1t-27 -1v-279zM3287 889h53v-262h33v262h45v24h-131
v-24zM3299 -446l25 127l24 -127h-49zM3308 1671h69l29 131h110l25 -131h74l-115 549h-78zM3316 -729v86q32 0 46.5 -8.5t14.5 -36.5t-13.5 -34.5t-47.5 -6.5zM3414 1860l49 254l45 -254h-94zM3430 -545h37v189l74 -189h29v279h-33v-185l-82 185h-25v-279zM3430 1593l78 -245
q27 -56 37 -107q2 -11 2 -25t-1 -31.5t-1 -25.5v-110h78v131q0 5 -1.5 20.5t-0.5 28.5t6 24l37 111q62 194 74 229h-74l-82 -262l-82 262h-70zM3447 -815q3 -36 23 -59t55 -23q36 0 52.5 27t4.5 59q0 18 -8 31.5t-24 29t-21 21.5q-4 4 -13.5 12.5t-13 12.5t-11 13.5t-6 15
t2.5 16.5q14 28 45 16q6 -3 9.5 -9.5t5 -12t3 -16.5t2.5 -15l29 12q0 55 -33 66q-15 9 -37 6t-41 -15q-28 -25 -21.5 -58.5t34.5 -64.5q69 -44 69 -81q0 -20 -12 -29t-33 0q-24 10 -24 53zM3465 -119v602h103v-254h16l86 254h98l-102 -303l102 -299h-98l-86 254h-16v-254
h-103zM3615 -545q3 0 24 -1t32 0t27.5 5t26.5 13q12 6 19 16t9 24.5t2.5 25t-0.5 28.5t-1 24q0 9 1.5 32t1.5 36.5t-4.5 29.5t-14.5 25q-13 10 -32 15.5t-29 6t-35.5 0t-26.5 -0.5v-279zM3623 -893h33v279h-33v-279zM3652 -524v229q23 0 33.5 -1.5t20 -11t11.5 -28.5v-143
q-4 -21 -14 -31.5t-20 -12t-31 -1.5zM3672 1671h217v53h-139v496h-78v-549zM3697 -750v-7q0 -24 0.5 -37.5t4.5 -36t12 -34.5t24.5 -22t40.5 -10q13 0 24 2.5t18.5 9t13 12t8.5 16.5t5.5 18t3 21.5t0.5 20.5v22.5v20.5t0.5 29t0 33t-4 27t-10 26.5t-19.5 15.5t-32 9
q-26 3 -44 -3.5t-27 -17t-13.5 -33t-5 -37.5t-0.5 -45zM3742 127v106h127v-106h-127zM3746 -729v41q0 26 12.5 40.5t40.5 0.5q7 -3 11 -13.5t5.5 -26t1.5 -28t-1 -29.5t-1 -22v-6v-17t-0.5 -18t-2 -19t-4 -16.5t-7 -14t-10 -8t-14.5 -2.5t-19 7q-15 5 -18 29t1.5 61t4.5 41z
M3779 1049h73v73h-73v-73zM3779 1593l24 -430h25l24 430h-73zM3897 -893h25v193l86 -193h29v279h-33v-189l-82 189h-25v-279zM3930 -119v602h172q43 0 79 -39.5t36 -115.5q0 -106 -53 -135q57 -40 57 -152q0 -79 -34 -119.5t-77 -40.5h-180zM4028 -29h45q26 0 37.5 29.5
t8.5 69.5q-8 73 -54 73h-37v-172zM4028 229h37q45 0 45 78q0 90 -49 90h-33v-168zM4239 -119l111 602h94l103 -602h-99l-20 144h-66l-20 -144h-103zM4379 111h32l-16 122zM4563 94l94 4q0 -71 21 -106q8 -32 36 -21q21 4 21 49q0 23 -11.5 47.5t-19.5 35.5t-34.5 39
t-28.5 30q-7 11 -26 30.5t-23 30.5q-37 47 -29 140q3 67 64.5 100.5t123.5 5.5q35 -15 54 -49t23.5 -66t4.5 -77l-98 -4v13v15.5t-0.5 15t-1.5 17t-2.5 15t-4.5 14l-7 10.5t-9 9.5t-12 4.5q-19 2 -29.5 -13t-10.5 -33t3 -32q3 -9 7.5 -17.5t11 -16t10.5 -11.5l12.5 -12.5
l11.5 -11.5l50 -53q84 -91 73 -201q-3 -41 -32 -76t-74 -47q-44 -6 -85.5 13.5t-62.5 60.5q-20 45 -20 147zM4880 -119v602h234v-102h-135v-131h110v-107h-110v-159h135v-103h-234z" />
    <glyph glyph-name="personal" unicode="8" horiz-adv-x="5398" 
d="M319 483h103l4 -602h-86l-8 250l-45 -250h-70l-49 246l-4 -246h-90l8 602h98l70 -377zM504 -119v602h78l102 -286v286h94v-602h-73l-107 295v-295h-94zM844 -119v111h102v-111h-102zM987 94l94 4q0 -71 21 -106q16 -32 37 -21q24 5 24 49q0 23 -10.5 46.5t-21 37.5
t-31.5 37t-27 31q-8 10 -30.5 30t-26.5 31q-39 57 -25 140q3 67 63.5 100.5t125.5 5.5q47 -22 62 -71.5t15 -120.5l-94 -4q-1 8 -1.5 25t-1.5 29.5t-4 26.5t-10.5 22.5t-19.5 10.5q-30 3 -39.5 -25.5t-1.5 -52.5q5 -15 13.5 -26t25 -25.5t19.5 -17.5l45 -53q86 -86 74 -201
q-3 -42 -31.5 -77t-75.5 -46q-45 -6 -85 13.5t-58 60.5q-25 56 -25 147zM1161 -700q0 -10 -1 -32.5t-1 -37.5t1.5 -36.5t6.5 -35.5t13.5 -27.5t23.5 -20.5t35 -7q31 0 47.5 18t19.5 37.5t3 50.5h-37q0 -5 0.5 -14t0.5 -14.5t-1 -12t-4 -12.5q-6 -18 -27 -20.5t-27 12.5
q-7 9 -10 23t-3.5 25t0.5 28.5t1 21.5q0 5 -1 22.5t-1 29.5t2 26t8 21q9 16 30.5 15t27.5 -19q4 -7 5 -15.5t0 -21t-1 -13.5h37q0 16 -0.5 25.5t-3.5 24t-9 22.5t-17.5 15t-27.5 8q-46 6 -68 -19.5t-22 -66.5zM1307 184q0 9 -1 52.5t0 70.5t5 53q16 96 86 123q84 22 135 -12
q23 -14 37.5 -35t20 -51t6.5 -49t1 -54v-12h-98q0 61 -4 90q0 22 -29 37q-18 4 -53 -20q-2 -20 -2 -44.5t1 -52t1 -38.5v-144q0 -5 -0.5 -19.5t-1 -25.5t1 -26t5 -25.5t10.5 -19t18 -11.5q22 -9 36 0.5t19 37.5t6 43t0 43v11h-61v91h156v-316h-78l-4 21q-27 -27 -72.5 -28.5
t-75.5 20.5q-52 26 -61 122q-3 20 -4 43t-1 40t0.5 44t0.5 41zM1341 -750q0 -3 -0.5 -25.5t0 -29.5t2.5 -26t7.5 -27t13.5 -19t22 -15.5t33 -4.5q23 0 38.5 9t23 20.5t11.5 33t4.5 34.5t0.5 38v8v19v21.5t-1 19.5t-3 21t-5.5 17.5t-9 16.5t-13 12t-18.5 9.5t-24 3.5
q-24 3 -40 -3.5t-24.5 -17t-12.5 -33t-4.5 -37.5t-0.5 -45zM1350 1671h69v254q4 0 29.5 -0.5t36 0t30 3t32.5 9t24 17.5q44 32 49 94.5t-25 110.5q-17 38 -49 49.5t-82 11.5h-114v-549zM1354 1253q0 -94 12 -135q21 -54 80 -73.5t108 4.5q24 8 41.5 22.5t27.5 36.5t16.5 42
t8.5 50.5t2.5 48.5t-0.5 50.5t-1 43.5v250h-78v-200v-176q0 -25 -4.5 -47.5t-16 -44t-31.5 -28t-51 0.5q-7 4 -13 9t-10.5 9.5t-8 12.5t-5.5 12.5t-3.5 15t-2.5 14t-1.5 15.5t-0.5 14.5v15v13.5v364h-69v-340zM1382 -729q0 4 -1 12.5t-1 16t2 12.5q0 25 14.5 40t39.5 1
q8 -3 13 -13.5t6.5 -26t1.5 -28t-0.5 -30t-0.5 -21.5v-6v-17t-0.5 -18t-2 -19t-4 -16.5t-7 -14t-10 -8t-14.5 -2.5t-19 7q-11 4 -16 22t-5 36t2 43t2 30zM1419 1982v181q7 0 20.5 0.5t21 0.5t19 -1t21.5 -4q16 -4 26 -13.5t13.5 -25.5t4.5 -26.5t1 -29.5q0 -67 -45 -77
q-18 -5 -82 -5zM1448 -545h41v131h49v25h-49v94h65v29h-106v-279zM1534 -893h33v205l45 -205h28l46 205v-205h28l-4 279h-37l-45 -226l-49 226h-45v-279zM1579 -397v-18.5v-21t0.5 -20t2 -21t4 -18.5t6.5 -17.5t10 -14t13.5 -12t18 -6.5t23.5 -3q28 0 45 12.5t23.5 37.5
t8 42t1.5 47q0 79 -13 107q-18 37 -61 41q-24 1 -40 -7t-24 -19t-12.5 -32.5t-5 -35.5t-0.5 -41zM1616 -389v45q0 27 17 43t40 2q9 -3 14.5 -13.5t7 -26t1.5 -28.5t-1 -29.5t-1 -21.5q0 -67 -7 -85q-12 -31 -47 -17q-14 6 -20.5 25t-7 36t1.5 42t2 28zM1622 -193l164 754h94
l-172 -754h-86zM1673 1671h213v53h-139v201h111v57h-111v181h135v57h-209v-549zM1706 1196q3 -67 42.5 -111.5t104.5 -44.5q66 0 102.5 51t24.5 117q-4 25 -13.5 45t-30 41.5t-28.5 29t-38 32.5q-6 5 -17.5 14t-18 14.5t-16.5 14.5t-15.5 15.5t-11.5 16.5t-8.5 18.5
t-2.5 19.5t4 22q3 25 22.5 38t46.5 7q53 -9 62 -102l57 24q0 81 -45 115q-58 35 -135 20q-62 -18 -79.5 -85t18.5 -119q11 -18 29 -36.5t42.5 -39.5t34.5 -31q8 -5 15.5 -10.5t14.5 -12.5t11 -12t11 -14t9 -12q17 -25 18 -55t-22 -52q-19 -18 -45 -16.5t-41 20.5
q-7 7 -12 16t-7.5 20.5t-4 19.5t-2.5 23t-2 20zM1763 -893h29l4 205l41 -205h29l49 205l4 -205h25l-5 279h-36l-50 -226l-49 226h-41v-279zM1772 -545h36v131h29l37 -131h45l-45 135q41 16 38.5 66t-38.5 70q-13 7 -28.5 9t-42 0.5t-31.5 -1.5v-279zM1800 627h37v135h14h14
t12.5 0.5t14 2.5t13 5t14.5 8q14 14 16.5 48.5t-4.5 58.5q-7 11 -18.5 17.5t-28.5 8.5t-28 2.5t-31.5 0t-24.5 -0.5v-286zM1808 -389v94q33 0 49.5 -8.5t16.5 -36.5q0 -30 -17.5 -39.5t-48.5 -9.5zM1837 786v103q23 0 33.5 -1.5t19 -12t8.5 -31.5q0 -41 -20 -53
q-10 -5 -41 -5zM1894 94l95 4q0 -73 20 -106q3 -13 13 -20t24 -1q9 2 14 10t5.5 15.5t0.5 23.5q0 23 -11.5 47.5t-19.5 35.5t-34.5 39t-28.5 30q-7 11 -26 30.5t-23 30.5q-37 47 -29 140q3 67 65 100.5t124 5.5q35 -15 54 -49t23.5 -66t4.5 -77l-99 -4v13v15.5t-0.5 15.5
t-1.5 16l-2.5 15t-4 14.5t-6.5 11t-9 9t-12 4.5q-19 2 -29.5 -13t-10.5 -33t3 -32q3 -9 7.5 -17.5t11 -16t10.5 -11.5l12.5 -12.5l11.5 -11.5l49 -53q85 -92 74 -201q-3 -41 -32.5 -76t-74.5 -47q-44 -6 -85 13.5t-62 60.5q-21 47 -21 147zM1944 1671h81v258h58l74 -258h69
l-69 275q43 16 58.5 68t-0.5 107t-54 79q-21 10 -52 15t-50 6t-62.5 0t-52.5 -1v-549zM1968 627h107v32h-74v254h-33v-286zM1989 -893h110v25h-69v110h57v29h-57v86h69v29h-110v-279zM2009 -295h49v-250h41v250h53v29h-143v-29zM2025 1982v181q56 0 78 -9q37 -13 37 -73
q6 -32 -3.5 -57t-33.5 -37q-36 -5 -78 -5zM2046 1049h213v45h-139v204h110v58h-110v176h139v61h-213v-544zM2103 627h107v32h-74v103h62v29h-62v98h74v24h-107v-286zM2128 -893h41v135h33l32 -135h37l-41 139q36 12 36 62t-32 69q-10 6 -24.5 8.5t-25 2.5t-29 -1t-27.5 -1
v-279zM2169 -729v86q32 0 46.5 -8.5t14.5 -36.5t-13.5 -34.5t-47.5 -6.5zM2169 -545h37v131h69v-131h45v279h-45v-123h-69v123h-37v-279zM2185 381v102h275v-102h-86v-500h-103v500h-86zM2226 627h37l8 78h62l12 -78h41l-57 286h-41zM2275 729l33 131l21 -131h-54z
M2275 1823q3 -67 43.5 -111.5t108.5 -44.5q66 0 102.5 49.5t24.5 118.5q-5 17 -12 32.5t-22 34t-21.5 25.5t-29.5 29.5t-26 25.5q-24 17 -36 27.5t-29.5 29t-23 39.5t-1.5 44q3 21 24 33t50 12q7 -2 12.5 -5t10 -6.5t9 -9.5t7 -9.5t6 -11.5t4.5 -12t3.5 -13t3.5 -12t3 -13
t2 -11l58 21q-9 88 -49 115q-24 18 -64.5 22t-67.5 -6q-43 -10 -65.5 -45.5t-20.5 -80t25 -83.5q15 -22 56.5 -58t45.5 -40q36 -27 62 -62q19 -26 20 -58t-20 -48q-19 -18 -45 -16.5t-45 20.5q-22 22 -29 98zM2308 -700q0 -12 -1.5 -38.5t-2 -44.5t2 -41.5t9.5 -37.5
t23 -24.5t39 -10.5q31 0 48 17.5t21 38t4 50.5h-41q0 -6 1.5 -18t0.5 -20t-6 -15q-3 -18 -23.5 -20.5t-29.5 12.5q-7 9 -10 23t-3.5 25t0.5 28.5t1 21.5t-1 22.5t-0.5 30t3.5 25.5t10 21q9 16 29.5 15t23.5 -19q5 -7 6 -16t-0.5 -20.5t-1.5 -13.5h41q0 19 -1.5 32t-7 28.5
t-19 24.5t-33.5 10q-42 6 -62 -19.5t-20 -66.5zM2361 -545h107v21h-66v110h58v25h-58v94h66v29h-107v-279zM2402 709q3 -35 24 -58.5t54 -23.5q37 0 55.5 28.5t6.5 65.5q-4 33 -62 70q-2 2 -13 15t-15 19t-8 17.5t-1 21.5q5 33 45 25q12 -15 21 -53l33 4q0 21 -10.5 41
t-30.5 28q-15 6 -37 3.5t-37 -11.5q-28 -30 -21 -62.5t37 -56.5q6 -7 25 -24.5t30 -33t11 -32.5q0 -39 -45 -33q-21 8 -21 62zM2464 1270q0 -78 4 -115q9 -55 48.5 -85t98.5 -30q57 0 94 28.5t46 82.5q5 18 6 38t-0.5 49.5t-1.5 43.5q0 15 4 70.5t1 95t-18 72.5
q-28 80 -143 73q-104 0 -131 -90q-7 -33 -9 -69t-0.5 -94.5t1.5 -69.5zM2492 -893h37v279h-37v-279zM2499 -119v602h176q40 0 73.5 -39.5t32.5 -115.5q0 -120 -69 -168l65 -279h-98l-53 262h-29v-262h-98zM2542 1217v98q0 17 -2 53t-2 65.5t4 53.5q9 25 21 35.5t36 13.5
q12 6 31 1t34 -17q6 -6 10 -13.5t6.5 -13t3.5 -16t1 -14.5v-17.5v-15.5v-197q0 -5 1 -17.5t1 -22.5t-2 -17q-9 -57 -41 -70q-27 -20 -70 0q-8 3 -13.5 8.5t-9 14t-5.5 14.5t-3 19t-1 17.5v20v17.5zM2558 -893h41l12 74h62l8 -74h37l-62 279h-41zM2574 627h115v32h-74v103h58
v29h-58v98h70v24h-111v-286zM2587 -545h28v131h58v25h-58v94h78v29h-106v-279zM2597 229h53q18 9 25 50.5t-5 80t-40 37.5h-33v-168zM2607 1888q0 -69 4 -102q18 -119 144 -119q120 0 143 111q8 37 8 127q0 12 2.5 71.5t-0.5 96.5t-14 69q-34 82 -148 82q-110 -7 -131 -94
q-7 -33 -9 -70.5t-0.5 -98.5t1.5 -73zM2615 -799l25 131l24 -131h-49zM2685 1839v98q0 14 -2.5 54.5t-1.5 70.5t8 52q12 43 53 49q44 7 66 -21q12 -9 17.5 -26.5t6 -28.5t0.5 -35v-250q-2 -14 -3.5 -22t-6 -19t-12 -18.5t-19.5 -13.5t-32.5 -6t-32.5 6q-7 3 -12.5 7t-9.5 8
t-7 10.5t-5 11t-3.5 12.5t-2 12t-1 13t-0.5 12v12.5v11.5zM2718 -479q6 -40 36 -59t70 -7q15 6 24 18.5t12 31.5t3.5 34t-1 38t-1.5 30v127h-29v-123q0 -2 0.5 -17.5t0 -24t-1.5 -25t-4 -26.5t-8 -20.5t-13 -16t-19 -5.5q-14 0 -22.5 10t-11.5 29t-4 33t0 37.5t1 25.5v123
h-32v-148q0 -6 -1 -20t-1 -25t2 -20zM2746 -893h111v25h-74v254h-37v-279zM2783 913l62 -286h37l57 286h-33l-45 -204l-37 204h-41zM2818 98v385h102v-372q0 -96 5 -119q7 -10 21 -17t28 -4q22 11 26 21q2 6 2 16q4 29 4 90v385h99v-385v-11q0 -35 -1 -54.5t-6 -49.5
t-19 -50.5t-36 -34.5q-57 -35 -139 -13q-75 28 -82 123q-4 33 -4 90zM2841 1049h57v368l164 -368h53v544h-70v-364l-155 364h-49v-544zM2906 -545h107v21h-66v258h-41v-279zM2951 -614l62 -279h28l66 279h-37l-41 -205l-45 205h-33zM2972 627h41v286h-41v-286zM2984 1671h61
v369l156 -369h49v549h-65v-365l-152 365h-49v-549zM3041 -545h111v21h-70v258h-41v-279zM3049 709q7 -82 74 -82q36 0 53.5 28t8.5 66q-1 9 -5 17.5t-12 17t-12.5 12.5t-16 13t-12.5 10q-4 5 -12 12.5t-13.5 13.5t-11.5 15t-5.5 15.5t5.5 16.5q3 17 16 23t21 2q7 -6 12 -14
t6.5 -12t4.5 -15l2 -12l33 4q-9 56 -37 69q-33 13 -78 -8q-19 -17 -21 -40.5t8.5 -43t28.5 -35.5q3 -3 15 -12.5t16.5 -14t13.5 -14t12.5 -16t6.5 -15.5t2 -18q0 -18 -10.5 -27t-26.5 -6q-14 5 -21.5 24.5t-7.5 37.5zM3135 -893h111v25h-70v110h58v29h-58v86h70v29h-111
v-279zM3150 0v365q0 52 36.5 86t86.5 41q35 7 69 -13q47 -22 62.5 -72t15.5 -120l-94 -4v8q0 21 -0.5 33t-4 30.5t-12.5 29t-24 13.5q-13 3 -25 -7t-12 -30v-356q0 -20 12 -30t25 -7q42 7 41 107v4v4l94 -4q0 -71 -15.5 -121t-62.5 -72q-32 -19 -69 -12q-50 7 -86.5 41
t-36.5 86zM3197 1049h213v45h-139v499h-74v-544zM3222 627h40v286h-40v-286zM3246 -545h33l16 70h58l12 -70h41l-62 279h-45zM3275 -893h41v135h32l37 -135h33l-33 139q33 13 31 62t-31 69q-12 6 -27 8.5t-26 2.5t-30 -1t-27 -1v-279zM3287 889h53v-262h33v262h45v24h-131
v-24zM3299 -446l25 127l24 -127h-49zM3308 1671h69l29 131h110l25 -131h74l-115 549h-78zM3316 -729v86q32 0 46.5 -8.5t14.5 -36.5t-13.5 -34.5t-47.5 -6.5zM3414 1860l49 254l45 -254h-94zM3430 -545h37v189l74 -189h29v279h-33v-185l-82 185h-25v-279zM3430 1593l78 -245
q27 -56 37 -107q2 -11 2 -25t-1 -31.5t-1 -25.5v-110h78v131q0 5 -1.5 20.5t-0.5 28.5t6 24l37 111q62 194 74 229h-74l-82 -262l-82 262h-70zM3447 -815q3 -36 23 -59t55 -23q36 0 52.5 27t4.5 59q0 18 -8 31.5t-24 29t-21 21.5q-4 4 -13.5 12.5t-13 12.5t-11 13.5t-6 15
t2.5 16.5q14 28 45 16q6 -3 9.5 -9.5t5 -12t3 -16.5t2.5 -15l29 12q0 55 -33 66q-15 9 -37 6t-41 -15q-28 -25 -21.5 -58.5t34.5 -64.5q69 -44 69 -81q0 -20 -12 -29t-33 0q-24 10 -24 53zM3465 -119v602h103v-254h16l86 254h98l-102 -303l102 -299h-98l-86 254h-16v-254
h-103zM3615 -545q3 0 24 -1t32 0t27.5 5t26.5 13q12 6 19 16t9 24.5t2.5 25t-0.5 28.5t-1 24q0 9 1.5 32t1.5 36.5t-4.5 29.5t-14.5 25q-13 10 -32 15.5t-29 6t-35.5 0t-26.5 -0.5v-279zM3623 -893h33v279h-33v-279zM3652 -524v229q23 0 33.5 -1.5t20 -11t11.5 -28.5v-143
q-4 -21 -14 -31.5t-20 -12t-31 -1.5zM3672 1671h217v53h-139v496h-78v-549zM3697 -750v-7q0 -24 0.5 -37.5t4.5 -36t12 -34.5t24.5 -22t40.5 -10q13 0 24 2.5t18.5 9t13 12t8.5 16.5t5.5 18t3 21.5t0.5 20.5v22.5v20.5t0.5 29t0 33t-4 27t-10 26.5t-19.5 15.5t-32 9
q-26 3 -44 -3.5t-27 -17t-13.5 -33t-5 -37.5t-0.5 -45zM3742 127v106h127v-106h-127zM3746 -729v41q0 26 12.5 40.5t40.5 0.5q7 -3 11 -13.5t5.5 -26t1.5 -28t-1 -29.5t-1 -22v-6v-17t-0.5 -18t-2 -19t-4 -16.5t-7 -14t-10 -8t-14.5 -2.5t-19 7q-15 5 -18 29t1.5 61t4.5 41z
M3779 1049h73v73h-73v-73zM3779 1593l24 -430h25l24 430h-73zM3897 -893h25v193l86 -193h29v279h-33v-189l-82 189h-25v-279zM3930 -119v602h172q43 0 79 -39.5t36 -115.5q0 -106 -53 -135q57 -40 57 -152q0 -79 -34 -119.5t-77 -40.5h-180zM4028 -29h45q26 0 37.5 29.5
t8.5 69.5q-8 73 -54 73h-37v-172zM4028 229h37q45 0 45 78q0 90 -49 90h-33v-168zM4239 -119l111 602h94l103 -602h-99l-20 144h-66l-20 -144h-103zM4379 111h32l-16 122zM4563 94l94 4q0 -71 21 -106q8 -32 36 -21q21 4 21 49q0 23 -11.5 47.5t-19.5 35.5t-34.5 39
t-28.5 30q-7 11 -26 30.5t-23 30.5q-37 47 -29 140q3 67 64.5 100.5t123.5 5.5q35 -15 54 -49t23.5 -66t4.5 -77l-98 -4v13v15.5t-0.5 15t-1.5 17t-2.5 15t-4.5 14l-7 10.5t-9 9.5t-12 4.5q-19 2 -29.5 -13t-10.5 -33t3 -32q3 -9 7.5 -17.5t11 -16t10.5 -11.5l12.5 -12.5
l11.5 -11.5l50 -53q84 -91 73 -201q-3 -41 -32 -76t-74 -47q-44 -6 -85.5 13.5t-62.5 60.5q-20 45 -20 147zM4880 -119v602h234v-102h-135v-131h110v-107h-110v-159h135v-103h-234z" />
    <glyph glyph-name="personal" unicode="7" horiz-adv-x="5398" 
d="M319 483h103l4 -602h-86l-8 250l-45 -250h-70l-49 246l-4 -246h-90l8 602h98l70 -377zM504 -119v602h78l102 -286v286h94v-602h-73l-107 295v-295h-94zM844 -119v111h102v-111h-102zM987 94l94 4q0 -71 21 -106q16 -32 37 -21q24 5 24 49q0 23 -10.5 46.5t-21 37.5
t-31.5 37t-27 31q-8 10 -30.5 30t-26.5 31q-39 57 -25 140q3 67 63.5 100.5t125.5 5.5q47 -22 62 -71.5t15 -120.5l-94 -4q-1 8 -1.5 25t-1.5 29.5t-4 26.5t-10.5 22.5t-19.5 10.5q-30 3 -39.5 -25.5t-1.5 -52.5q5 -15 13.5 -26t25 -25.5t19.5 -17.5l45 -53q86 -86 74 -201
q-3 -42 -31.5 -77t-75.5 -46q-45 -6 -85 13.5t-58 60.5q-25 56 -25 147zM1161 -700q0 -10 -1 -32.5t-1 -37.5t1.5 -36.5t6.5 -35.5t13.5 -27.5t23.5 -20.5t35 -7q31 0 47.5 18t19.5 37.5t3 50.5h-37q0 -5 0.5 -14t0.5 -14.5t-1 -12t-4 -12.5q-6 -18 -27 -20.5t-27 12.5
q-7 9 -10 23t-3.5 25t0.5 28.5t1 21.5q0 5 -1 22.5t-1 29.5t2 26t8 21q9 16 30.5 15t27.5 -19q4 -7 5 -15.5t0 -21t-1 -13.5h37q0 16 -0.5 25.5t-3.5 24t-9 22.5t-17.5 15t-27.5 8q-46 6 -68 -19.5t-22 -66.5zM1307 184q0 9 -1 52.5t0 70.5t5 53q16 96 86 123q84 22 135 -12
q23 -14 37.5 -35t20 -51t6.5 -49t1 -54v-12h-98q0 61 -4 90q0 22 -29 37q-18 4 -53 -20q-2 -20 -2 -44.5t1 -52t1 -38.5v-144q0 -5 -0.5 -19.5t-1 -25.5t1 -26t5 -25.5t10.5 -19t18 -11.5q22 -9 36 0.5t19 37.5t6 43t0 43v11h-61v91h156v-316h-78l-4 21q-27 -27 -72.5 -28.5
t-75.5 20.5q-52 26 -61 122q-3 20 -4 43t-1 40t0.5 44t0.5 41zM1341 -750q0 -3 -0.5 -25.5t0 -29.5t2.5 -26t7.5 -27t13.5 -19t22 -15.5t33 -4.5q23 0 38.5 9t23 20.5t11.5 33t4.5 34.5t0.5 38v8v19v21.5t-1 19.5t-3 21t-5.5 17.5t-9 16.5t-13 12t-18.5 9.5t-24 3.5
q-24 3 -40 -3.5t-24.5 -17t-12.5 -33t-4.5 -37.5t-0.5 -45zM1350 1671h69v254q4 0 29.5 -0.5t36 0t30 3t32.5 9t24 17.5q44 32 49 94.5t-25 110.5q-17 38 -49 49.5t-82 11.5h-114v-549zM1354 1253q0 -94 12 -135q21 -54 80 -73.5t108 4.5q24 8 41.5 22.5t27.5 36.5t16.5 42
t8.5 50.5t2.5 48.5t-0.5 50.5t-1 43.5v250h-78v-200v-176q0 -25 -4.5 -47.5t-16 -44t-31.5 -28t-51 0.5q-7 4 -13 9t-10.5 9.5t-8 12.5t-5.5 12.5t-3.5 15t-2.5 14t-1.5 15.5t-0.5 14.5v15v13.5v364h-69v-340zM1382 -729q0 4 -1 12.5t-1 16t2 12.5q0 25 14.5 40t39.5 1
q8 -3 13 -13.5t6.5 -26t1.5 -28t-0.5 -30t-0.5 -21.5v-6v-17t-0.5 -18t-2 -19t-4 -16.5t-7 -14t-10 -8t-14.5 -2.5t-19 7q-11 4 -16 22t-5 36t2 43t2 30zM1419 1982v181q7 0 20.5 0.5t21 0.5t19 -1t21.5 -4q16 -4 26 -13.5t13.5 -25.5t4.5 -26.5t1 -29.5q0 -67 -45 -77
q-18 -5 -82 -5zM1448 -545h41v131h49v25h-49v94h65v29h-106v-279zM1534 -893h33v205l45 -205h28l46 205v-205h28l-4 279h-37l-45 -226l-49 226h-45v-279zM1579 -397v-18.5v-21t0.5 -20t2 -21t4 -18.5t6.5 -17.5t10 -14t13.5 -12t18 -6.5t23.5 -3q28 0 45 12.5t23.5 37.5
t8 42t1.5 47q0 79 -13 107q-18 37 -61 41q-24 1 -40 -7t-24 -19t-12.5 -32.5t-5 -35.5t-0.5 -41zM1616 -389v45q0 27 17 43t40 2q9 -3 14.5 -13.5t7 -26t1.5 -28.5t-1 -29.5t-1 -21.5q0 -67 -7 -85q-12 -31 -47 -17q-14 6 -20.5 25t-7 36t1.5 42t2 28zM1622 -193l164 754h94
l-172 -754h-86zM1673 1671h213v53h-139v201h111v57h-111v181h135v57h-209v-549zM1706 1196q3 -67 42.5 -111.5t104.5 -44.5q66 0 102.5 51t24.5 117q-4 25 -13.5 45t-30 41.5t-28.5 29t-38 32.5q-6 5 -17.5 14t-18 14.5t-16.5 14.5t-15.5 15.5t-11.5 16.5t-8.5 18.5
t-2.5 19.5t4 22q3 25 22.5 38t46.5 7q53 -9 62 -102l57 24q0 81 -45 115q-58 35 -135 20q-62 -18 -79.5 -85t18.5 -119q11 -18 29 -36.5t42.5 -39.5t34.5 -31q8 -5 15.5 -10.5t14.5 -12.5t11 -12t11 -14t9 -12q17 -25 18 -55t-22 -52q-19 -18 -45 -16.5t-41 20.5
q-7 7 -12 16t-7.5 20.5t-4 19.5t-2.5 23t-2 20zM1763 -893h29l4 205l41 -205h29l49 205l4 -205h25l-5 279h-36l-50 -226l-49 226h-41v-279zM1772 -545h36v131h29l37 -131h45l-45 135q41 16 38.5 66t-38.5 70q-13 7 -28.5 9t-42 0.5t-31.5 -1.5v-279zM1800 627h37v135h14h14
t12.5 0.5t14 2.5t13 5t14.5 8q14 14 16.5 48.5t-4.5 58.5q-7 11 -18.5 17.5t-28.5 8.5t-28 2.5t-31.5 0t-24.5 -0.5v-286zM1808 -389v94q33 0 49.5 -8.5t16.5 -36.5q0 -30 -17.5 -39.5t-48.5 -9.5zM1837 786v103q23 0 33.5 -1.5t19 -12t8.5 -31.5q0 -41 -20 -53
q-10 -5 -41 -5zM1894 94l95 4q0 -73 20 -106q3 -13 13 -20t24 -1q9 2 14 10t5.5 15.5t0.5 23.5q0 23 -11.5 47.5t-19.5 35.5t-34.5 39t-28.5 30q-7 11 -26 30.5t-23 30.5q-37 47 -29 140q3 67 65 100.5t124 5.5q35 -15 54 -49t23.5 -66t4.5 -77l-99 -4v13v15.5t-0.5 15.5
t-1.5 16l-2.5 15t-4 14.5t-6.5 11t-9 9t-12 4.5q-19 2 -29.5 -13t-10.5 -33t3 -32q3 -9 7.5 -17.5t11 -16t10.5 -11.5l12.5 -12.5l11.5 -11.5l49 -53q85 -92 74 -201q-3 -41 -32.5 -76t-74.5 -47q-44 -6 -85 13.5t-62 60.5q-21 47 -21 147zM1944 1671h81v258h58l74 -258h69
l-69 275q43 16 58.5 68t-0.5 107t-54 79q-21 10 -52 15t-50 6t-62.5 0t-52.5 -1v-549zM1968 627h107v32h-74v254h-33v-286zM1989 -893h110v25h-69v110h57v29h-57v86h69v29h-110v-279zM2009 -295h49v-250h41v250h53v29h-143v-29zM2025 1982v181q56 0 78 -9q37 -13 37 -73
q6 -32 -3.5 -57t-33.5 -37q-36 -5 -78 -5zM2046 1049h213v45h-139v204h110v58h-110v176h139v61h-213v-544zM2103 627h107v32h-74v103h62v29h-62v98h74v24h-107v-286zM2128 -893h41v135h33l32 -135h37l-41 139q36 12 36 62t-32 69q-10 6 -24.5 8.5t-25 2.5t-29 -1t-27.5 -1
v-279zM2169 -729v86q32 0 46.5 -8.5t14.5 -36.5t-13.5 -34.5t-47.5 -6.5zM2169 -545h37v131h69v-131h45v279h-45v-123h-69v123h-37v-279zM2185 381v102h275v-102h-86v-500h-103v500h-86zM2226 627h37l8 78h62l12 -78h41l-57 286h-41zM2275 729l33 131l21 -131h-54z
M2275 1823q3 -67 43.5 -111.5t108.5 -44.5q66 0 102.5 49.5t24.5 118.5q-5 17 -12 32.5t-22 34t-21.5 25.5t-29.5 29.5t-26 25.5q-24 17 -36 27.5t-29.5 29t-23 39.5t-1.5 44q3 21 24 33t50 12q7 -2 12.5 -5t10 -6.5t9 -9.5t7 -9.5t6 -11.5t4.5 -12t3.5 -13t3.5 -12t3 -13
t2 -11l58 21q-9 88 -49 115q-24 18 -64.5 22t-67.5 -6q-43 -10 -65.5 -45.5t-20.5 -80t25 -83.5q15 -22 56.5 -58t45.5 -40q36 -27 62 -62q19 -26 20 -58t-20 -48q-19 -18 -45 -16.5t-45 20.5q-22 22 -29 98zM2308 -700q0 -12 -1.5 -38.5t-2 -44.5t2 -41.5t9.5 -37.5
t23 -24.5t39 -10.5q31 0 48 17.5t21 38t4 50.5h-41q0 -6 1.5 -18t0.5 -20t-6 -15q-3 -18 -23.5 -20.5t-29.5 12.5q-7 9 -10 23t-3.5 25t0.5 28.5t1 21.5t-1 22.5t-0.5 30t3.5 25.5t10 21q9 16 29.5 15t23.5 -19q5 -7 6 -16t-0.5 -20.5t-1.5 -13.5h41q0 19 -1.5 32t-7 28.5
t-19 24.5t-33.5 10q-42 6 -62 -19.5t-20 -66.5zM2361 -545h107v21h-66v110h58v25h-58v94h66v29h-107v-279zM2402 709q3 -35 24 -58.5t54 -23.5q37 0 55.5 28.5t6.5 65.5q-4 33 -62 70q-2 2 -13 15t-15 19t-8 17.5t-1 21.5q5 33 45 25q12 -15 21 -53l33 4q0 21 -10.5 41
t-30.5 28q-15 6 -37 3.5t-37 -11.5q-28 -30 -21 -62.5t37 -56.5q6 -7 25 -24.5t30 -33t11 -32.5q0 -39 -45 -33q-21 8 -21 62zM2464 1270q0 -78 4 -115q9 -55 48.5 -85t98.5 -30q57 0 94 28.5t46 82.5q5 18 6 38t-0.5 49.5t-1.5 43.5q0 15 4 70.5t1 95t-18 72.5
q-28 80 -143 73q-104 0 -131 -90q-7 -33 -9 -69t-0.5 -94.5t1.5 -69.5zM2492 -893h37v279h-37v-279zM2499 -119v602h176q40 0 73.5 -39.5t32.5 -115.5q0 -120 -69 -168l65 -279h-98l-53 262h-29v-262h-98zM2542 1217v98q0 17 -2 53t-2 65.5t4 53.5q9 25 21 35.5t36 13.5
q12 6 31 1t34 -17q6 -6 10 -13.5t6.5 -13t3.5 -16t1 -14.5v-17.5v-15.5v-197q0 -5 1 -17.5t1 -22.5t-2 -17q-9 -57 -41 -70q-27 -20 -70 0q-8 3 -13.5 8.5t-9 14t-5.5 14.5t-3 19t-1 17.5v20v17.5zM2558 -893h41l12 74h62l8 -74h37l-62 279h-41zM2574 627h115v32h-74v103h58
v29h-58v98h70v24h-111v-286zM2587 -545h28v131h58v25h-58v94h78v29h-106v-279zM2597 229h53q18 9 25 50.5t-5 80t-40 37.5h-33v-168zM2607 1888q0 -69 4 -102q18 -119 144 -119q120 0 143 111q8 37 8 127q0 12 2.5 71.5t-0.5 96.5t-14 69q-34 82 -148 82q-110 -7 -131 -94
q-7 -33 -9 -70.5t-0.5 -98.5t1.5 -73zM2615 -799l25 131l24 -131h-49zM2685 1839v98q0 14 -2.5 54.5t-1.5 70.5t8 52q12 43 53 49q44 7 66 -21q12 -9 17.5 -26.5t6 -28.5t0.5 -35v-250q-2 -14 -3.5 -22t-6 -19t-12 -18.5t-19.5 -13.5t-32.5 -6t-32.5 6q-7 3 -12.5 7t-9.5 8
t-7 10.5t-5 11t-3.5 12.5t-2 12t-1 13t-0.5 12v12.5v11.5zM2718 -479q6 -40 36 -59t70 -7q15 6 24 18.5t12 31.5t3.5 34t-1 38t-1.5 30v127h-29v-123q0 -2 0.5 -17.5t0 -24t-1.5 -25t-4 -26.5t-8 -20.5t-13 -16t-19 -5.5q-14 0 -22.5 10t-11.5 29t-4 33t0 37.5t1 25.5v123
h-32v-148q0 -6 -1 -20t-1 -25t2 -20zM2746 -893h111v25h-74v254h-37v-279zM2783 913l62 -286h37l57 286h-33l-45 -204l-37 204h-41zM2818 98v385h102v-372q0 -96 5 -119q7 -10 21 -17t28 -4q22 11 26 21q2 6 2 16q4 29 4 90v385h99v-385v-11q0 -35 -1 -54.5t-6 -49.5
t-19 -50.5t-36 -34.5q-57 -35 -139 -13q-75 28 -82 123q-4 33 -4 90zM2841 1049h57v368l164 -368h53v544h-70v-364l-155 364h-49v-544zM2906 -545h107v21h-66v258h-41v-279zM2951 -614l62 -279h28l66 279h-37l-41 -205l-45 205h-33zM2972 627h41v286h-41v-286zM2984 1671h61
v369l156 -369h49v549h-65v-365l-152 365h-49v-549zM3041 -545h111v21h-70v258h-41v-279zM3049 709q7 -82 74 -82q36 0 53.5 28t8.5 66q-1 9 -5 17.5t-12 17t-12.5 12.5t-16 13t-12.5 10q-4 5 -12 12.5t-13.5 13.5t-11.5 15t-5.5 15.5t5.5 16.5q3 17 16 23t21 2q7 -6 12 -14
t6.5 -12t4.5 -15l2 -12l33 4q-9 56 -37 69q-33 13 -78 -8q-19 -17 -21 -40.5t8.5 -43t28.5 -35.5q3 -3 15 -12.5t16.5 -14t13.5 -14t12.5 -16t6.5 -15.5t2 -18q0 -18 -10.5 -27t-26.5 -6q-14 5 -21.5 24.5t-7.5 37.5zM3135 -893h111v25h-70v110h58v29h-58v86h70v29h-111
v-279zM3150 0v365q0 52 36.5 86t86.5 41q35 7 69 -13q47 -22 62.5 -72t15.5 -120l-94 -4v8q0 21 -0.5 33t-4 30.5t-12.5 29t-24 13.5q-13 3 -25 -7t-12 -30v-356q0 -20 12 -30t25 -7q42 7 41 107v4v4l94 -4q0 -71 -15.5 -121t-62.5 -72q-32 -19 -69 -12q-50 7 -86.5 41
t-36.5 86zM3197 1049h213v45h-139v499h-74v-544zM3222 627h40v286h-40v-286zM3246 -545h33l16 70h58l12 -70h41l-62 279h-45zM3275 -893h41v135h32l37 -135h33l-33 139q33 13 31 62t-31 69q-12 6 -27 8.5t-26 2.5t-30 -1t-27 -1v-279zM3287 889h53v-262h33v262h45v24h-131
v-24zM3299 -446l25 127l24 -127h-49zM3308 1671h69l29 131h110l25 -131h74l-115 549h-78zM3316 -729v86q32 0 46.5 -8.5t14.5 -36.5t-13.5 -34.5t-47.5 -6.5zM3414 1860l49 254l45 -254h-94zM3430 -545h37v189l74 -189h29v279h-33v-185l-82 185h-25v-279zM3430 1593l78 -245
q27 -56 37 -107q2 -11 2 -25t-1 -31.5t-1 -25.5v-110h78v131q0 5 -1.5 20.5t-0.5 28.5t6 24l37 111q62 194 74 229h-74l-82 -262l-82 262h-70zM3447 -815q3 -36 23 -59t55 -23q36 0 52.5 27t4.5 59q0 18 -8 31.5t-24 29t-21 21.5q-4 4 -13.5 12.5t-13 12.5t-11 13.5t-6 15
t2.5 16.5q14 28 45 16q6 -3 9.5 -9.5t5 -12t3 -16.5t2.5 -15l29 12q0 55 -33 66q-15 9 -37 6t-41 -15q-28 -25 -21.5 -58.5t34.5 -64.5q69 -44 69 -81q0 -20 -12 -29t-33 0q-24 10 -24 53zM3465 -119v602h103v-254h16l86 254h98l-102 -303l102 -299h-98l-86 254h-16v-254
h-103zM3615 -545q3 0 24 -1t32 0t27.5 5t26.5 13q12 6 19 16t9 24.5t2.5 25t-0.5 28.5t-1 24q0 9 1.5 32t1.5 36.5t-4.5 29.5t-14.5 25q-13 10 -32 15.5t-29 6t-35.5 0t-26.5 -0.5v-279zM3623 -893h33v279h-33v-279zM3652 -524v229q23 0 33.5 -1.5t20 -11t11.5 -28.5v-143
q-4 -21 -14 -31.5t-20 -12t-31 -1.5zM3672 1671h217v53h-139v496h-78v-549zM3697 -750v-7q0 -24 0.5 -37.5t4.5 -36t12 -34.5t24.5 -22t40.5 -10q13 0 24 2.5t18.5 9t13 12t8.5 16.5t5.5 18t3 21.5t0.5 20.5v22.5v20.5t0.5 29t0 33t-4 27t-10 26.5t-19.5 15.5t-32 9
q-26 3 -44 -3.5t-27 -17t-13.5 -33t-5 -37.5t-0.5 -45zM3742 127v106h127v-106h-127zM3746 -729v41q0 26 12.5 40.5t40.5 0.5q7 -3 11 -13.5t5.5 -26t1.5 -28t-1 -29.5t-1 -22v-6v-17t-0.5 -18t-2 -19t-4 -16.5t-7 -14t-10 -8t-14.5 -2.5t-19 7q-15 5 -18 29t1.5 61t4.5 41z
M3779 1049h73v73h-73v-73zM3779 1593l24 -430h25l24 430h-73zM3897 -893h25v193l86 -193h29v279h-33v-189l-82 189h-25v-279zM3930 -119v602h172q43 0 79 -39.5t36 -115.5q0 -106 -53 -135q57 -40 57 -152q0 -79 -34 -119.5t-77 -40.5h-180zM4028 -29h45q26 0 37.5 29.5
t8.5 69.5q-8 73 -54 73h-37v-172zM4028 229h37q45 0 45 78q0 90 -49 90h-33v-168zM4239 -119l111 602h94l103 -602h-99l-20 144h-66l-20 -144h-103zM4379 111h32l-16 122zM4563 94l94 4q0 -71 21 -106q8 -32 36 -21q21 4 21 49q0 23 -11.5 47.5t-19.5 35.5t-34.5 39
t-28.5 30q-7 11 -26 30.5t-23 30.5q-37 47 -29 140q3 67 64.5 100.5t123.5 5.5q35 -15 54 -49t23.5 -66t4.5 -77l-98 -4v13v15.5t-0.5 15t-1.5 17t-2.5 15t-4.5 14l-7 10.5t-9 9.5t-12 4.5q-19 2 -29.5 -13t-10.5 -33t3 -32q3 -9 7.5 -17.5t11 -16t10.5 -11.5l12.5 -12.5
l11.5 -11.5l50 -53q84 -91 73 -201q-3 -41 -32 -76t-74 -47q-44 -6 -85.5 13.5t-62.5 60.5q-20 45 -20 147zM4880 -119v602h234v-102h-135v-131h110v-107h-110v-159h135v-103h-234z" />
    <glyph glyph-name="personal" unicode="6" horiz-adv-x="5398" 
d="M319 483h103l4 -602h-86l-8 250l-45 -250h-70l-49 246l-4 -246h-90l8 602h98l70 -377zM504 -119v602h78l102 -286v286h94v-602h-73l-107 295v-295h-94zM844 -119v111h102v-111h-102zM987 94l94 4q0 -71 21 -106q16 -32 37 -21q24 5 24 49q0 23 -10.5 46.5t-21 37.5
t-31.5 37t-27 31q-8 10 -30.5 30t-26.5 31q-39 57 -25 140q3 67 63.5 100.5t125.5 5.5q47 -22 62 -71.5t15 -120.5l-94 -4q-1 8 -1.5 25t-1.5 29.5t-4 26.5t-10.5 22.5t-19.5 10.5q-30 3 -39.5 -25.5t-1.5 -52.5q5 -15 13.5 -26t25 -25.5t19.5 -17.5l45 -53q86 -86 74 -201
q-3 -42 -31.5 -77t-75.5 -46q-45 -6 -85 13.5t-58 60.5q-25 56 -25 147zM1161 -700q0 -10 -1 -32.5t-1 -37.5t1.5 -36.5t6.5 -35.5t13.5 -27.5t23.5 -20.5t35 -7q31 0 47.5 18t19.5 37.5t3 50.5h-37q0 -5 0.5 -14t0.5 -14.5t-1 -12t-4 -12.5q-6 -18 -27 -20.5t-27 12.5
q-7 9 -10 23t-3.5 25t0.5 28.5t1 21.5q0 5 -1 22.5t-1 29.5t2 26t8 21q9 16 30.5 15t27.5 -19q4 -7 5 -15.5t0 -21t-1 -13.5h37q0 16 -0.5 25.5t-3.5 24t-9 22.5t-17.5 15t-27.5 8q-46 6 -68 -19.5t-22 -66.5zM1307 184q0 9 -1 52.5t0 70.5t5 53q16 96 86 123q84 22 135 -12
q23 -14 37.5 -35t20 -51t6.5 -49t1 -54v-12h-98q0 61 -4 90q0 22 -29 37q-18 4 -53 -20q-2 -20 -2 -44.5t1 -52t1 -38.5v-144q0 -5 -0.5 -19.5t-1 -25.5t1 -26t5 -25.5t10.5 -19t18 -11.5q22 -9 36 0.5t19 37.5t6 43t0 43v11h-61v91h156v-316h-78l-4 21q-27 -27 -72.5 -28.5
t-75.5 20.5q-52 26 -61 122q-3 20 -4 43t-1 40t0.5 44t0.5 41zM1341 -750q0 -3 -0.5 -25.5t0 -29.5t2.5 -26t7.5 -27t13.5 -19t22 -15.5t33 -4.5q23 0 38.5 9t23 20.5t11.5 33t4.5 34.5t0.5 38v8v19v21.5t-1 19.5t-3 21t-5.5 17.5t-9 16.5t-13 12t-18.5 9.5t-24 3.5
q-24 3 -40 -3.5t-24.5 -17t-12.5 -33t-4.5 -37.5t-0.5 -45zM1350 1671h69v254q4 0 29.5 -0.5t36 0t30 3t32.5 9t24 17.5q44 32 49 94.5t-25 110.5q-17 38 -49 49.5t-82 11.5h-114v-549zM1354 1253q0 -94 12 -135q21 -54 80 -73.5t108 4.5q24 8 41.5 22.5t27.5 36.5t16.5 42
t8.5 50.5t2.5 48.5t-0.5 50.5t-1 43.5v250h-78v-200v-176q0 -25 -4.5 -47.5t-16 -44t-31.5 -28t-51 0.5q-7 4 -13 9t-10.5 9.5t-8 12.5t-5.5 12.5t-3.5 15t-2.5 14t-1.5 15.5t-0.5 14.5v15v13.5v364h-69v-340zM1382 -729q0 4 -1 12.5t-1 16t2 12.5q0 25 14.5 40t39.5 1
q8 -3 13 -13.5t6.5 -26t1.5 -28t-0.5 -30t-0.5 -21.5v-6v-17t-0.5 -18t-2 -19t-4 -16.5t-7 -14t-10 -8t-14.5 -2.5t-19 7q-11 4 -16 22t-5 36t2 43t2 30zM1419 1982v181q7 0 20.5 0.5t21 0.5t19 -1t21.5 -4q16 -4 26 -13.5t13.5 -25.5t4.5 -26.5t1 -29.5q0 -67 -45 -77
q-18 -5 -82 -5zM1448 -545h41v131h49v25h-49v94h65v29h-106v-279zM1534 -893h33v205l45 -205h28l46 205v-205h28l-4 279h-37l-45 -226l-49 226h-45v-279zM1579 -397v-18.5v-21t0.5 -20t2 -21t4 -18.5t6.5 -17.5t10 -14t13.5 -12t18 -6.5t23.5 -3q28 0 45 12.5t23.5 37.5
t8 42t1.5 47q0 79 -13 107q-18 37 -61 41q-24 1 -40 -7t-24 -19t-12.5 -32.5t-5 -35.5t-0.5 -41zM1616 -389v45q0 27 17 43t40 2q9 -3 14.5 -13.5t7 -26t1.5 -28.5t-1 -29.5t-1 -21.5q0 -67 -7 -85q-12 -31 -47 -17q-14 6 -20.5 25t-7 36t1.5 42t2 28zM1622 -193l164 754h94
l-172 -754h-86zM1673 1671h213v53h-139v201h111v57h-111v181h135v57h-209v-549zM1706 1196q3 -67 42.5 -111.5t104.5 -44.5q66 0 102.5 51t24.5 117q-4 25 -13.5 45t-30 41.5t-28.5 29t-38 32.5q-6 5 -17.5 14t-18 14.5t-16.5 14.5t-15.5 15.5t-11.5 16.5t-8.5 18.5
t-2.5 19.5t4 22q3 25 22.5 38t46.5 7q53 -9 62 -102l57 24q0 81 -45 115q-58 35 -135 20q-62 -18 -79.5 -85t18.5 -119q11 -18 29 -36.5t42.5 -39.5t34.5 -31q8 -5 15.5 -10.5t14.5 -12.5t11 -12t11 -14t9 -12q17 -25 18 -55t-22 -52q-19 -18 -45 -16.5t-41 20.5
q-7 7 -12 16t-7.5 20.5t-4 19.5t-2.5 23t-2 20zM1763 -893h29l4 205l41 -205h29l49 205l4 -205h25l-5 279h-36l-50 -226l-49 226h-41v-279zM1772 -545h36v131h29l37 -131h45l-45 135q41 16 38.5 66t-38.5 70q-13 7 -28.5 9t-42 0.5t-31.5 -1.5v-279zM1800 627h37v135h14h14
t12.5 0.5t14 2.5t13 5t14.5 8q14 14 16.5 48.5t-4.5 58.5q-7 11 -18.5 17.5t-28.5 8.5t-28 2.5t-31.5 0t-24.5 -0.5v-286zM1808 -389v94q33 0 49.5 -8.5t16.5 -36.5q0 -30 -17.5 -39.5t-48.5 -9.5zM1837 786v103q23 0 33.5 -1.5t19 -12t8.5 -31.5q0 -41 -20 -53
q-10 -5 -41 -5zM1894 94l95 4q0 -73 20 -106q3 -13 13 -20t24 -1q9 2 14 10t5.5 15.5t0.5 23.5q0 23 -11.5 47.5t-19.5 35.5t-34.5 39t-28.5 30q-7 11 -26 30.5t-23 30.5q-37 47 -29 140q3 67 65 100.5t124 5.5q35 -15 54 -49t23.5 -66t4.5 -77l-99 -4v13v15.5t-0.5 15.5
t-1.5 16l-2.5 15t-4 14.5t-6.5 11t-9 9t-12 4.5q-19 2 -29.5 -13t-10.5 -33t3 -32q3 -9 7.5 -17.5t11 -16t10.5 -11.5l12.5 -12.5l11.5 -11.5l49 -53q85 -92 74 -201q-3 -41 -32.5 -76t-74.5 -47q-44 -6 -85 13.5t-62 60.5q-21 47 -21 147zM1944 1671h81v258h58l74 -258h69
l-69 275q43 16 58.5 68t-0.5 107t-54 79q-21 10 -52 15t-50 6t-62.5 0t-52.5 -1v-549zM1968 627h107v32h-74v254h-33v-286zM1989 -893h110v25h-69v110h57v29h-57v86h69v29h-110v-279zM2009 -295h49v-250h41v250h53v29h-143v-29zM2025 1982v181q56 0 78 -9q37 -13 37 -73
q6 -32 -3.5 -57t-33.5 -37q-36 -5 -78 -5zM2046 1049h213v45h-139v204h110v58h-110v176h139v61h-213v-544zM2103 627h107v32h-74v103h62v29h-62v98h74v24h-107v-286zM2128 -893h41v135h33l32 -135h37l-41 139q36 12 36 62t-32 69q-10 6 -24.5 8.5t-25 2.5t-29 -1t-27.5 -1
v-279zM2169 -729v86q32 0 46.5 -8.5t14.5 -36.5t-13.5 -34.5t-47.5 -6.5zM2169 -545h37v131h69v-131h45v279h-45v-123h-69v123h-37v-279zM2185 381v102h275v-102h-86v-500h-103v500h-86zM2226 627h37l8 78h62l12 -78h41l-57 286h-41zM2275 729l33 131l21 -131h-54z
M2275 1823q3 -67 43.5 -111.5t108.5 -44.5q66 0 102.5 49.5t24.5 118.5q-5 17 -12 32.5t-22 34t-21.5 25.5t-29.5 29.5t-26 25.5q-24 17 -36 27.5t-29.5 29t-23 39.5t-1.5 44q3 21 24 33t50 12q7 -2 12.5 -5t10 -6.5t9 -9.5t7 -9.5t6 -11.5t4.5 -12t3.5 -13t3.5 -12t3 -13
t2 -11l58 21q-9 88 -49 115q-24 18 -64.5 22t-67.5 -6q-43 -10 -65.5 -45.5t-20.5 -80t25 -83.5q15 -22 56.5 -58t45.5 -40q36 -27 62 -62q19 -26 20 -58t-20 -48q-19 -18 -45 -16.5t-45 20.5q-22 22 -29 98zM2308 -700q0 -12 -1.5 -38.5t-2 -44.5t2 -41.5t9.5 -37.5
t23 -24.5t39 -10.5q31 0 48 17.5t21 38t4 50.5h-41q0 -6 1.5 -18t0.5 -20t-6 -15q-3 -18 -23.5 -20.5t-29.5 12.5q-7 9 -10 23t-3.5 25t0.5 28.5t1 21.5t-1 22.5t-0.5 30t3.5 25.5t10 21q9 16 29.5 15t23.5 -19q5 -7 6 -16t-0.5 -20.5t-1.5 -13.5h41q0 19 -1.5 32t-7 28.5
t-19 24.5t-33.5 10q-42 6 -62 -19.5t-20 -66.5zM2361 -545h107v21h-66v110h58v25h-58v94h66v29h-107v-279zM2402 709q3 -35 24 -58.5t54 -23.5q37 0 55.5 28.5t6.5 65.5q-4 33 -62 70q-2 2 -13 15t-15 19t-8 17.5t-1 21.5q5 33 45 25q12 -15 21 -53l33 4q0 21 -10.5 41
t-30.5 28q-15 6 -37 3.5t-37 -11.5q-28 -30 -21 -62.5t37 -56.5q6 -7 25 -24.5t30 -33t11 -32.5q0 -39 -45 -33q-21 8 -21 62zM2464 1270q0 -78 4 -115q9 -55 48.5 -85t98.5 -30q57 0 94 28.5t46 82.5q5 18 6 38t-0.5 49.5t-1.5 43.5q0 15 4 70.5t1 95t-18 72.5
q-28 80 -143 73q-104 0 -131 -90q-7 -33 -9 -69t-0.5 -94.5t1.5 -69.5zM2492 -893h37v279h-37v-279zM2499 -119v602h176q40 0 73.5 -39.5t32.5 -115.5q0 -120 -69 -168l65 -279h-98l-53 262h-29v-262h-98zM2542 1217v98q0 17 -2 53t-2 65.5t4 53.5q9 25 21 35.5t36 13.5
q12 6 31 1t34 -17q6 -6 10 -13.5t6.5 -13t3.5 -16t1 -14.5v-17.5v-15.5v-197q0 -5 1 -17.5t1 -22.5t-2 -17q-9 -57 -41 -70q-27 -20 -70 0q-8 3 -13.5 8.5t-9 14t-5.5 14.5t-3 19t-1 17.5v20v17.5zM2558 -893h41l12 74h62l8 -74h37l-62 279h-41zM2574 627h115v32h-74v103h58
v29h-58v98h70v24h-111v-286zM2587 -545h28v131h58v25h-58v94h78v29h-106v-279zM2597 229h53q18 9 25 50.5t-5 80t-40 37.5h-33v-168zM2607 1888q0 -69 4 -102q18 -119 144 -119q120 0 143 111q8 37 8 127q0 12 2.5 71.5t-0.5 96.5t-14 69q-34 82 -148 82q-110 -7 -131 -94
q-7 -33 -9 -70.5t-0.5 -98.5t1.5 -73zM2615 -799l25 131l24 -131h-49zM2685 1839v98q0 14 -2.5 54.5t-1.5 70.5t8 52q12 43 53 49q44 7 66 -21q12 -9 17.5 -26.5t6 -28.5t0.5 -35v-250q-2 -14 -3.5 -22t-6 -19t-12 -18.5t-19.5 -13.5t-32.5 -6t-32.5 6q-7 3 -12.5 7t-9.5 8
t-7 10.5t-5 11t-3.5 12.5t-2 12t-1 13t-0.5 12v12.5v11.5zM2718 -479q6 -40 36 -59t70 -7q15 6 24 18.5t12 31.5t3.5 34t-1 38t-1.5 30v127h-29v-123q0 -2 0.5 -17.5t0 -24t-1.5 -25t-4 -26.5t-8 -20.5t-13 -16t-19 -5.5q-14 0 -22.5 10t-11.5 29t-4 33t0 37.5t1 25.5v123
h-32v-148q0 -6 -1 -20t-1 -25t2 -20zM2746 -893h111v25h-74v254h-37v-279zM2783 913l62 -286h37l57 286h-33l-45 -204l-37 204h-41zM2818 98v385h102v-372q0 -96 5 -119q7 -10 21 -17t28 -4q22 11 26 21q2 6 2 16q4 29 4 90v385h99v-385v-11q0 -35 -1 -54.5t-6 -49.5
t-19 -50.5t-36 -34.5q-57 -35 -139 -13q-75 28 -82 123q-4 33 -4 90zM2841 1049h57v368l164 -368h53v544h-70v-364l-155 364h-49v-544zM2906 -545h107v21h-66v258h-41v-279zM2951 -614l62 -279h28l66 279h-37l-41 -205l-45 205h-33zM2972 627h41v286h-41v-286zM2984 1671h61
v369l156 -369h49v549h-65v-365l-152 365h-49v-549zM3041 -545h111v21h-70v258h-41v-279zM3049 709q7 -82 74 -82q36 0 53.5 28t8.5 66q-1 9 -5 17.5t-12 17t-12.5 12.5t-16 13t-12.5 10q-4 5 -12 12.5t-13.5 13.5t-11.5 15t-5.5 15.5t5.5 16.5q3 17 16 23t21 2q7 -6 12 -14
t6.5 -12t4.5 -15l2 -12l33 4q-9 56 -37 69q-33 13 -78 -8q-19 -17 -21 -40.5t8.5 -43t28.5 -35.5q3 -3 15 -12.5t16.5 -14t13.5 -14t12.5 -16t6.5 -15.5t2 -18q0 -18 -10.5 -27t-26.5 -6q-14 5 -21.5 24.5t-7.5 37.5zM3135 -893h111v25h-70v110h58v29h-58v86h70v29h-111
v-279zM3150 0v365q0 52 36.5 86t86.5 41q35 7 69 -13q47 -22 62.5 -72t15.5 -120l-94 -4v8q0 21 -0.5 33t-4 30.5t-12.5 29t-24 13.5q-13 3 -25 -7t-12 -30v-356q0 -20 12 -30t25 -7q42 7 41 107v4v4l94 -4q0 -71 -15.5 -121t-62.5 -72q-32 -19 -69 -12q-50 7 -86.5 41
t-36.5 86zM3197 1049h213v45h-139v499h-74v-544zM3222 627h40v286h-40v-286zM3246 -545h33l16 70h58l12 -70h41l-62 279h-45zM3275 -893h41v135h32l37 -135h33l-33 139q33 13 31 62t-31 69q-12 6 -27 8.5t-26 2.5t-30 -1t-27 -1v-279zM3287 889h53v-262h33v262h45v24h-131
v-24zM3299 -446l25 127l24 -127h-49zM3308 1671h69l29 131h110l25 -131h74l-115 549h-78zM3316 -729v86q32 0 46.5 -8.5t14.5 -36.5t-13.5 -34.5t-47.5 -6.5zM3414 1860l49 254l45 -254h-94zM3430 -545h37v189l74 -189h29v279h-33v-185l-82 185h-25v-279zM3430 1593l78 -245
q27 -56 37 -107q2 -11 2 -25t-1 -31.5t-1 -25.5v-110h78v131q0 5 -1.5 20.5t-0.5 28.5t6 24l37 111q62 194 74 229h-74l-82 -262l-82 262h-70zM3447 -815q3 -36 23 -59t55 -23q36 0 52.5 27t4.5 59q0 18 -8 31.5t-24 29t-21 21.5q-4 4 -13.5 12.5t-13 12.5t-11 13.5t-6 15
t2.5 16.5q14 28 45 16q6 -3 9.5 -9.5t5 -12t3 -16.5t2.5 -15l29 12q0 55 -33 66q-15 9 -37 6t-41 -15q-28 -25 -21.5 -58.5t34.5 -64.5q69 -44 69 -81q0 -20 -12 -29t-33 0q-24 10 -24 53zM3465 -119v602h103v-254h16l86 254h98l-102 -303l102 -299h-98l-86 254h-16v-254
h-103zM3615 -545q3 0 24 -1t32 0t27.5 5t26.5 13q12 6 19 16t9 24.5t2.5 25t-0.5 28.5t-1 24q0 9 1.5 32t1.5 36.5t-4.5 29.5t-14.5 25q-13 10 -32 15.5t-29 6t-35.5 0t-26.5 -0.5v-279zM3623 -893h33v279h-33v-279zM3652 -524v229q23 0 33.5 -1.5t20 -11t11.5 -28.5v-143
q-4 -21 -14 -31.5t-20 -12t-31 -1.5zM3672 1671h217v53h-139v496h-78v-549zM3697 -750v-7q0 -24 0.5 -37.5t4.5 -36t12 -34.5t24.5 -22t40.5 -10q13 0 24 2.5t18.5 9t13 12t8.5 16.5t5.5 18t3 21.5t0.5 20.5v22.5v20.5t0.5 29t0 33t-4 27t-10 26.5t-19.5 15.5t-32 9
q-26 3 -44 -3.5t-27 -17t-13.5 -33t-5 -37.5t-0.5 -45zM3742 127v106h127v-106h-127zM3746 -729v41q0 26 12.5 40.5t40.5 0.5q7 -3 11 -13.5t5.5 -26t1.5 -28t-1 -29.5t-1 -22v-6v-17t-0.5 -18t-2 -19t-4 -16.5t-7 -14t-10 -8t-14.5 -2.5t-19 7q-15 5 -18 29t1.5 61t4.5 41z
M3779 1049h73v73h-73v-73zM3779 1593l24 -430h25l24 430h-73zM3897 -893h25v193l86 -193h29v279h-33v-189l-82 189h-25v-279zM3930 -119v602h172q43 0 79 -39.5t36 -115.5q0 -106 -53 -135q57 -40 57 -152q0 -79 -34 -119.5t-77 -40.5h-180zM4028 -29h45q26 0 37.5 29.5
t8.5 69.5q-8 73 -54 73h-37v-172zM4028 229h37q45 0 45 78q0 90 -49 90h-33v-168zM4239 -119l111 602h94l103 -602h-99l-20 144h-66l-20 -144h-103zM4379 111h32l-16 122zM4563 94l94 4q0 -71 21 -106q8 -32 36 -21q21 4 21 49q0 23 -11.5 47.5t-19.5 35.5t-34.5 39
t-28.5 30q-7 11 -26 30.5t-23 30.5q-37 47 -29 140q3 67 64.5 100.5t123.5 5.5q35 -15 54 -49t23.5 -66t4.5 -77l-98 -4v13v15.5t-0.5 15t-1.5 17t-2.5 15t-4.5 14l-7 10.5t-9 9.5t-12 4.5q-19 2 -29.5 -13t-10.5 -33t3 -32q3 -9 7.5 -17.5t11 -16t10.5 -11.5l12.5 -12.5
l11.5 -11.5l50 -53q84 -91 73 -201q-3 -41 -32 -76t-74 -47q-44 -6 -85.5 13.5t-62.5 60.5q-20 45 -20 147zM4880 -119v602h234v-102h-135v-131h110v-107h-110v-159h135v-103h-234z" />
    <glyph glyph-name="personal" unicode="5" horiz-adv-x="5398" 
d="M319 483h103l4 -602h-86l-8 250l-45 -250h-70l-49 246l-4 -246h-90l8 602h98l70 -377zM504 -119v602h78l102 -286v286h94v-602h-73l-107 295v-295h-94zM844 -119v111h102v-111h-102zM987 94l94 4q0 -71 21 -106q16 -32 37 -21q24 5 24 49q0 23 -10.5 46.5t-21 37.5
t-31.5 37t-27 31q-8 10 -30.5 30t-26.5 31q-39 57 -25 140q3 67 63.5 100.5t125.5 5.5q47 -22 62 -71.5t15 -120.5l-94 -4q-1 8 -1.5 25t-1.5 29.5t-4 26.5t-10.5 22.5t-19.5 10.5q-30 3 -39.5 -25.5t-1.5 -52.5q5 -15 13.5 -26t25 -25.5t19.5 -17.5l45 -53q86 -86 74 -201
q-3 -42 -31.5 -77t-75.5 -46q-45 -6 -85 13.5t-58 60.5q-25 56 -25 147zM1161 -700q0 -10 -1 -32.5t-1 -37.5t1.5 -36.5t6.5 -35.5t13.5 -27.5t23.5 -20.5t35 -7q31 0 47.5 18t19.5 37.5t3 50.5h-37q0 -5 0.5 -14t0.5 -14.5t-1 -12t-4 -12.5q-6 -18 -27 -20.5t-27 12.5
q-7 9 -10 23t-3.5 25t0.5 28.5t1 21.5q0 5 -1 22.5t-1 29.5t2 26t8 21q9 16 30.5 15t27.5 -19q4 -7 5 -15.5t0 -21t-1 -13.5h37q0 16 -0.5 25.5t-3.5 24t-9 22.5t-17.5 15t-27.5 8q-46 6 -68 -19.5t-22 -66.5zM1307 184q0 9 -1 52.5t0 70.5t5 53q16 96 86 123q84 22 135 -12
q23 -14 37.5 -35t20 -51t6.5 -49t1 -54v-12h-98q0 61 -4 90q0 22 -29 37q-18 4 -53 -20q-2 -20 -2 -44.5t1 -52t1 -38.5v-144q0 -5 -0.5 -19.5t-1 -25.5t1 -26t5 -25.5t10.5 -19t18 -11.5q22 -9 36 0.5t19 37.5t6 43t0 43v11h-61v91h156v-316h-78l-4 21q-27 -27 -72.5 -28.5
t-75.5 20.5q-52 26 -61 122q-3 20 -4 43t-1 40t0.5 44t0.5 41zM1341 -750q0 -3 -0.5 -25.5t0 -29.5t2.5 -26t7.5 -27t13.5 -19t22 -15.5t33 -4.5q23 0 38.5 9t23 20.5t11.5 33t4.5 34.5t0.5 38v8v19v21.5t-1 19.5t-3 21t-5.5 17.5t-9 16.5t-13 12t-18.5 9.5t-24 3.5
q-24 3 -40 -3.5t-24.5 -17t-12.5 -33t-4.5 -37.5t-0.5 -45zM1350 1671h69v254q4 0 29.5 -0.5t36 0t30 3t32.5 9t24 17.5q44 32 49 94.5t-25 110.5q-17 38 -49 49.5t-82 11.5h-114v-549zM1354 1253q0 -94 12 -135q21 -54 80 -73.5t108 4.5q24 8 41.5 22.5t27.5 36.5t16.5 42
t8.5 50.5t2.5 48.5t-0.5 50.5t-1 43.5v250h-78v-200v-176q0 -25 -4.5 -47.5t-16 -44t-31.5 -28t-51 0.5q-7 4 -13 9t-10.5 9.5t-8 12.5t-5.5 12.5t-3.5 15t-2.5 14t-1.5 15.5t-0.5 14.5v15v13.5v364h-69v-340zM1382 -729q0 4 -1 12.5t-1 16t2 12.5q0 25 14.5 40t39.5 1
q8 -3 13 -13.5t6.5 -26t1.5 -28t-0.5 -30t-0.5 -21.5v-6v-17t-0.5 -18t-2 -19t-4 -16.5t-7 -14t-10 -8t-14.5 -2.5t-19 7q-11 4 -16 22t-5 36t2 43t2 30zM1419 1982v181q7 0 20.5 0.5t21 0.5t19 -1t21.5 -4q16 -4 26 -13.5t13.5 -25.5t4.5 -26.5t1 -29.5q0 -67 -45 -77
q-18 -5 -82 -5zM1448 -545h41v131h49v25h-49v94h65v29h-106v-279zM1534 -893h33v205l45 -205h28l46 205v-205h28l-4 279h-37l-45 -226l-49 226h-45v-279zM1579 -397v-18.5v-21t0.5 -20t2 -21t4 -18.5t6.5 -17.5t10 -14t13.5 -12t18 -6.5t23.5 -3q28 0 45 12.5t23.5 37.5
t8 42t1.5 47q0 79 -13 107q-18 37 -61 41q-24 1 -40 -7t-24 -19t-12.5 -32.5t-5 -35.5t-0.5 -41zM1616 -389v45q0 27 17 43t40 2q9 -3 14.5 -13.5t7 -26t1.5 -28.5t-1 -29.5t-1 -21.5q0 -67 -7 -85q-12 -31 -47 -17q-14 6 -20.5 25t-7 36t1.5 42t2 28zM1622 -193l164 754h94
l-172 -754h-86zM1673 1671h213v53h-139v201h111v57h-111v181h135v57h-209v-549zM1706 1196q3 -67 42.5 -111.5t104.5 -44.5q66 0 102.5 51t24.5 117q-4 25 -13.5 45t-30 41.5t-28.5 29t-38 32.5q-6 5 -17.5 14t-18 14.5t-16.5 14.5t-15.5 15.5t-11.5 16.5t-8.5 18.5
t-2.5 19.5t4 22q3 25 22.5 38t46.5 7q53 -9 62 -102l57 24q0 81 -45 115q-58 35 -135 20q-62 -18 -79.5 -85t18.5 -119q11 -18 29 -36.5t42.5 -39.5t34.5 -31q8 -5 15.5 -10.5t14.5 -12.5t11 -12t11 -14t9 -12q17 -25 18 -55t-22 -52q-19 -18 -45 -16.5t-41 20.5
q-7 7 -12 16t-7.5 20.5t-4 19.5t-2.5 23t-2 20zM1763 -893h29l4 205l41 -205h29l49 205l4 -205h25l-5 279h-36l-50 -226l-49 226h-41v-279zM1772 -545h36v131h29l37 -131h45l-45 135q41 16 38.5 66t-38.5 70q-13 7 -28.5 9t-42 0.5t-31.5 -1.5v-279zM1800 627h37v135h14h14
t12.5 0.5t14 2.5t13 5t14.5 8q14 14 16.5 48.5t-4.5 58.5q-7 11 -18.5 17.5t-28.5 8.5t-28 2.5t-31.5 0t-24.5 -0.5v-286zM1808 -389v94q33 0 49.5 -8.5t16.5 -36.5q0 -30 -17.5 -39.5t-48.5 -9.5zM1837 786v103q23 0 33.5 -1.5t19 -12t8.5 -31.5q0 -41 -20 -53
q-10 -5 -41 -5zM1894 94l95 4q0 -73 20 -106q3 -13 13 -20t24 -1q9 2 14 10t5.5 15.5t0.5 23.5q0 23 -11.5 47.5t-19.5 35.5t-34.5 39t-28.5 30q-7 11 -26 30.5t-23 30.5q-37 47 -29 140q3 67 65 100.5t124 5.5q35 -15 54 -49t23.5 -66t4.5 -77l-99 -4v13v15.5t-0.5 15.5
t-1.5 16l-2.5 15t-4 14.5t-6.5 11t-9 9t-12 4.5q-19 2 -29.5 -13t-10.5 -33t3 -32q3 -9 7.5 -17.5t11 -16t10.5 -11.5l12.5 -12.5l11.5 -11.5l49 -53q85 -92 74 -201q-3 -41 -32.5 -76t-74.5 -47q-44 -6 -85 13.5t-62 60.5q-21 47 -21 147zM1944 1671h81v258h58l74 -258h69
l-69 275q43 16 58.5 68t-0.5 107t-54 79q-21 10 -52 15t-50 6t-62.5 0t-52.5 -1v-549zM1968 627h107v32h-74v254h-33v-286zM1989 -893h110v25h-69v110h57v29h-57v86h69v29h-110v-279zM2009 -295h49v-250h41v250h53v29h-143v-29zM2025 1982v181q56 0 78 -9q37 -13 37 -73
q6 -32 -3.5 -57t-33.5 -37q-36 -5 -78 -5zM2046 1049h213v45h-139v204h110v58h-110v176h139v61h-213v-544zM2103 627h107v32h-74v103h62v29h-62v98h74v24h-107v-286zM2128 -893h41v135h33l32 -135h37l-41 139q36 12 36 62t-32 69q-10 6 -24.5 8.5t-25 2.5t-29 -1t-27.5 -1
v-279zM2169 -729v86q32 0 46.5 -8.5t14.5 -36.5t-13.5 -34.5t-47.5 -6.5zM2169 -545h37v131h69v-131h45v279h-45v-123h-69v123h-37v-279zM2185 381v102h275v-102h-86v-500h-103v500h-86zM2226 627h37l8 78h62l12 -78h41l-57 286h-41zM2275 729l33 131l21 -131h-54z
M2275 1823q3 -67 43.5 -111.5t108.5 -44.5q66 0 102.5 49.5t24.5 118.5q-5 17 -12 32.5t-22 34t-21.5 25.5t-29.5 29.5t-26 25.5q-24 17 -36 27.5t-29.5 29t-23 39.5t-1.5 44q3 21 24 33t50 12q7 -2 12.5 -5t10 -6.5t9 -9.5t7 -9.5t6 -11.5t4.5 -12t3.5 -13t3.5 -12t3 -13
t2 -11l58 21q-9 88 -49 115q-24 18 -64.5 22t-67.5 -6q-43 -10 -65.5 -45.5t-20.5 -80t25 -83.5q15 -22 56.5 -58t45.5 -40q36 -27 62 -62q19 -26 20 -58t-20 -48q-19 -18 -45 -16.5t-45 20.5q-22 22 -29 98zM2308 -700q0 -12 -1.5 -38.5t-2 -44.5t2 -41.5t9.5 -37.5
t23 -24.5t39 -10.5q31 0 48 17.5t21 38t4 50.5h-41q0 -6 1.5 -18t0.5 -20t-6 -15q-3 -18 -23.5 -20.5t-29.5 12.5q-7 9 -10 23t-3.5 25t0.5 28.5t1 21.5t-1 22.5t-0.5 30t3.5 25.5t10 21q9 16 29.5 15t23.5 -19q5 -7 6 -16t-0.5 -20.5t-1.5 -13.5h41q0 19 -1.5 32t-7 28.5
t-19 24.5t-33.5 10q-42 6 -62 -19.5t-20 -66.5zM2361 -545h107v21h-66v110h58v25h-58v94h66v29h-107v-279zM2402 709q3 -35 24 -58.5t54 -23.5q37 0 55.5 28.5t6.5 65.5q-4 33 -62 70q-2 2 -13 15t-15 19t-8 17.5t-1 21.5q5 33 45 25q12 -15 21 -53l33 4q0 21 -10.5 41
t-30.5 28q-15 6 -37 3.5t-37 -11.5q-28 -30 -21 -62.5t37 -56.5q6 -7 25 -24.5t30 -33t11 -32.5q0 -39 -45 -33q-21 8 -21 62zM2464 1270q0 -78 4 -115q9 -55 48.5 -85t98.5 -30q57 0 94 28.5t46 82.5q5 18 6 38t-0.5 49.5t-1.5 43.5q0 15 4 70.5t1 95t-18 72.5
q-28 80 -143 73q-104 0 -131 -90q-7 -33 -9 -69t-0.5 -94.5t1.5 -69.5zM2492 -893h37v279h-37v-279zM2499 -119v602h176q40 0 73.5 -39.5t32.5 -115.5q0 -120 -69 -168l65 -279h-98l-53 262h-29v-262h-98zM2542 1217v98q0 17 -2 53t-2 65.5t4 53.5q9 25 21 35.5t36 13.5
q12 6 31 1t34 -17q6 -6 10 -13.5t6.5 -13t3.5 -16t1 -14.5v-17.5v-15.5v-197q0 -5 1 -17.5t1 -22.5t-2 -17q-9 -57 -41 -70q-27 -20 -70 0q-8 3 -13.5 8.5t-9 14t-5.5 14.5t-3 19t-1 17.5v20v17.5zM2558 -893h41l12 74h62l8 -74h37l-62 279h-41zM2574 627h115v32h-74v103h58
v29h-58v98h70v24h-111v-286zM2587 -545h28v131h58v25h-58v94h78v29h-106v-279zM2597 229h53q18 9 25 50.5t-5 80t-40 37.5h-33v-168zM2607 1888q0 -69 4 -102q18 -119 144 -119q120 0 143 111q8 37 8 127q0 12 2.5 71.5t-0.5 96.5t-14 69q-34 82 -148 82q-110 -7 -131 -94
q-7 -33 -9 -70.5t-0.5 -98.5t1.5 -73zM2615 -799l25 131l24 -131h-49zM2685 1839v98q0 14 -2.5 54.5t-1.5 70.5t8 52q12 43 53 49q44 7 66 -21q12 -9 17.5 -26.5t6 -28.5t0.5 -35v-250q-2 -14 -3.5 -22t-6 -19t-12 -18.5t-19.5 -13.5t-32.5 -6t-32.5 6q-7 3 -12.5 7t-9.5 8
t-7 10.5t-5 11t-3.5 12.5t-2 12t-1 13t-0.5 12v12.5v11.5zM2718 -479q6 -40 36 -59t70 -7q15 6 24 18.5t12 31.5t3.5 34t-1 38t-1.5 30v127h-29v-123q0 -2 0.5 -17.5t0 -24t-1.5 -25t-4 -26.5t-8 -20.5t-13 -16t-19 -5.5q-14 0 -22.5 10t-11.5 29t-4 33t0 37.5t1 25.5v123
h-32v-148q0 -6 -1 -20t-1 -25t2 -20zM2746 -893h111v25h-74v254h-37v-279zM2783 913l62 -286h37l57 286h-33l-45 -204l-37 204h-41zM2818 98v385h102v-372q0 -96 5 -119q7 -10 21 -17t28 -4q22 11 26 21q2 6 2 16q4 29 4 90v385h99v-385v-11q0 -35 -1 -54.5t-6 -49.5
t-19 -50.5t-36 -34.5q-57 -35 -139 -13q-75 28 -82 123q-4 33 -4 90zM2841 1049h57v368l164 -368h53v544h-70v-364l-155 364h-49v-544zM2906 -545h107v21h-66v258h-41v-279zM2951 -614l62 -279h28l66 279h-37l-41 -205l-45 205h-33zM2972 627h41v286h-41v-286zM2984 1671h61
v369l156 -369h49v549h-65v-365l-152 365h-49v-549zM3041 -545h111v21h-70v258h-41v-279zM3049 709q7 -82 74 -82q36 0 53.5 28t8.5 66q-1 9 -5 17.5t-12 17t-12.5 12.5t-16 13t-12.5 10q-4 5 -12 12.5t-13.5 13.5t-11.5 15t-5.5 15.5t5.5 16.5q3 17 16 23t21 2q7 -6 12 -14
t6.5 -12t4.5 -15l2 -12l33 4q-9 56 -37 69q-33 13 -78 -8q-19 -17 -21 -40.5t8.5 -43t28.5 -35.5q3 -3 15 -12.5t16.5 -14t13.5 -14t12.5 -16t6.5 -15.5t2 -18q0 -18 -10.5 -27t-26.5 -6q-14 5 -21.5 24.5t-7.5 37.5zM3135 -893h111v25h-70v110h58v29h-58v86h70v29h-111
v-279zM3150 0v365q0 52 36.5 86t86.5 41q35 7 69 -13q47 -22 62.5 -72t15.5 -120l-94 -4v8q0 21 -0.5 33t-4 30.5t-12.5 29t-24 13.5q-13 3 -25 -7t-12 -30v-356q0 -20 12 -30t25 -7q42 7 41 107v4v4l94 -4q0 -71 -15.5 -121t-62.5 -72q-32 -19 -69 -12q-50 7 -86.5 41
t-36.5 86zM3197 1049h213v45h-139v499h-74v-544zM3222 627h40v286h-40v-286zM3246 -545h33l16 70h58l12 -70h41l-62 279h-45zM3275 -893h41v135h32l37 -135h33l-33 139q33 13 31 62t-31 69q-12 6 -27 8.5t-26 2.5t-30 -1t-27 -1v-279zM3287 889h53v-262h33v262h45v24h-131
v-24zM3299 -446l25 127l24 -127h-49zM3308 1671h69l29 131h110l25 -131h74l-115 549h-78zM3316 -729v86q32 0 46.5 -8.5t14.5 -36.5t-13.5 -34.5t-47.5 -6.5zM3414 1860l49 254l45 -254h-94zM3430 -545h37v189l74 -189h29v279h-33v-185l-82 185h-25v-279zM3430 1593l78 -245
q27 -56 37 -107q2 -11 2 -25t-1 -31.5t-1 -25.5v-110h78v131q0 5 -1.5 20.5t-0.5 28.5t6 24l37 111q62 194 74 229h-74l-82 -262l-82 262h-70zM3447 -815q3 -36 23 -59t55 -23q36 0 52.5 27t4.5 59q0 18 -8 31.5t-24 29t-21 21.5q-4 4 -13.5 12.5t-13 12.5t-11 13.5t-6 15
t2.5 16.5q14 28 45 16q6 -3 9.5 -9.5t5 -12t3 -16.5t2.5 -15l29 12q0 55 -33 66q-15 9 -37 6t-41 -15q-28 -25 -21.5 -58.5t34.5 -64.5q69 -44 69 -81q0 -20 -12 -29t-33 0q-24 10 -24 53zM3465 -119v602h103v-254h16l86 254h98l-102 -303l102 -299h-98l-86 254h-16v-254
h-103zM3615 -545q3 0 24 -1t32 0t27.5 5t26.5 13q12 6 19 16t9 24.5t2.5 25t-0.5 28.5t-1 24q0 9 1.5 32t1.5 36.5t-4.5 29.5t-14.5 25q-13 10 -32 15.5t-29 6t-35.5 0t-26.5 -0.5v-279zM3623 -893h33v279h-33v-279zM3652 -524v229q23 0 33.5 -1.5t20 -11t11.5 -28.5v-143
q-4 -21 -14 -31.5t-20 -12t-31 -1.5zM3672 1671h217v53h-139v496h-78v-549zM3697 -750v-7q0 -24 0.5 -37.5t4.5 -36t12 -34.5t24.5 -22t40.5 -10q13 0 24 2.5t18.5 9t13 12t8.5 16.5t5.5 18t3 21.5t0.5 20.5v22.5v20.5t0.5 29t0 33t-4 27t-10 26.5t-19.5 15.5t-32 9
q-26 3 -44 -3.5t-27 -17t-13.5 -33t-5 -37.5t-0.5 -45zM3742 127v106h127v-106h-127zM3746 -729v41q0 26 12.5 40.5t40.5 0.5q7 -3 11 -13.5t5.5 -26t1.5 -28t-1 -29.5t-1 -22v-6v-17t-0.5 -18t-2 -19t-4 -16.5t-7 -14t-10 -8t-14.5 -2.5t-19 7q-15 5 -18 29t1.5 61t4.5 41z
M3779 1049h73v73h-73v-73zM3779 1593l24 -430h25l24 430h-73zM3897 -893h25v193l86 -193h29v279h-33v-189l-82 189h-25v-279zM3930 -119v602h172q43 0 79 -39.5t36 -115.5q0 -106 -53 -135q57 -40 57 -152q0 -79 -34 -119.5t-77 -40.5h-180zM4028 -29h45q26 0 37.5 29.5
t8.5 69.5q-8 73 -54 73h-37v-172zM4028 229h37q45 0 45 78q0 90 -49 90h-33v-168zM4239 -119l111 602h94l103 -602h-99l-20 144h-66l-20 -144h-103zM4379 111h32l-16 122zM4563 94l94 4q0 -71 21 -106q8 -32 36 -21q21 4 21 49q0 23 -11.5 47.5t-19.5 35.5t-34.5 39
t-28.5 30q-7 11 -26 30.5t-23 30.5q-37 47 -29 140q3 67 64.5 100.5t123.5 5.5q35 -15 54 -49t23.5 -66t4.5 -77l-98 -4v13v15.5t-0.5 15t-1.5 17t-2.5 15t-4.5 14l-7 10.5t-9 9.5t-12 4.5q-19 2 -29.5 -13t-10.5 -33t3 -32q3 -9 7.5 -17.5t11 -16t10.5 -11.5l12.5 -12.5
l11.5 -11.5l50 -53q84 -91 73 -201q-3 -41 -32 -76t-74 -47q-44 -6 -85.5 13.5t-62.5 60.5q-20 45 -20 147zM4880 -119v602h234v-102h-135v-131h110v-107h-110v-159h135v-103h-234z" />
    <glyph glyph-name="personal" unicode="4" horiz-adv-x="5398" 
d="M319 483h103l4 -602h-86l-8 250l-45 -250h-70l-49 246l-4 -246h-90l8 602h98l70 -377zM504 -119v602h78l102 -286v286h94v-602h-73l-107 295v-295h-94zM844 -119v111h102v-111h-102zM987 94l94 4q0 -71 21 -106q16 -32 37 -21q24 5 24 49q0 23 -10.5 46.5t-21 37.5
t-31.5 37t-27 31q-8 10 -30.5 30t-26.5 31q-39 57 -25 140q3 67 63.5 100.5t125.5 5.5q47 -22 62 -71.5t15 -120.5l-94 -4q-1 8 -1.5 25t-1.5 29.5t-4 26.5t-10.5 22.5t-19.5 10.5q-30 3 -39.5 -25.5t-1.5 -52.5q5 -15 13.5 -26t25 -25.5t19.5 -17.5l45 -53q86 -86 74 -201
q-3 -42 -31.5 -77t-75.5 -46q-45 -6 -85 13.5t-58 60.5q-25 56 -25 147zM1161 -700q0 -10 -1 -32.5t-1 -37.5t1.5 -36.5t6.5 -35.5t13.5 -27.5t23.5 -20.5t35 -7q31 0 47.5 18t19.5 37.5t3 50.5h-37q0 -5 0.5 -14t0.5 -14.5t-1 -12t-4 -12.5q-6 -18 -27 -20.5t-27 12.5
q-7 9 -10 23t-3.5 25t0.5 28.5t1 21.5q0 5 -1 22.5t-1 29.5t2 26t8 21q9 16 30.5 15t27.5 -19q4 -7 5 -15.5t0 -21t-1 -13.5h37q0 16 -0.5 25.5t-3.5 24t-9 22.5t-17.5 15t-27.5 8q-46 6 -68 -19.5t-22 -66.5zM1307 184q0 9 -1 52.5t0 70.5t5 53q16 96 86 123q84 22 135 -12
q23 -14 37.5 -35t20 -51t6.5 -49t1 -54v-12h-98q0 61 -4 90q0 22 -29 37q-18 4 -53 -20q-2 -20 -2 -44.5t1 -52t1 -38.5v-144q0 -5 -0.5 -19.5t-1 -25.5t1 -26t5 -25.5t10.5 -19t18 -11.5q22 -9 36 0.5t19 37.5t6 43t0 43v11h-61v91h156v-316h-78l-4 21q-27 -27 -72.5 -28.5
t-75.5 20.5q-52 26 -61 122q-3 20 -4 43t-1 40t0.5 44t0.5 41zM1341 -750q0 -3 -0.5 -25.5t0 -29.5t2.5 -26t7.5 -27t13.5 -19t22 -15.5t33 -4.5q23 0 38.5 9t23 20.5t11.5 33t4.5 34.5t0.5 38v8v19v21.5t-1 19.5t-3 21t-5.5 17.5t-9 16.5t-13 12t-18.5 9.5t-24 3.5
q-24 3 -40 -3.5t-24.5 -17t-12.5 -33t-4.5 -37.5t-0.5 -45zM1350 1671h69v254q4 0 29.5 -0.5t36 0t30 3t32.5 9t24 17.5q44 32 49 94.5t-25 110.5q-17 38 -49 49.5t-82 11.5h-114v-549zM1354 1253q0 -94 12 -135q21 -54 80 -73.5t108 4.5q24 8 41.5 22.5t27.5 36.5t16.5 42
t8.5 50.5t2.5 48.5t-0.5 50.5t-1 43.5v250h-78v-200v-176q0 -25 -4.5 -47.5t-16 -44t-31.5 -28t-51 0.5q-7 4 -13 9t-10.5 9.5t-8 12.5t-5.5 12.5t-3.5 15t-2.5 14t-1.5 15.5t-0.5 14.5v15v13.5v364h-69v-340zM1382 -729q0 4 -1 12.5t-1 16t2 12.5q0 25 14.5 40t39.5 1
q8 -3 13 -13.5t6.5 -26t1.5 -28t-0.5 -30t-0.5 -21.5v-6v-17t-0.5 -18t-2 -19t-4 -16.5t-7 -14t-10 -8t-14.5 -2.5t-19 7q-11 4 -16 22t-5 36t2 43t2 30zM1419 1982v181q7 0 20.5 0.5t21 0.5t19 -1t21.5 -4q16 -4 26 -13.5t13.5 -25.5t4.5 -26.5t1 -29.5q0 -67 -45 -77
q-18 -5 -82 -5zM1448 -545h41v131h49v25h-49v94h65v29h-106v-279zM1534 -893h33v205l45 -205h28l46 205v-205h28l-4 279h-37l-45 -226l-49 226h-45v-279zM1579 -397v-18.5v-21t0.5 -20t2 -21t4 -18.5t6.5 -17.5t10 -14t13.5 -12t18 -6.5t23.5 -3q28 0 45 12.5t23.5 37.5
t8 42t1.5 47q0 79 -13 107q-18 37 -61 41q-24 1 -40 -7t-24 -19t-12.5 -32.5t-5 -35.5t-0.5 -41zM1616 -389v45q0 27 17 43t40 2q9 -3 14.5 -13.5t7 -26t1.5 -28.5t-1 -29.5t-1 -21.5q0 -67 -7 -85q-12 -31 -47 -17q-14 6 -20.5 25t-7 36t1.5 42t2 28zM1622 -193l164 754h94
l-172 -754h-86zM1673 1671h213v53h-139v201h111v57h-111v181h135v57h-209v-549zM1706 1196q3 -67 42.5 -111.5t104.5 -44.5q66 0 102.5 51t24.5 117q-4 25 -13.5 45t-30 41.5t-28.5 29t-38 32.5q-6 5 -17.5 14t-18 14.5t-16.5 14.5t-15.5 15.5t-11.5 16.5t-8.5 18.5
t-2.5 19.5t4 22q3 25 22.5 38t46.5 7q53 -9 62 -102l57 24q0 81 -45 115q-58 35 -135 20q-62 -18 -79.5 -85t18.5 -119q11 -18 29 -36.5t42.5 -39.5t34.5 -31q8 -5 15.5 -10.5t14.5 -12.5t11 -12t11 -14t9 -12q17 -25 18 -55t-22 -52q-19 -18 -45 -16.5t-41 20.5
q-7 7 -12 16t-7.5 20.5t-4 19.5t-2.5 23t-2 20zM1763 -893h29l4 205l41 -205h29l49 205l4 -205h25l-5 279h-36l-50 -226l-49 226h-41v-279zM1772 -545h36v131h29l37 -131h45l-45 135q41 16 38.5 66t-38.5 70q-13 7 -28.5 9t-42 0.5t-31.5 -1.5v-279zM1800 627h37v135h14h14
t12.5 0.5t14 2.5t13 5t14.5 8q14 14 16.5 48.5t-4.5 58.5q-7 11 -18.5 17.5t-28.5 8.5t-28 2.5t-31.5 0t-24.5 -0.5v-286zM1808 -389v94q33 0 49.5 -8.5t16.5 -36.5q0 -30 -17.5 -39.5t-48.5 -9.5zM1837 786v103q23 0 33.5 -1.5t19 -12t8.5 -31.5q0 -41 -20 -53
q-10 -5 -41 -5zM1894 94l95 4q0 -73 20 -106q3 -13 13 -20t24 -1q9 2 14 10t5.5 15.5t0.5 23.5q0 23 -11.5 47.5t-19.5 35.5t-34.5 39t-28.5 30q-7 11 -26 30.5t-23 30.5q-37 47 -29 140q3 67 65 100.5t124 5.5q35 -15 54 -49t23.5 -66t4.5 -77l-99 -4v13v15.5t-0.5 15.5
t-1.5 16l-2.5 15t-4 14.5t-6.5 11t-9 9t-12 4.5q-19 2 -29.5 -13t-10.5 -33t3 -32q3 -9 7.5 -17.5t11 -16t10.5 -11.5l12.5 -12.5l11.5 -11.5l49 -53q85 -92 74 -201q-3 -41 -32.5 -76t-74.5 -47q-44 -6 -85 13.5t-62 60.5q-21 47 -21 147zM1944 1671h81v258h58l74 -258h69
l-69 275q43 16 58.5 68t-0.5 107t-54 79q-21 10 -52 15t-50 6t-62.5 0t-52.5 -1v-549zM1968 627h107v32h-74v254h-33v-286zM1989 -893h110v25h-69v110h57v29h-57v86h69v29h-110v-279zM2009 -295h49v-250h41v250h53v29h-143v-29zM2025 1982v181q56 0 78 -9q37 -13 37 -73
q6 -32 -3.5 -57t-33.5 -37q-36 -5 -78 -5zM2046 1049h213v45h-139v204h110v58h-110v176h139v61h-213v-544zM2103 627h107v32h-74v103h62v29h-62v98h74v24h-107v-286zM2128 -893h41v135h33l32 -135h37l-41 139q36 12 36 62t-32 69q-10 6 -24.5 8.5t-25 2.5t-29 -1t-27.5 -1
v-279zM2169 -729v86q32 0 46.5 -8.5t14.5 -36.5t-13.5 -34.5t-47.5 -6.5zM2169 -545h37v131h69v-131h45v279h-45v-123h-69v123h-37v-279zM2185 381v102h275v-102h-86v-500h-103v500h-86zM2226 627h37l8 78h62l12 -78h41l-57 286h-41zM2275 729l33 131l21 -131h-54z
M2275 1823q3 -67 43.5 -111.5t108.5 -44.5q66 0 102.5 49.5t24.5 118.5q-5 17 -12 32.5t-22 34t-21.5 25.5t-29.5 29.5t-26 25.5q-24 17 -36 27.5t-29.5 29t-23 39.5t-1.5 44q3 21 24 33t50 12q7 -2 12.5 -5t10 -6.5t9 -9.5t7 -9.5t6 -11.5t4.5 -12t3.5 -13t3.5 -12t3 -13
t2 -11l58 21q-9 88 -49 115q-24 18 -64.5 22t-67.5 -6q-43 -10 -65.5 -45.5t-20.5 -80t25 -83.5q15 -22 56.5 -58t45.5 -40q36 -27 62 -62q19 -26 20 -58t-20 -48q-19 -18 -45 -16.5t-45 20.5q-22 22 -29 98zM2308 -700q0 -12 -1.5 -38.5t-2 -44.5t2 -41.5t9.5 -37.5
t23 -24.5t39 -10.5q31 0 48 17.5t21 38t4 50.5h-41q0 -6 1.5 -18t0.5 -20t-6 -15q-3 -18 -23.5 -20.5t-29.5 12.5q-7 9 -10 23t-3.5 25t0.5 28.5t1 21.5t-1 22.5t-0.5 30t3.5 25.5t10 21q9 16 29.5 15t23.5 -19q5 -7 6 -16t-0.5 -20.5t-1.5 -13.5h41q0 19 -1.5 32t-7 28.5
t-19 24.5t-33.5 10q-42 6 -62 -19.5t-20 -66.5zM2361 -545h107v21h-66v110h58v25h-58v94h66v29h-107v-279zM2402 709q3 -35 24 -58.5t54 -23.5q37 0 55.5 28.5t6.5 65.5q-4 33 -62 70q-2 2 -13 15t-15 19t-8 17.5t-1 21.5q5 33 45 25q12 -15 21 -53l33 4q0 21 -10.5 41
t-30.5 28q-15 6 -37 3.5t-37 -11.5q-28 -30 -21 -62.5t37 -56.5q6 -7 25 -24.5t30 -33t11 -32.5q0 -39 -45 -33q-21 8 -21 62zM2464 1270q0 -78 4 -115q9 -55 48.5 -85t98.5 -30q57 0 94 28.5t46 82.5q5 18 6 38t-0.5 49.5t-1.5 43.5q0 15 4 70.5t1 95t-18 72.5
q-28 80 -143 73q-104 0 -131 -90q-7 -33 -9 -69t-0.5 -94.5t1.5 -69.5zM2492 -893h37v279h-37v-279zM2499 -119v602h176q40 0 73.5 -39.5t32.5 -115.5q0 -120 -69 -168l65 -279h-98l-53 262h-29v-262h-98zM2542 1217v98q0 17 -2 53t-2 65.5t4 53.5q9 25 21 35.5t36 13.5
q12 6 31 1t34 -17q6 -6 10 -13.5t6.5 -13t3.5 -16t1 -14.5v-17.5v-15.5v-197q0 -5 1 -17.5t1 -22.5t-2 -17q-9 -57 -41 -70q-27 -20 -70 0q-8 3 -13.5 8.5t-9 14t-5.5 14.5t-3 19t-1 17.5v20v17.5zM2558 -893h41l12 74h62l8 -74h37l-62 279h-41zM2574 627h115v32h-74v103h58
v29h-58v98h70v24h-111v-286zM2587 -545h28v131h58v25h-58v94h78v29h-106v-279zM2597 229h53q18 9 25 50.5t-5 80t-40 37.5h-33v-168zM2607 1888q0 -69 4 -102q18 -119 144 -119q120 0 143 111q8 37 8 127q0 12 2.5 71.5t-0.5 96.5t-14 69q-34 82 -148 82q-110 -7 -131 -94
q-7 -33 -9 -70.5t-0.5 -98.5t1.5 -73zM2615 -799l25 131l24 -131h-49zM2685 1839v98q0 14 -2.5 54.5t-1.5 70.5t8 52q12 43 53 49q44 7 66 -21q12 -9 17.5 -26.5t6 -28.5t0.5 -35v-250q-2 -14 -3.5 -22t-6 -19t-12 -18.5t-19.5 -13.5t-32.5 -6t-32.5 6q-7 3 -12.5 7t-9.5 8
t-7 10.5t-5 11t-3.5 12.5t-2 12t-1 13t-0.5 12v12.5v11.5zM2718 -479q6 -40 36 -59t70 -7q15 6 24 18.5t12 31.5t3.5 34t-1 38t-1.5 30v127h-29v-123q0 -2 0.5 -17.5t0 -24t-1.5 -25t-4 -26.5t-8 -20.5t-13 -16t-19 -5.5q-14 0 -22.5 10t-11.5 29t-4 33t0 37.5t1 25.5v123
h-32v-148q0 -6 -1 -20t-1 -25t2 -20zM2746 -893h111v25h-74v254h-37v-279zM2783 913l62 -286h37l57 286h-33l-45 -204l-37 204h-41zM2818 98v385h102v-372q0 -96 5 -119q7 -10 21 -17t28 -4q22 11 26 21q2 6 2 16q4 29 4 90v385h99v-385v-11q0 -35 -1 -54.5t-6 -49.5
t-19 -50.5t-36 -34.5q-57 -35 -139 -13q-75 28 -82 123q-4 33 -4 90zM2841 1049h57v368l164 -368h53v544h-70v-364l-155 364h-49v-544zM2906 -545h107v21h-66v258h-41v-279zM2951 -614l62 -279h28l66 279h-37l-41 -205l-45 205h-33zM2972 627h41v286h-41v-286zM2984 1671h61
v369l156 -369h49v549h-65v-365l-152 365h-49v-549zM3041 -545h111v21h-70v258h-41v-279zM3049 709q7 -82 74 -82q36 0 53.5 28t8.5 66q-1 9 -5 17.5t-12 17t-12.5 12.5t-16 13t-12.5 10q-4 5 -12 12.5t-13.5 13.5t-11.5 15t-5.5 15.5t5.5 16.5q3 17 16 23t21 2q7 -6 12 -14
t6.5 -12t4.5 -15l2 -12l33 4q-9 56 -37 69q-33 13 -78 -8q-19 -17 -21 -40.5t8.5 -43t28.5 -35.5q3 -3 15 -12.5t16.5 -14t13.5 -14t12.5 -16t6.5 -15.5t2 -18q0 -18 -10.5 -27t-26.5 -6q-14 5 -21.5 24.5t-7.5 37.5zM3135 -893h111v25h-70v110h58v29h-58v86h70v29h-111
v-279zM3150 0v365q0 52 36.5 86t86.5 41q35 7 69 -13q47 -22 62.5 -72t15.5 -120l-94 -4v8q0 21 -0.5 33t-4 30.5t-12.5 29t-24 13.5q-13 3 -25 -7t-12 -30v-356q0 -20 12 -30t25 -7q42 7 41 107v4v4l94 -4q0 -71 -15.5 -121t-62.5 -72q-32 -19 -69 -12q-50 7 -86.5 41
t-36.5 86zM3197 1049h213v45h-139v499h-74v-544zM3222 627h40v286h-40v-286zM3246 -545h33l16 70h58l12 -70h41l-62 279h-45zM3275 -893h41v135h32l37 -135h33l-33 139q33 13 31 62t-31 69q-12 6 -27 8.5t-26 2.5t-30 -1t-27 -1v-279zM3287 889h53v-262h33v262h45v24h-131
v-24zM3299 -446l25 127l24 -127h-49zM3308 1671h69l29 131h110l25 -131h74l-115 549h-78zM3316 -729v86q32 0 46.5 -8.5t14.5 -36.5t-13.5 -34.5t-47.5 -6.5zM3414 1860l49 254l45 -254h-94zM3430 -545h37v189l74 -189h29v279h-33v-185l-82 185h-25v-279zM3430 1593l78 -245
q27 -56 37 -107q2 -11 2 -25t-1 -31.5t-1 -25.5v-110h78v131q0 5 -1.5 20.5t-0.5 28.5t6 24l37 111q62 194 74 229h-74l-82 -262l-82 262h-70zM3447 -815q3 -36 23 -59t55 -23q36 0 52.5 27t4.5 59q0 18 -8 31.5t-24 29t-21 21.5q-4 4 -13.5 12.5t-13 12.5t-11 13.5t-6 15
t2.5 16.5q14 28 45 16q6 -3 9.5 -9.5t5 -12t3 -16.5t2.5 -15l29 12q0 55 -33 66q-15 9 -37 6t-41 -15q-28 -25 -21.5 -58.5t34.5 -64.5q69 -44 69 -81q0 -20 -12 -29t-33 0q-24 10 -24 53zM3465 -119v602h103v-254h16l86 254h98l-102 -303l102 -299h-98l-86 254h-16v-254
h-103zM3615 -545q3 0 24 -1t32 0t27.5 5t26.5 13q12 6 19 16t9 24.5t2.5 25t-0.5 28.5t-1 24q0 9 1.5 32t1.5 36.5t-4.5 29.5t-14.5 25q-13 10 -32 15.5t-29 6t-35.5 0t-26.5 -0.5v-279zM3623 -893h33v279h-33v-279zM3652 -524v229q23 0 33.5 -1.5t20 -11t11.5 -28.5v-143
q-4 -21 -14 -31.5t-20 -12t-31 -1.5zM3672 1671h217v53h-139v496h-78v-549zM3697 -750v-7q0 -24 0.5 -37.5t4.5 -36t12 -34.5t24.5 -22t40.5 -10q13 0 24 2.5t18.5 9t13 12t8.5 16.5t5.5 18t3 21.5t0.5 20.5v22.5v20.5t0.5 29t0 33t-4 27t-10 26.5t-19.5 15.5t-32 9
q-26 3 -44 -3.5t-27 -17t-13.5 -33t-5 -37.5t-0.5 -45zM3742 127v106h127v-106h-127zM3746 -729v41q0 26 12.5 40.5t40.5 0.5q7 -3 11 -13.5t5.5 -26t1.5 -28t-1 -29.5t-1 -22v-6v-17t-0.5 -18t-2 -19t-4 -16.5t-7 -14t-10 -8t-14.5 -2.5t-19 7q-15 5 -18 29t1.5 61t4.5 41z
M3779 1049h73v73h-73v-73zM3779 1593l24 -430h25l24 430h-73zM3897 -893h25v193l86 -193h29v279h-33v-189l-82 189h-25v-279zM3930 -119v602h172q43 0 79 -39.5t36 -115.5q0 -106 -53 -135q57 -40 57 -152q0 -79 -34 -119.5t-77 -40.5h-180zM4028 -29h45q26 0 37.5 29.5
t8.5 69.5q-8 73 -54 73h-37v-172zM4028 229h37q45 0 45 78q0 90 -49 90h-33v-168zM4239 -119l111 602h94l103 -602h-99l-20 144h-66l-20 -144h-103zM4379 111h32l-16 122zM4563 94l94 4q0 -71 21 -106q8 -32 36 -21q21 4 21 49q0 23 -11.5 47.5t-19.5 35.5t-34.5 39
t-28.5 30q-7 11 -26 30.5t-23 30.5q-37 47 -29 140q3 67 64.5 100.5t123.5 5.5q35 -15 54 -49t23.5 -66t4.5 -77l-98 -4v13v15.5t-0.5 15t-1.5 17t-2.5 15t-4.5 14l-7 10.5t-9 9.5t-12 4.5q-19 2 -29.5 -13t-10.5 -33t3 -32q3 -9 7.5 -17.5t11 -16t10.5 -11.5l12.5 -12.5
l11.5 -11.5l50 -53q84 -91 73 -201q-3 -41 -32 -76t-74 -47q-44 -6 -85.5 13.5t-62.5 60.5q-20 45 -20 147zM4880 -119v602h234v-102h-135v-131h110v-107h-110v-159h135v-103h-234z" />
    <glyph glyph-name="personal" unicode="3" horiz-adv-x="5398" 
d="M319 483h103l4 -602h-86l-8 250l-45 -250h-70l-49 246l-4 -246h-90l8 602h98l70 -377zM504 -119v602h78l102 -286v286h94v-602h-73l-107 295v-295h-94zM844 -119v111h102v-111h-102zM987 94l94 4q0 -71 21 -106q16 -32 37 -21q24 5 24 49q0 23 -10.5 46.5t-21 37.5
t-31.5 37t-27 31q-8 10 -30.5 30t-26.5 31q-39 57 -25 140q3 67 63.5 100.5t125.5 5.5q47 -22 62 -71.5t15 -120.5l-94 -4q-1 8 -1.5 25t-1.5 29.5t-4 26.5t-10.5 22.5t-19.5 10.5q-30 3 -39.5 -25.5t-1.5 -52.5q5 -15 13.5 -26t25 -25.5t19.5 -17.5l45 -53q86 -86 74 -201
q-3 -42 -31.5 -77t-75.5 -46q-45 -6 -85 13.5t-58 60.5q-25 56 -25 147zM1161 -700q0 -10 -1 -32.5t-1 -37.5t1.5 -36.5t6.5 -35.5t13.5 -27.5t23.5 -20.5t35 -7q31 0 47.5 18t19.5 37.5t3 50.5h-37q0 -5 0.5 -14t0.5 -14.5t-1 -12t-4 -12.5q-6 -18 -27 -20.5t-27 12.5
q-7 9 -10 23t-3.5 25t0.5 28.5t1 21.5q0 5 -1 22.5t-1 29.5t2 26t8 21q9 16 30.5 15t27.5 -19q4 -7 5 -15.5t0 -21t-1 -13.5h37q0 16 -0.5 25.5t-3.5 24t-9 22.5t-17.5 15t-27.5 8q-46 6 -68 -19.5t-22 -66.5zM1307 184q0 9 -1 52.5t0 70.5t5 53q16 96 86 123q84 22 135 -12
q23 -14 37.5 -35t20 -51t6.5 -49t1 -54v-12h-98q0 61 -4 90q0 22 -29 37q-18 4 -53 -20q-2 -20 -2 -44.5t1 -52t1 -38.5v-144q0 -5 -0.5 -19.5t-1 -25.5t1 -26t5 -25.5t10.5 -19t18 -11.5q22 -9 36 0.5t19 37.5t6 43t0 43v11h-61v91h156v-316h-78l-4 21q-27 -27 -72.5 -28.5
t-75.5 20.5q-52 26 -61 122q-3 20 -4 43t-1 40t0.5 44t0.5 41zM1341 -750q0 -3 -0.5 -25.5t0 -29.5t2.5 -26t7.5 -27t13.5 -19t22 -15.5t33 -4.5q23 0 38.5 9t23 20.5t11.5 33t4.5 34.5t0.5 38v8v19v21.5t-1 19.5t-3 21t-5.5 17.5t-9 16.5t-13 12t-18.5 9.5t-24 3.5
q-24 3 -40 -3.5t-24.5 -17t-12.5 -33t-4.5 -37.5t-0.5 -45zM1350 1671h69v254q4 0 29.5 -0.5t36 0t30 3t32.5 9t24 17.5q44 32 49 94.5t-25 110.5q-17 38 -49 49.5t-82 11.5h-114v-549zM1354 1253q0 -94 12 -135q21 -54 80 -73.5t108 4.5q24 8 41.5 22.5t27.5 36.5t16.5 42
t8.5 50.5t2.5 48.5t-0.5 50.5t-1 43.5v250h-78v-200v-176q0 -25 -4.5 -47.5t-16 -44t-31.5 -28t-51 0.5q-7 4 -13 9t-10.5 9.5t-8 12.5t-5.5 12.5t-3.5 15t-2.5 14t-1.5 15.5t-0.5 14.5v15v13.5v364h-69v-340zM1382 -729q0 4 -1 12.5t-1 16t2 12.5q0 25 14.5 40t39.5 1
q8 -3 13 -13.5t6.5 -26t1.5 -28t-0.5 -30t-0.5 -21.5v-6v-17t-0.5 -18t-2 -19t-4 -16.5t-7 -14t-10 -8t-14.5 -2.5t-19 7q-11 4 -16 22t-5 36t2 43t2 30zM1419 1982v181q7 0 20.5 0.5t21 0.5t19 -1t21.5 -4q16 -4 26 -13.5t13.5 -25.5t4.5 -26.5t1 -29.5q0 -67 -45 -77
q-18 -5 -82 -5zM1448 -545h41v131h49v25h-49v94h65v29h-106v-279zM1534 -893h33v205l45 -205h28l46 205v-205h28l-4 279h-37l-45 -226l-49 226h-45v-279zM1579 -397v-18.5v-21t0.5 -20t2 -21t4 -18.5t6.5 -17.5t10 -14t13.5 -12t18 -6.5t23.5 -3q28 0 45 12.5t23.5 37.5
t8 42t1.5 47q0 79 -13 107q-18 37 -61 41q-24 1 -40 -7t-24 -19t-12.5 -32.5t-5 -35.5t-0.5 -41zM1616 -389v45q0 27 17 43t40 2q9 -3 14.5 -13.5t7 -26t1.5 -28.5t-1 -29.5t-1 -21.5q0 -67 -7 -85q-12 -31 -47 -17q-14 6 -20.5 25t-7 36t1.5 42t2 28zM1622 -193l164 754h94
l-172 -754h-86zM1673 1671h213v53h-139v201h111v57h-111v181h135v57h-209v-549zM1706 1196q3 -67 42.5 -111.5t104.5 -44.5q66 0 102.5 51t24.5 117q-4 25 -13.5 45t-30 41.5t-28.5 29t-38 32.5q-6 5 -17.5 14t-18 14.5t-16.5 14.5t-15.5 15.5t-11.5 16.5t-8.5 18.5
t-2.5 19.5t4 22q3 25 22.5 38t46.5 7q53 -9 62 -102l57 24q0 81 -45 115q-58 35 -135 20q-62 -18 -79.5 -85t18.5 -119q11 -18 29 -36.5t42.5 -39.5t34.5 -31q8 -5 15.5 -10.5t14.5 -12.5t11 -12t11 -14t9 -12q17 -25 18 -55t-22 -52q-19 -18 -45 -16.5t-41 20.5
q-7 7 -12 16t-7.5 20.5t-4 19.5t-2.5 23t-2 20zM1763 -893h29l4 205l41 -205h29l49 205l4 -205h25l-5 279h-36l-50 -226l-49 226h-41v-279zM1772 -545h36v131h29l37 -131h45l-45 135q41 16 38.5 66t-38.5 70q-13 7 -28.5 9t-42 0.5t-31.5 -1.5v-279zM1800 627h37v135h14h14
t12.5 0.5t14 2.5t13 5t14.5 8q14 14 16.5 48.5t-4.5 58.5q-7 11 -18.5 17.5t-28.5 8.5t-28 2.5t-31.5 0t-24.5 -0.5v-286zM1808 -389v94q33 0 49.5 -8.5t16.5 -36.5q0 -30 -17.5 -39.5t-48.5 -9.5zM1837 786v103q23 0 33.5 -1.5t19 -12t8.5 -31.5q0 -41 -20 -53
q-10 -5 -41 -5zM1894 94l95 4q0 -73 20 -106q3 -13 13 -20t24 -1q9 2 14 10t5.5 15.5t0.5 23.5q0 23 -11.5 47.5t-19.5 35.5t-34.5 39t-28.5 30q-7 11 -26 30.5t-23 30.5q-37 47 -29 140q3 67 65 100.5t124 5.5q35 -15 54 -49t23.5 -66t4.5 -77l-99 -4v13v15.5t-0.5 15.5
t-1.5 16l-2.5 15t-4 14.5t-6.5 11t-9 9t-12 4.5q-19 2 -29.5 -13t-10.5 -33t3 -32q3 -9 7.5 -17.5t11 -16t10.5 -11.5l12.5 -12.5l11.5 -11.5l49 -53q85 -92 74 -201q-3 -41 -32.5 -76t-74.5 -47q-44 -6 -85 13.5t-62 60.5q-21 47 -21 147zM1944 1671h81v258h58l74 -258h69
l-69 275q43 16 58.5 68t-0.5 107t-54 79q-21 10 -52 15t-50 6t-62.5 0t-52.5 -1v-549zM1968 627h107v32h-74v254h-33v-286zM1989 -893h110v25h-69v110h57v29h-57v86h69v29h-110v-279zM2009 -295h49v-250h41v250h53v29h-143v-29zM2025 1982v181q56 0 78 -9q37 -13 37 -73
q6 -32 -3.5 -57t-33.5 -37q-36 -5 -78 -5zM2046 1049h213v45h-139v204h110v58h-110v176h139v61h-213v-544zM2103 627h107v32h-74v103h62v29h-62v98h74v24h-107v-286zM2128 -893h41v135h33l32 -135h37l-41 139q36 12 36 62t-32 69q-10 6 -24.5 8.5t-25 2.5t-29 -1t-27.5 -1
v-279zM2169 -729v86q32 0 46.5 -8.5t14.5 -36.5t-13.5 -34.5t-47.5 -6.5zM2169 -545h37v131h69v-131h45v279h-45v-123h-69v123h-37v-279zM2185 381v102h275v-102h-86v-500h-103v500h-86zM2226 627h37l8 78h62l12 -78h41l-57 286h-41zM2275 729l33 131l21 -131h-54z
M2275 1823q3 -67 43.5 -111.5t108.5 -44.5q66 0 102.5 49.5t24.5 118.5q-5 17 -12 32.5t-22 34t-21.5 25.5t-29.5 29.5t-26 25.5q-24 17 -36 27.5t-29.5 29t-23 39.5t-1.5 44q3 21 24 33t50 12q7 -2 12.5 -5t10 -6.5t9 -9.5t7 -9.5t6 -11.5t4.5 -12t3.5 -13t3.5 -12t3 -13
t2 -11l58 21q-9 88 -49 115q-24 18 -64.5 22t-67.5 -6q-43 -10 -65.5 -45.5t-20.5 -80t25 -83.5q15 -22 56.5 -58t45.5 -40q36 -27 62 -62q19 -26 20 -58t-20 -48q-19 -18 -45 -16.5t-45 20.5q-22 22 -29 98zM2308 -700q0 -12 -1.5 -38.5t-2 -44.5t2 -41.5t9.5 -37.5
t23 -24.5t39 -10.5q31 0 48 17.5t21 38t4 50.5h-41q0 -6 1.5 -18t0.5 -20t-6 -15q-3 -18 -23.5 -20.5t-29.5 12.5q-7 9 -10 23t-3.5 25t0.5 28.5t1 21.5t-1 22.5t-0.5 30t3.5 25.5t10 21q9 16 29.5 15t23.5 -19q5 -7 6 -16t-0.5 -20.5t-1.5 -13.5h41q0 19 -1.5 32t-7 28.5
t-19 24.5t-33.5 10q-42 6 -62 -19.5t-20 -66.5zM2361 -545h107v21h-66v110h58v25h-58v94h66v29h-107v-279zM2402 709q3 -35 24 -58.5t54 -23.5q37 0 55.5 28.5t6.5 65.5q-4 33 -62 70q-2 2 -13 15t-15 19t-8 17.5t-1 21.5q5 33 45 25q12 -15 21 -53l33 4q0 21 -10.5 41
t-30.5 28q-15 6 -37 3.5t-37 -11.5q-28 -30 -21 -62.5t37 -56.5q6 -7 25 -24.5t30 -33t11 -32.5q0 -39 -45 -33q-21 8 -21 62zM2464 1270q0 -78 4 -115q9 -55 48.5 -85t98.5 -30q57 0 94 28.5t46 82.5q5 18 6 38t-0.5 49.5t-1.5 43.5q0 15 4 70.5t1 95t-18 72.5
q-28 80 -143 73q-104 0 -131 -90q-7 -33 -9 -69t-0.5 -94.5t1.5 -69.5zM2492 -893h37v279h-37v-279zM2499 -119v602h176q40 0 73.5 -39.5t32.5 -115.5q0 -120 -69 -168l65 -279h-98l-53 262h-29v-262h-98zM2542 1217v98q0 17 -2 53t-2 65.5t4 53.5q9 25 21 35.5t36 13.5
q12 6 31 1t34 -17q6 -6 10 -13.5t6.5 -13t3.5 -16t1 -14.5v-17.5v-15.5v-197q0 -5 1 -17.5t1 -22.5t-2 -17q-9 -57 -41 -70q-27 -20 -70 0q-8 3 -13.5 8.5t-9 14t-5.5 14.5t-3 19t-1 17.5v20v17.5zM2558 -893h41l12 74h62l8 -74h37l-62 279h-41zM2574 627h115v32h-74v103h58
v29h-58v98h70v24h-111v-286zM2587 -545h28v131h58v25h-58v94h78v29h-106v-279zM2597 229h53q18 9 25 50.5t-5 80t-40 37.5h-33v-168zM2607 1888q0 -69 4 -102q18 -119 144 -119q120 0 143 111q8 37 8 127q0 12 2.5 71.5t-0.5 96.5t-14 69q-34 82 -148 82q-110 -7 -131 -94
q-7 -33 -9 -70.5t-0.5 -98.5t1.5 -73zM2615 -799l25 131l24 -131h-49zM2685 1839v98q0 14 -2.5 54.5t-1.5 70.5t8 52q12 43 53 49q44 7 66 -21q12 -9 17.5 -26.5t6 -28.5t0.5 -35v-250q-2 -14 -3.5 -22t-6 -19t-12 -18.5t-19.5 -13.5t-32.5 -6t-32.5 6q-7 3 -12.5 7t-9.5 8
t-7 10.5t-5 11t-3.5 12.5t-2 12t-1 13t-0.5 12v12.5v11.5zM2718 -479q6 -40 36 -59t70 -7q15 6 24 18.5t12 31.5t3.5 34t-1 38t-1.5 30v127h-29v-123q0 -2 0.5 -17.5t0 -24t-1.5 -25t-4 -26.5t-8 -20.5t-13 -16t-19 -5.5q-14 0 -22.5 10t-11.5 29t-4 33t0 37.5t1 25.5v123
h-32v-148q0 -6 -1 -20t-1 -25t2 -20zM2746 -893h111v25h-74v254h-37v-279zM2783 913l62 -286h37l57 286h-33l-45 -204l-37 204h-41zM2818 98v385h102v-372q0 -96 5 -119q7 -10 21 -17t28 -4q22 11 26 21q2 6 2 16q4 29 4 90v385h99v-385v-11q0 -35 -1 -54.5t-6 -49.5
t-19 -50.5t-36 -34.5q-57 -35 -139 -13q-75 28 -82 123q-4 33 -4 90zM2841 1049h57v368l164 -368h53v544h-70v-364l-155 364h-49v-544zM2906 -545h107v21h-66v258h-41v-279zM2951 -614l62 -279h28l66 279h-37l-41 -205l-45 205h-33zM2972 627h41v286h-41v-286zM2984 1671h61
v369l156 -369h49v549h-65v-365l-152 365h-49v-549zM3041 -545h111v21h-70v258h-41v-279zM3049 709q7 -82 74 -82q36 0 53.5 28t8.5 66q-1 9 -5 17.5t-12 17t-12.5 12.5t-16 13t-12.5 10q-4 5 -12 12.5t-13.5 13.5t-11.5 15t-5.5 15.5t5.5 16.5q3 17 16 23t21 2q7 -6 12 -14
t6.5 -12t4.5 -15l2 -12l33 4q-9 56 -37 69q-33 13 -78 -8q-19 -17 -21 -40.5t8.5 -43t28.5 -35.5q3 -3 15 -12.5t16.5 -14t13.5 -14t12.5 -16t6.5 -15.5t2 -18q0 -18 -10.5 -27t-26.5 -6q-14 5 -21.5 24.5t-7.5 37.5zM3135 -893h111v25h-70v110h58v29h-58v86h70v29h-111
v-279zM3150 0v365q0 52 36.5 86t86.5 41q35 7 69 -13q47 -22 62.5 -72t15.5 -120l-94 -4v8q0 21 -0.5 33t-4 30.5t-12.5 29t-24 13.5q-13 3 -25 -7t-12 -30v-356q0 -20 12 -30t25 -7q42 7 41 107v4v4l94 -4q0 -71 -15.5 -121t-62.5 -72q-32 -19 -69 -12q-50 7 -86.5 41
t-36.5 86zM3197 1049h213v45h-139v499h-74v-544zM3222 627h40v286h-40v-286zM3246 -545h33l16 70h58l12 -70h41l-62 279h-45zM3275 -893h41v135h32l37 -135h33l-33 139q33 13 31 62t-31 69q-12 6 -27 8.5t-26 2.5t-30 -1t-27 -1v-279zM3287 889h53v-262h33v262h45v24h-131
v-24zM3299 -446l25 127l24 -127h-49zM3308 1671h69l29 131h110l25 -131h74l-115 549h-78zM3316 -729v86q32 0 46.5 -8.5t14.5 -36.5t-13.5 -34.5t-47.5 -6.5zM3414 1860l49 254l45 -254h-94zM3430 -545h37v189l74 -189h29v279h-33v-185l-82 185h-25v-279zM3430 1593l78 -245
q27 -56 37 -107q2 -11 2 -25t-1 -31.5t-1 -25.5v-110h78v131q0 5 -1.5 20.5t-0.5 28.5t6 24l37 111q62 194 74 229h-74l-82 -262l-82 262h-70zM3447 -815q3 -36 23 -59t55 -23q36 0 52.5 27t4.5 59q0 18 -8 31.5t-24 29t-21 21.5q-4 4 -13.5 12.5t-13 12.5t-11 13.5t-6 15
t2.5 16.5q14 28 45 16q6 -3 9.5 -9.5t5 -12t3 -16.5t2.5 -15l29 12q0 55 -33 66q-15 9 -37 6t-41 -15q-28 -25 -21.5 -58.5t34.5 -64.5q69 -44 69 -81q0 -20 -12 -29t-33 0q-24 10 -24 53zM3465 -119v602h103v-254h16l86 254h98l-102 -303l102 -299h-98l-86 254h-16v-254
h-103zM3615 -545q3 0 24 -1t32 0t27.5 5t26.5 13q12 6 19 16t9 24.5t2.5 25t-0.5 28.5t-1 24q0 9 1.5 32t1.5 36.5t-4.5 29.5t-14.5 25q-13 10 -32 15.5t-29 6t-35.5 0t-26.5 -0.5v-279zM3623 -893h33v279h-33v-279zM3652 -524v229q23 0 33.5 -1.5t20 -11t11.5 -28.5v-143
q-4 -21 -14 -31.5t-20 -12t-31 -1.5zM3672 1671h217v53h-139v496h-78v-549zM3697 -750v-7q0 -24 0.5 -37.5t4.5 -36t12 -34.5t24.5 -22t40.5 -10q13 0 24 2.5t18.5 9t13 12t8.5 16.5t5.5 18t3 21.5t0.5 20.5v22.5v20.5t0.5 29t0 33t-4 27t-10 26.5t-19.5 15.5t-32 9
q-26 3 -44 -3.5t-27 -17t-13.5 -33t-5 -37.5t-0.5 -45zM3742 127v106h127v-106h-127zM3746 -729v41q0 26 12.5 40.5t40.5 0.5q7 -3 11 -13.5t5.5 -26t1.5 -28t-1 -29.5t-1 -22v-6v-17t-0.5 -18t-2 -19t-4 -16.5t-7 -14t-10 -8t-14.5 -2.5t-19 7q-15 5 -18 29t1.5 61t4.5 41z
M3779 1049h73v73h-73v-73zM3779 1593l24 -430h25l24 430h-73zM3897 -893h25v193l86 -193h29v279h-33v-189l-82 189h-25v-279zM3930 -119v602h172q43 0 79 -39.5t36 -115.5q0 -106 -53 -135q57 -40 57 -152q0 -79 -34 -119.5t-77 -40.5h-180zM4028 -29h45q26 0 37.5 29.5
t8.5 69.5q-8 73 -54 73h-37v-172zM4028 229h37q45 0 45 78q0 90 -49 90h-33v-168zM4239 -119l111 602h94l103 -602h-99l-20 144h-66l-20 -144h-103zM4379 111h32l-16 122zM4563 94l94 4q0 -71 21 -106q8 -32 36 -21q21 4 21 49q0 23 -11.5 47.5t-19.5 35.5t-34.5 39
t-28.5 30q-7 11 -26 30.5t-23 30.5q-37 47 -29 140q3 67 64.5 100.5t123.5 5.5q35 -15 54 -49t23.5 -66t4.5 -77l-98 -4v13v15.5t-0.5 15t-1.5 17t-2.5 15t-4.5 14l-7 10.5t-9 9.5t-12 4.5q-19 2 -29.5 -13t-10.5 -33t3 -32q3 -9 7.5 -17.5t11 -16t10.5 -11.5l12.5 -12.5
l11.5 -11.5l50 -53q84 -91 73 -201q-3 -41 -32 -76t-74 -47q-44 -6 -85.5 13.5t-62.5 60.5q-20 45 -20 147zM4880 -119v602h234v-102h-135v-131h110v-107h-110v-159h135v-103h-234z" />
    <glyph glyph-name="personal" unicode="2" horiz-adv-x="5398" 
d="M319 483h103l4 -602h-86l-8 250l-45 -250h-70l-49 246l-4 -246h-90l8 602h98l70 -377zM504 -119v602h78l102 -286v286h94v-602h-73l-107 295v-295h-94zM844 -119v111h102v-111h-102zM987 94l94 4q0 -71 21 -106q16 -32 37 -21q24 5 24 49q0 23 -10.5 46.5t-21 37.5
t-31.5 37t-27 31q-8 10 -30.5 30t-26.5 31q-39 57 -25 140q3 67 63.5 100.5t125.5 5.5q47 -22 62 -71.5t15 -120.5l-94 -4q-1 8 -1.5 25t-1.5 29.5t-4 26.5t-10.5 22.5t-19.5 10.5q-30 3 -39.5 -25.5t-1.5 -52.5q5 -15 13.5 -26t25 -25.5t19.5 -17.5l45 -53q86 -86 74 -201
q-3 -42 -31.5 -77t-75.5 -46q-45 -6 -85 13.5t-58 60.5q-25 56 -25 147zM1161 -700q0 -10 -1 -32.5t-1 -37.5t1.5 -36.5t6.5 -35.5t13.5 -27.5t23.5 -20.5t35 -7q31 0 47.5 18t19.5 37.5t3 50.5h-37q0 -5 0.5 -14t0.5 -14.5t-1 -12t-4 -12.5q-6 -18 -27 -20.5t-27 12.5
q-7 9 -10 23t-3.5 25t0.5 28.5t1 21.5q0 5 -1 22.5t-1 29.5t2 26t8 21q9 16 30.5 15t27.5 -19q4 -7 5 -15.5t0 -21t-1 -13.5h37q0 16 -0.5 25.5t-3.5 24t-9 22.5t-17.5 15t-27.5 8q-46 6 -68 -19.5t-22 -66.5zM1307 184q0 9 -1 52.5t0 70.5t5 53q16 96 86 123q84 22 135 -12
q23 -14 37.5 -35t20 -51t6.5 -49t1 -54v-12h-98q0 61 -4 90q0 22 -29 37q-18 4 -53 -20q-2 -20 -2 -44.5t1 -52t1 -38.5v-144q0 -5 -0.5 -19.5t-1 -25.5t1 -26t5 -25.5t10.5 -19t18 -11.5q22 -9 36 0.5t19 37.5t6 43t0 43v11h-61v91h156v-316h-78l-4 21q-27 -27 -72.5 -28.5
t-75.5 20.5q-52 26 -61 122q-3 20 -4 43t-1 40t0.5 44t0.5 41zM1341 -750q0 -3 -0.5 -25.5t0 -29.5t2.5 -26t7.5 -27t13.5 -19t22 -15.5t33 -4.5q23 0 38.5 9t23 20.5t11.5 33t4.5 34.5t0.5 38v8v19v21.5t-1 19.5t-3 21t-5.5 17.5t-9 16.5t-13 12t-18.5 9.5t-24 3.5
q-24 3 -40 -3.5t-24.5 -17t-12.5 -33t-4.5 -37.5t-0.5 -45zM1350 1671h69v254q4 0 29.5 -0.5t36 0t30 3t32.5 9t24 17.5q44 32 49 94.5t-25 110.5q-17 38 -49 49.5t-82 11.5h-114v-549zM1354 1253q0 -94 12 -135q21 -54 80 -73.5t108 4.5q24 8 41.5 22.5t27.5 36.5t16.5 42
t8.5 50.5t2.5 48.5t-0.5 50.5t-1 43.5v250h-78v-200v-176q0 -25 -4.5 -47.5t-16 -44t-31.5 -28t-51 0.5q-7 4 -13 9t-10.5 9.5t-8 12.5t-5.5 12.5t-3.5 15t-2.5 14t-1.5 15.5t-0.5 14.5v15v13.5v364h-69v-340zM1382 -729q0 4 -1 12.5t-1 16t2 12.5q0 25 14.5 40t39.5 1
q8 -3 13 -13.5t6.5 -26t1.5 -28t-0.5 -30t-0.5 -21.5v-6v-17t-0.5 -18t-2 -19t-4 -16.5t-7 -14t-10 -8t-14.5 -2.5t-19 7q-11 4 -16 22t-5 36t2 43t2 30zM1419 1982v181q7 0 20.5 0.5t21 0.5t19 -1t21.5 -4q16 -4 26 -13.5t13.5 -25.5t4.5 -26.5t1 -29.5q0 -67 -45 -77
q-18 -5 -82 -5zM1448 -545h41v131h49v25h-49v94h65v29h-106v-279zM1534 -893h33v205l45 -205h28l46 205v-205h28l-4 279h-37l-45 -226l-49 226h-45v-279zM1579 -397v-18.5v-21t0.5 -20t2 -21t4 -18.5t6.5 -17.5t10 -14t13.5 -12t18 -6.5t23.5 -3q28 0 45 12.5t23.5 37.5
t8 42t1.5 47q0 79 -13 107q-18 37 -61 41q-24 1 -40 -7t-24 -19t-12.5 -32.5t-5 -35.5t-0.5 -41zM1616 -389v45q0 27 17 43t40 2q9 -3 14.5 -13.5t7 -26t1.5 -28.5t-1 -29.5t-1 -21.5q0 -67 -7 -85q-12 -31 -47 -17q-14 6 -20.5 25t-7 36t1.5 42t2 28zM1622 -193l164 754h94
l-172 -754h-86zM1673 1671h213v53h-139v201h111v57h-111v181h135v57h-209v-549zM1706 1196q3 -67 42.5 -111.5t104.5 -44.5q66 0 102.5 51t24.5 117q-4 25 -13.5 45t-30 41.5t-28.5 29t-38 32.5q-6 5 -17.5 14t-18 14.5t-16.5 14.5t-15.5 15.5t-11.5 16.5t-8.5 18.5
t-2.5 19.5t4 22q3 25 22.5 38t46.5 7q53 -9 62 -102l57 24q0 81 -45 115q-58 35 -135 20q-62 -18 -79.5 -85t18.5 -119q11 -18 29 -36.5t42.5 -39.5t34.5 -31q8 -5 15.5 -10.5t14.5 -12.5t11 -12t11 -14t9 -12q17 -25 18 -55t-22 -52q-19 -18 -45 -16.5t-41 20.5
q-7 7 -12 16t-7.5 20.5t-4 19.5t-2.5 23t-2 20zM1763 -893h29l4 205l41 -205h29l49 205l4 -205h25l-5 279h-36l-50 -226l-49 226h-41v-279zM1772 -545h36v131h29l37 -131h45l-45 135q41 16 38.5 66t-38.5 70q-13 7 -28.5 9t-42 0.5t-31.5 -1.5v-279zM1800 627h37v135h14h14
t12.5 0.5t14 2.5t13 5t14.5 8q14 14 16.5 48.5t-4.5 58.5q-7 11 -18.5 17.5t-28.5 8.5t-28 2.5t-31.5 0t-24.5 -0.5v-286zM1808 -389v94q33 0 49.5 -8.5t16.5 -36.5q0 -30 -17.5 -39.5t-48.5 -9.5zM1837 786v103q23 0 33.5 -1.5t19 -12t8.5 -31.5q0 -41 -20 -53
q-10 -5 -41 -5zM1894 94l95 4q0 -73 20 -106q3 -13 13 -20t24 -1q9 2 14 10t5.5 15.5t0.5 23.5q0 23 -11.5 47.5t-19.5 35.5t-34.5 39t-28.5 30q-7 11 -26 30.5t-23 30.5q-37 47 -29 140q3 67 65 100.5t124 5.5q35 -15 54 -49t23.5 -66t4.5 -77l-99 -4v13v15.5t-0.5 15.5
t-1.5 16l-2.5 15t-4 14.5t-6.5 11t-9 9t-12 4.5q-19 2 -29.5 -13t-10.5 -33t3 -32q3 -9 7.5 -17.5t11 -16t10.5 -11.5l12.5 -12.5l11.5 -11.5l49 -53q85 -92 74 -201q-3 -41 -32.5 -76t-74.5 -47q-44 -6 -85 13.5t-62 60.5q-21 47 -21 147zM1944 1671h81v258h58l74 -258h69
l-69 275q43 16 58.5 68t-0.5 107t-54 79q-21 10 -52 15t-50 6t-62.5 0t-52.5 -1v-549zM1968 627h107v32h-74v254h-33v-286zM1989 -893h110v25h-69v110h57v29h-57v86h69v29h-110v-279zM2009 -295h49v-250h41v250h53v29h-143v-29zM2025 1982v181q56 0 78 -9q37 -13 37 -73
q6 -32 -3.5 -57t-33.5 -37q-36 -5 -78 -5zM2046 1049h213v45h-139v204h110v58h-110v176h139v61h-213v-544zM2103 627h107v32h-74v103h62v29h-62v98h74v24h-107v-286zM2128 -893h41v135h33l32 -135h37l-41 139q36 12 36 62t-32 69q-10 6 -24.5 8.5t-25 2.5t-29 -1t-27.5 -1
v-279zM2169 -729v86q32 0 46.5 -8.5t14.5 -36.5t-13.5 -34.5t-47.5 -6.5zM2169 -545h37v131h69v-131h45v279h-45v-123h-69v123h-37v-279zM2185 381v102h275v-102h-86v-500h-103v500h-86zM2226 627h37l8 78h62l12 -78h41l-57 286h-41zM2275 729l33 131l21 -131h-54z
M2275 1823q3 -67 43.5 -111.5t108.5 -44.5q66 0 102.5 49.5t24.5 118.5q-5 17 -12 32.5t-22 34t-21.5 25.5t-29.5 29.5t-26 25.5q-24 17 -36 27.5t-29.5 29t-23 39.5t-1.5 44q3 21 24 33t50 12q7 -2 12.5 -5t10 -6.5t9 -9.5t7 -9.5t6 -11.5t4.5 -12t3.5 -13t3.5 -12t3 -13
t2 -11l58 21q-9 88 -49 115q-24 18 -64.5 22t-67.5 -6q-43 -10 -65.5 -45.5t-20.5 -80t25 -83.5q15 -22 56.5 -58t45.5 -40q36 -27 62 -62q19 -26 20 -58t-20 -48q-19 -18 -45 -16.5t-45 20.5q-22 22 -29 98zM2308 -700q0 -12 -1.5 -38.5t-2 -44.5t2 -41.5t9.5 -37.5
t23 -24.5t39 -10.5q31 0 48 17.5t21 38t4 50.5h-41q0 -6 1.5 -18t0.5 -20t-6 -15q-3 -18 -23.5 -20.5t-29.5 12.5q-7 9 -10 23t-3.5 25t0.5 28.5t1 21.5t-1 22.5t-0.5 30t3.5 25.5t10 21q9 16 29.5 15t23.5 -19q5 -7 6 -16t-0.5 -20.5t-1.5 -13.5h41q0 19 -1.5 32t-7 28.5
t-19 24.5t-33.5 10q-42 6 -62 -19.5t-20 -66.5zM2361 -545h107v21h-66v110h58v25h-58v94h66v29h-107v-279zM2402 709q3 -35 24 -58.5t54 -23.5q37 0 55.5 28.5t6.5 65.5q-4 33 -62 70q-2 2 -13 15t-15 19t-8 17.5t-1 21.5q5 33 45 25q12 -15 21 -53l33 4q0 21 -10.5 41
t-30.5 28q-15 6 -37 3.5t-37 -11.5q-28 -30 -21 -62.5t37 -56.5q6 -7 25 -24.5t30 -33t11 -32.5q0 -39 -45 -33q-21 8 -21 62zM2464 1270q0 -78 4 -115q9 -55 48.5 -85t98.5 -30q57 0 94 28.5t46 82.5q5 18 6 38t-0.5 49.5t-1.5 43.5q0 15 4 70.5t1 95t-18 72.5
q-28 80 -143 73q-104 0 -131 -90q-7 -33 -9 -69t-0.5 -94.5t1.5 -69.5zM2492 -893h37v279h-37v-279zM2499 -119v602h176q40 0 73.5 -39.5t32.5 -115.5q0 -120 -69 -168l65 -279h-98l-53 262h-29v-262h-98zM2542 1217v98q0 17 -2 53t-2 65.5t4 53.5q9 25 21 35.5t36 13.5
q12 6 31 1t34 -17q6 -6 10 -13.5t6.5 -13t3.5 -16t1 -14.5v-17.5v-15.5v-197q0 -5 1 -17.5t1 -22.5t-2 -17q-9 -57 -41 -70q-27 -20 -70 0q-8 3 -13.5 8.5t-9 14t-5.5 14.5t-3 19t-1 17.5v20v17.5zM2558 -893h41l12 74h62l8 -74h37l-62 279h-41zM2574 627h115v32h-74v103h58
v29h-58v98h70v24h-111v-286zM2587 -545h28v131h58v25h-58v94h78v29h-106v-279zM2597 229h53q18 9 25 50.5t-5 80t-40 37.5h-33v-168zM2607 1888q0 -69 4 -102q18 -119 144 -119q120 0 143 111q8 37 8 127q0 12 2.5 71.5t-0.5 96.5t-14 69q-34 82 -148 82q-110 -7 -131 -94
q-7 -33 -9 -70.5t-0.5 -98.5t1.5 -73zM2615 -799l25 131l24 -131h-49zM2685 1839v98q0 14 -2.5 54.5t-1.5 70.5t8 52q12 43 53 49q44 7 66 -21q12 -9 17.5 -26.5t6 -28.5t0.5 -35v-250q-2 -14 -3.5 -22t-6 -19t-12 -18.5t-19.5 -13.5t-32.5 -6t-32.5 6q-7 3 -12.5 7t-9.5 8
t-7 10.5t-5 11t-3.5 12.5t-2 12t-1 13t-0.5 12v12.5v11.5zM2718 -479q6 -40 36 -59t70 -7q15 6 24 18.5t12 31.5t3.5 34t-1 38t-1.5 30v127h-29v-123q0 -2 0.5 -17.5t0 -24t-1.5 -25t-4 -26.5t-8 -20.5t-13 -16t-19 -5.5q-14 0 -22.5 10t-11.5 29t-4 33t0 37.5t1 25.5v123
h-32v-148q0 -6 -1 -20t-1 -25t2 -20zM2746 -893h111v25h-74v254h-37v-279zM2783 913l62 -286h37l57 286h-33l-45 -204l-37 204h-41zM2818 98v385h102v-372q0 -96 5 -119q7 -10 21 -17t28 -4q22 11 26 21q2 6 2 16q4 29 4 90v385h99v-385v-11q0 -35 -1 -54.5t-6 -49.5
t-19 -50.5t-36 -34.5q-57 -35 -139 -13q-75 28 -82 123q-4 33 -4 90zM2841 1049h57v368l164 -368h53v544h-70v-364l-155 364h-49v-544zM2906 -545h107v21h-66v258h-41v-279zM2951 -614l62 -279h28l66 279h-37l-41 -205l-45 205h-33zM2972 627h41v286h-41v-286zM2984 1671h61
v369l156 -369h49v549h-65v-365l-152 365h-49v-549zM3041 -545h111v21h-70v258h-41v-279zM3049 709q7 -82 74 -82q36 0 53.5 28t8.5 66q-1 9 -5 17.5t-12 17t-12.5 12.5t-16 13t-12.5 10q-4 5 -12 12.5t-13.5 13.5t-11.5 15t-5.5 15.5t5.5 16.5q3 17 16 23t21 2q7 -6 12 -14
t6.5 -12t4.5 -15l2 -12l33 4q-9 56 -37 69q-33 13 -78 -8q-19 -17 -21 -40.5t8.5 -43t28.5 -35.5q3 -3 15 -12.5t16.5 -14t13.5 -14t12.5 -16t6.5 -15.5t2 -18q0 -18 -10.5 -27t-26.5 -6q-14 5 -21.5 24.5t-7.5 37.5zM3135 -893h111v25h-70v110h58v29h-58v86h70v29h-111
v-279zM3150 0v365q0 52 36.5 86t86.5 41q35 7 69 -13q47 -22 62.5 -72t15.5 -120l-94 -4v8q0 21 -0.5 33t-4 30.5t-12.5 29t-24 13.5q-13 3 -25 -7t-12 -30v-356q0 -20 12 -30t25 -7q42 7 41 107v4v4l94 -4q0 -71 -15.5 -121t-62.5 -72q-32 -19 -69 -12q-50 7 -86.5 41
t-36.5 86zM3197 1049h213v45h-139v499h-74v-544zM3222 627h40v286h-40v-286zM3246 -545h33l16 70h58l12 -70h41l-62 279h-45zM3275 -893h41v135h32l37 -135h33l-33 139q33 13 31 62t-31 69q-12 6 -27 8.5t-26 2.5t-30 -1t-27 -1v-279zM3287 889h53v-262h33v262h45v24h-131
v-24zM3299 -446l25 127l24 -127h-49zM3308 1671h69l29 131h110l25 -131h74l-115 549h-78zM3316 -729v86q32 0 46.5 -8.5t14.5 -36.5t-13.5 -34.5t-47.5 -6.5zM3414 1860l49 254l45 -254h-94zM3430 -545h37v189l74 -189h29v279h-33v-185l-82 185h-25v-279zM3430 1593l78 -245
q27 -56 37 -107q2 -11 2 -25t-1 -31.5t-1 -25.5v-110h78v131q0 5 -1.5 20.5t-0.5 28.5t6 24l37 111q62 194 74 229h-74l-82 -262l-82 262h-70zM3447 -815q3 -36 23 -59t55 -23q36 0 52.5 27t4.5 59q0 18 -8 31.5t-24 29t-21 21.5q-4 4 -13.5 12.5t-13 12.5t-11 13.5t-6 15
t2.5 16.5q14 28 45 16q6 -3 9.5 -9.5t5 -12t3 -16.5t2.5 -15l29 12q0 55 -33 66q-15 9 -37 6t-41 -15q-28 -25 -21.5 -58.5t34.5 -64.5q69 -44 69 -81q0 -20 -12 -29t-33 0q-24 10 -24 53zM3465 -119v602h103v-254h16l86 254h98l-102 -303l102 -299h-98l-86 254h-16v-254
h-103zM3615 -545q3 0 24 -1t32 0t27.5 5t26.5 13q12 6 19 16t9 24.5t2.5 25t-0.5 28.5t-1 24q0 9 1.5 32t1.5 36.5t-4.5 29.5t-14.5 25q-13 10 -32 15.5t-29 6t-35.5 0t-26.5 -0.5v-279zM3623 -893h33v279h-33v-279zM3652 -524v229q23 0 33.5 -1.5t20 -11t11.5 -28.5v-143
q-4 -21 -14 -31.5t-20 -12t-31 -1.5zM3672 1671h217v53h-139v496h-78v-549zM3697 -750v-7q0 -24 0.5 -37.5t4.5 -36t12 -34.5t24.5 -22t40.5 -10q13 0 24 2.5t18.5 9t13 12t8.5 16.5t5.5 18t3 21.5t0.5 20.5v22.5v20.5t0.5 29t0 33t-4 27t-10 26.5t-19.5 15.5t-32 9
q-26 3 -44 -3.5t-27 -17t-13.5 -33t-5 -37.5t-0.5 -45zM3742 127v106h127v-106h-127zM3746 -729v41q0 26 12.5 40.5t40.5 0.5q7 -3 11 -13.5t5.5 -26t1.5 -28t-1 -29.5t-1 -22v-6v-17t-0.5 -18t-2 -19t-4 -16.5t-7 -14t-10 -8t-14.5 -2.5t-19 7q-15 5 -18 29t1.5 61t4.5 41z
M3779 1049h73v73h-73v-73zM3779 1593l24 -430h25l24 430h-73zM3897 -893h25v193l86 -193h29v279h-33v-189l-82 189h-25v-279zM3930 -119v602h172q43 0 79 -39.5t36 -115.5q0 -106 -53 -135q57 -40 57 -152q0 -79 -34 -119.5t-77 -40.5h-180zM4028 -29h45q26 0 37.5 29.5
t8.5 69.5q-8 73 -54 73h-37v-172zM4028 229h37q45 0 45 78q0 90 -49 90h-33v-168zM4239 -119l111 602h94l103 -602h-99l-20 144h-66l-20 -144h-103zM4379 111h32l-16 122zM4563 94l94 4q0 -71 21 -106q8 -32 36 -21q21 4 21 49q0 23 -11.5 47.5t-19.5 35.5t-34.5 39
t-28.5 30q-7 11 -26 30.5t-23 30.5q-37 47 -29 140q3 67 64.5 100.5t123.5 5.5q35 -15 54 -49t23.5 -66t4.5 -77l-98 -4v13v15.5t-0.5 15t-1.5 17t-2.5 15t-4.5 14l-7 10.5t-9 9.5t-12 4.5q-19 2 -29.5 -13t-10.5 -33t3 -32q3 -9 7.5 -17.5t11 -16t10.5 -11.5l12.5 -12.5
l11.5 -11.5l50 -53q84 -91 73 -201q-3 -41 -32 -76t-74 -47q-44 -6 -85.5 13.5t-62.5 60.5q-20 45 -20 147zM4880 -119v602h234v-102h-135v-131h110v-107h-110v-159h135v-103h-234z" />
    <glyph glyph-name="personal" unicode="1" horiz-adv-x="5398" 
d="M319 483h103l4 -602h-86l-8 250l-45 -250h-70l-49 246l-4 -246h-90l8 602h98l70 -377zM504 -119v602h78l102 -286v286h94v-602h-73l-107 295v-295h-94zM844 -119v111h102v-111h-102zM987 94l94 4q0 -71 21 -106q16 -32 37 -21q24 5 24 49q0 23 -10.5 46.5t-21 37.5
t-31.5 37t-27 31q-8 10 -30.5 30t-26.5 31q-39 57 -25 140q3 67 63.5 100.5t125.5 5.5q47 -22 62 -71.5t15 -120.5l-94 -4q-1 8 -1.5 25t-1.5 29.5t-4 26.5t-10.5 22.5t-19.5 10.5q-30 3 -39.5 -25.5t-1.5 -52.5q5 -15 13.5 -26t25 -25.5t19.5 -17.5l45 -53q86 -86 74 -201
q-3 -42 -31.5 -77t-75.5 -46q-45 -6 -85 13.5t-58 60.5q-25 56 -25 147zM1161 -700q0 -10 -1 -32.5t-1 -37.5t1.5 -36.5t6.5 -35.5t13.5 -27.5t23.5 -20.5t35 -7q31 0 47.5 18t19.5 37.5t3 50.5h-37q0 -5 0.5 -14t0.5 -14.5t-1 -12t-4 -12.5q-6 -18 -27 -20.5t-27 12.5
q-7 9 -10 23t-3.5 25t0.5 28.5t1 21.5q0 5 -1 22.5t-1 29.5t2 26t8 21q9 16 30.5 15t27.5 -19q4 -7 5 -15.5t0 -21t-1 -13.5h37q0 16 -0.5 25.5t-3.5 24t-9 22.5t-17.5 15t-27.5 8q-46 6 -68 -19.5t-22 -66.5zM1307 184q0 9 -1 52.5t0 70.5t5 53q16 96 86 123q84 22 135 -12
q23 -14 37.5 -35t20 -51t6.5 -49t1 -54v-12h-98q0 61 -4 90q0 22 -29 37q-18 4 -53 -20q-2 -20 -2 -44.5t1 -52t1 -38.5v-144q0 -5 -0.5 -19.5t-1 -25.5t1 -26t5 -25.5t10.5 -19t18 -11.5q22 -9 36 0.5t19 37.5t6 43t0 43v11h-61v91h156v-316h-78l-4 21q-27 -27 -72.5 -28.5
t-75.5 20.5q-52 26 -61 122q-3 20 -4 43t-1 40t0.5 44t0.5 41zM1341 -750q0 -3 -0.5 -25.5t0 -29.5t2.5 -26t7.5 -27t13.5 -19t22 -15.5t33 -4.5q23 0 38.5 9t23 20.5t11.5 33t4.5 34.5t0.5 38v8v19v21.5t-1 19.5t-3 21t-5.5 17.5t-9 16.5t-13 12t-18.5 9.5t-24 3.5
q-24 3 -40 -3.5t-24.5 -17t-12.5 -33t-4.5 -37.5t-0.5 -45zM1350 1671h69v254q4 0 29.5 -0.5t36 0t30 3t32.5 9t24 17.5q44 32 49 94.5t-25 110.5q-17 38 -49 49.5t-82 11.5h-114v-549zM1354 1253q0 -94 12 -135q21 -54 80 -73.5t108 4.5q24 8 41.5 22.5t27.5 36.5t16.5 42
t8.5 50.5t2.5 48.5t-0.5 50.5t-1 43.5v250h-78v-200v-176q0 -25 -4.5 -47.5t-16 -44t-31.5 -28t-51 0.5q-7 4 -13 9t-10.5 9.5t-8 12.5t-5.5 12.5t-3.5 15t-2.5 14t-1.5 15.5t-0.5 14.5v15v13.5v364h-69v-340zM1382 -729q0 4 -1 12.5t-1 16t2 12.5q0 25 14.5 40t39.5 1
q8 -3 13 -13.5t6.5 -26t1.5 -28t-0.5 -30t-0.5 -21.5v-6v-17t-0.5 -18t-2 -19t-4 -16.5t-7 -14t-10 -8t-14.5 -2.5t-19 7q-11 4 -16 22t-5 36t2 43t2 30zM1419 1982v181q7 0 20.5 0.5t21 0.5t19 -1t21.5 -4q16 -4 26 -13.5t13.5 -25.5t4.5 -26.5t1 -29.5q0 -67 -45 -77
q-18 -5 -82 -5zM1448 -545h41v131h49v25h-49v94h65v29h-106v-279zM1534 -893h33v205l45 -205h28l46 205v-205h28l-4 279h-37l-45 -226l-49 226h-45v-279zM1579 -397v-18.5v-21t0.5 -20t2 -21t4 -18.5t6.5 -17.5t10 -14t13.5 -12t18 -6.5t23.5 -3q28 0 45 12.5t23.5 37.5
t8 42t1.5 47q0 79 -13 107q-18 37 -61 41q-24 1 -40 -7t-24 -19t-12.5 -32.5t-5 -35.5t-0.5 -41zM1616 -389v45q0 27 17 43t40 2q9 -3 14.5 -13.5t7 -26t1.5 -28.5t-1 -29.5t-1 -21.5q0 -67 -7 -85q-12 -31 -47 -17q-14 6 -20.5 25t-7 36t1.5 42t2 28zM1622 -193l164 754h94
l-172 -754h-86zM1673 1671h213v53h-139v201h111v57h-111v181h135v57h-209v-549zM1706 1196q3 -67 42.5 -111.5t104.5 -44.5q66 0 102.5 51t24.5 117q-4 25 -13.5 45t-30 41.5t-28.5 29t-38 32.5q-6 5 -17.5 14t-18 14.5t-16.5 14.5t-15.5 15.5t-11.5 16.5t-8.5 18.5
t-2.5 19.5t4 22q3 25 22.5 38t46.5 7q53 -9 62 -102l57 24q0 81 -45 115q-58 35 -135 20q-62 -18 -79.5 -85t18.5 -119q11 -18 29 -36.5t42.5 -39.5t34.5 -31q8 -5 15.5 -10.5t14.5 -12.5t11 -12t11 -14t9 -12q17 -25 18 -55t-22 -52q-19 -18 -45 -16.5t-41 20.5
q-7 7 -12 16t-7.5 20.5t-4 19.5t-2.5 23t-2 20zM1763 -893h29l4 205l41 -205h29l49 205l4 -205h25l-5 279h-36l-50 -226l-49 226h-41v-279zM1772 -545h36v131h29l37 -131h45l-45 135q41 16 38.5 66t-38.5 70q-13 7 -28.5 9t-42 0.5t-31.5 -1.5v-279zM1800 627h37v135h14h14
t12.5 0.5t14 2.5t13 5t14.5 8q14 14 16.5 48.5t-4.5 58.5q-7 11 -18.5 17.5t-28.5 8.5t-28 2.5t-31.5 0t-24.5 -0.5v-286zM1808 -389v94q33 0 49.5 -8.5t16.5 -36.5q0 -30 -17.5 -39.5t-48.5 -9.5zM1837 786v103q23 0 33.5 -1.5t19 -12t8.5 -31.5q0 -41 -20 -53
q-10 -5 -41 -5zM1894 94l95 4q0 -73 20 -106q3 -13 13 -20t24 -1q9 2 14 10t5.5 15.5t0.5 23.5q0 23 -11.5 47.5t-19.5 35.5t-34.5 39t-28.5 30q-7 11 -26 30.5t-23 30.5q-37 47 -29 140q3 67 65 100.5t124 5.5q35 -15 54 -49t23.5 -66t4.5 -77l-99 -4v13v15.5t-0.5 15.5
t-1.5 16l-2.5 15t-4 14.5t-6.5 11t-9 9t-12 4.5q-19 2 -29.5 -13t-10.5 -33t3 -32q3 -9 7.5 -17.5t11 -16t10.5 -11.5l12.5 -12.5l11.5 -11.5l49 -53q85 -92 74 -201q-3 -41 -32.5 -76t-74.5 -47q-44 -6 -85 13.5t-62 60.5q-21 47 -21 147zM1944 1671h81v258h58l74 -258h69
l-69 275q43 16 58.5 68t-0.5 107t-54 79q-21 10 -52 15t-50 6t-62.5 0t-52.5 -1v-549zM1968 627h107v32h-74v254h-33v-286zM1989 -893h110v25h-69v110h57v29h-57v86h69v29h-110v-279zM2009 -295h49v-250h41v250h53v29h-143v-29zM2025 1982v181q56 0 78 -9q37 -13 37 -73
q6 -32 -3.5 -57t-33.5 -37q-36 -5 -78 -5zM2046 1049h213v45h-139v204h110v58h-110v176h139v61h-213v-544zM2103 627h107v32h-74v103h62v29h-62v98h74v24h-107v-286zM2128 -893h41v135h33l32 -135h37l-41 139q36 12 36 62t-32 69q-10 6 -24.5 8.5t-25 2.5t-29 -1t-27.5 -1
v-279zM2169 -729v86q32 0 46.5 -8.5t14.5 -36.5t-13.5 -34.5t-47.5 -6.5zM2169 -545h37v131h69v-131h45v279h-45v-123h-69v123h-37v-279zM2185 381v102h275v-102h-86v-500h-103v500h-86zM2226 627h37l8 78h62l12 -78h41l-57 286h-41zM2275 729l33 131l21 -131h-54z
M2275 1823q3 -67 43.5 -111.5t108.5 -44.5q66 0 102.5 49.5t24.5 118.5q-5 17 -12 32.5t-22 34t-21.5 25.5t-29.5 29.5t-26 25.5q-24 17 -36 27.5t-29.5 29t-23 39.5t-1.5 44q3 21 24 33t50 12q7 -2 12.5 -5t10 -6.5t9 -9.5t7 -9.5t6 -11.5t4.5 -12t3.5 -13t3.5 -12t3 -13
t2 -11l58 21q-9 88 -49 115q-24 18 -64.5 22t-67.5 -6q-43 -10 -65.5 -45.5t-20.5 -80t25 -83.5q15 -22 56.5 -58t45.5 -40q36 -27 62 -62q19 -26 20 -58t-20 -48q-19 -18 -45 -16.5t-45 20.5q-22 22 -29 98zM2308 -700q0 -12 -1.5 -38.5t-2 -44.5t2 -41.5t9.5 -37.5
t23 -24.5t39 -10.5q31 0 48 17.5t21 38t4 50.5h-41q0 -6 1.5 -18t0.5 -20t-6 -15q-3 -18 -23.5 -20.5t-29.5 12.5q-7 9 -10 23t-3.5 25t0.5 28.5t1 21.5t-1 22.5t-0.5 30t3.5 25.5t10 21q9 16 29.5 15t23.5 -19q5 -7 6 -16t-0.5 -20.5t-1.5 -13.5h41q0 19 -1.5 32t-7 28.5
t-19 24.5t-33.5 10q-42 6 -62 -19.5t-20 -66.5zM2361 -545h107v21h-66v110h58v25h-58v94h66v29h-107v-279zM2402 709q3 -35 24 -58.5t54 -23.5q37 0 55.5 28.5t6.5 65.5q-4 33 -62 70q-2 2 -13 15t-15 19t-8 17.5t-1 21.5q5 33 45 25q12 -15 21 -53l33 4q0 21 -10.5 41
t-30.5 28q-15 6 -37 3.5t-37 -11.5q-28 -30 -21 -62.5t37 -56.5q6 -7 25 -24.5t30 -33t11 -32.5q0 -39 -45 -33q-21 8 -21 62zM2464 1270q0 -78 4 -115q9 -55 48.5 -85t98.5 -30q57 0 94 28.5t46 82.5q5 18 6 38t-0.5 49.5t-1.5 43.5q0 15 4 70.5t1 95t-18 72.5
q-28 80 -143 73q-104 0 -131 -90q-7 -33 -9 -69t-0.5 -94.5t1.5 -69.5zM2492 -893h37v279h-37v-279zM2499 -119v602h176q40 0 73.5 -39.5t32.5 -115.5q0 -120 -69 -168l65 -279h-98l-53 262h-29v-262h-98zM2542 1217v98q0 17 -2 53t-2 65.5t4 53.5q9 25 21 35.5t36 13.5
q12 6 31 1t34 -17q6 -6 10 -13.5t6.5 -13t3.5 -16t1 -14.5v-17.5v-15.5v-197q0 -5 1 -17.5t1 -22.5t-2 -17q-9 -57 -41 -70q-27 -20 -70 0q-8 3 -13.5 8.5t-9 14t-5.5 14.5t-3 19t-1 17.5v20v17.5zM2558 -893h41l12 74h62l8 -74h37l-62 279h-41zM2574 627h115v32h-74v103h58
v29h-58v98h70v24h-111v-286zM2587 -545h28v131h58v25h-58v94h78v29h-106v-279zM2597 229h53q18 9 25 50.5t-5 80t-40 37.5h-33v-168zM2607 1888q0 -69 4 -102q18 -119 144 -119q120 0 143 111q8 37 8 127q0 12 2.5 71.5t-0.5 96.5t-14 69q-34 82 -148 82q-110 -7 -131 -94
q-7 -33 -9 -70.5t-0.5 -98.5t1.5 -73zM2615 -799l25 131l24 -131h-49zM2685 1839v98q0 14 -2.5 54.5t-1.5 70.5t8 52q12 43 53 49q44 7 66 -21q12 -9 17.5 -26.5t6 -28.5t0.5 -35v-250q-2 -14 -3.5 -22t-6 -19t-12 -18.5t-19.5 -13.5t-32.5 -6t-32.5 6q-7 3 -12.5 7t-9.5 8
t-7 10.5t-5 11t-3.5 12.5t-2 12t-1 13t-0.5 12v12.5v11.5zM2718 -479q6 -40 36 -59t70 -7q15 6 24 18.5t12 31.5t3.5 34t-1 38t-1.5 30v127h-29v-123q0 -2 0.5 -17.5t0 -24t-1.5 -25t-4 -26.5t-8 -20.5t-13 -16t-19 -5.5q-14 0 -22.5 10t-11.5 29t-4 33t0 37.5t1 25.5v123
h-32v-148q0 -6 -1 -20t-1 -25t2 -20zM2746 -893h111v25h-74v254h-37v-279zM2783 913l62 -286h37l57 286h-33l-45 -204l-37 204h-41zM2818 98v385h102v-372q0 -96 5 -119q7 -10 21 -17t28 -4q22 11 26 21q2 6 2 16q4 29 4 90v385h99v-385v-11q0 -35 -1 -54.5t-6 -49.5
t-19 -50.5t-36 -34.5q-57 -35 -139 -13q-75 28 -82 123q-4 33 -4 90zM2841 1049h57v368l164 -368h53v544h-70v-364l-155 364h-49v-544zM2906 -545h107v21h-66v258h-41v-279zM2951 -614l62 -279h28l66 279h-37l-41 -205l-45 205h-33zM2972 627h41v286h-41v-286zM2984 1671h61
v369l156 -369h49v549h-65v-365l-152 365h-49v-549zM3041 -545h111v21h-70v258h-41v-279zM3049 709q7 -82 74 -82q36 0 53.5 28t8.5 66q-1 9 -5 17.5t-12 17t-12.5 12.5t-16 13t-12.5 10q-4 5 -12 12.5t-13.5 13.5t-11.5 15t-5.5 15.5t5.5 16.5q3 17 16 23t21 2q7 -6 12 -14
t6.5 -12t4.5 -15l2 -12l33 4q-9 56 -37 69q-33 13 -78 -8q-19 -17 -21 -40.5t8.5 -43t28.5 -35.5q3 -3 15 -12.5t16.5 -14t13.5 -14t12.5 -16t6.5 -15.5t2 -18q0 -18 -10.5 -27t-26.5 -6q-14 5 -21.5 24.5t-7.5 37.5zM3135 -893h111v25h-70v110h58v29h-58v86h70v29h-111
v-279zM3150 0v365q0 52 36.5 86t86.5 41q35 7 69 -13q47 -22 62.5 -72t15.5 -120l-94 -4v8q0 21 -0.5 33t-4 30.5t-12.5 29t-24 13.5q-13 3 -25 -7t-12 -30v-356q0 -20 12 -30t25 -7q42 7 41 107v4v4l94 -4q0 -71 -15.5 -121t-62.5 -72q-32 -19 -69 -12q-50 7 -86.5 41
t-36.5 86zM3197 1049h213v45h-139v499h-74v-544zM3222 627h40v286h-40v-286zM3246 -545h33l16 70h58l12 -70h41l-62 279h-45zM3275 -893h41v135h32l37 -135h33l-33 139q33 13 31 62t-31 69q-12 6 -27 8.5t-26 2.5t-30 -1t-27 -1v-279zM3287 889h53v-262h33v262h45v24h-131
v-24zM3299 -446l25 127l24 -127h-49zM3308 1671h69l29 131h110l25 -131h74l-115 549h-78zM3316 -729v86q32 0 46.5 -8.5t14.5 -36.5t-13.5 -34.5t-47.5 -6.5zM3414 1860l49 254l45 -254h-94zM3430 -545h37v189l74 -189h29v279h-33v-185l-82 185h-25v-279zM3430 1593l78 -245
q27 -56 37 -107q2 -11 2 -25t-1 -31.5t-1 -25.5v-110h78v131q0 5 -1.5 20.5t-0.5 28.5t6 24l37 111q62 194 74 229h-74l-82 -262l-82 262h-70zM3447 -815q3 -36 23 -59t55 -23q36 0 52.5 27t4.5 59q0 18 -8 31.5t-24 29t-21 21.5q-4 4 -13.5 12.5t-13 12.5t-11 13.5t-6 15
t2.5 16.5q14 28 45 16q6 -3 9.5 -9.5t5 -12t3 -16.5t2.5 -15l29 12q0 55 -33 66q-15 9 -37 6t-41 -15q-28 -25 -21.5 -58.5t34.5 -64.5q69 -44 69 -81q0 -20 -12 -29t-33 0q-24 10 -24 53zM3465 -119v602h103v-254h16l86 254h98l-102 -303l102 -299h-98l-86 254h-16v-254
h-103zM3615 -545q3 0 24 -1t32 0t27.5 5t26.5 13q12 6 19 16t9 24.5t2.5 25t-0.5 28.5t-1 24q0 9 1.5 32t1.5 36.5t-4.5 29.5t-14.5 25q-13 10 -32 15.5t-29 6t-35.5 0t-26.5 -0.5v-279zM3623 -893h33v279h-33v-279zM3652 -524v229q23 0 33.5 -1.5t20 -11t11.5 -28.5v-143
q-4 -21 -14 -31.5t-20 -12t-31 -1.5zM3672 1671h217v53h-139v496h-78v-549zM3697 -750v-7q0 -24 0.5 -37.5t4.5 -36t12 -34.5t24.5 -22t40.5 -10q13 0 24 2.5t18.5 9t13 12t8.5 16.5t5.5 18t3 21.5t0.5 20.5v22.5v20.5t0.5 29t0 33t-4 27t-10 26.5t-19.5 15.5t-32 9
q-26 3 -44 -3.5t-27 -17t-13.5 -33t-5 -37.5t-0.5 -45zM3742 127v106h127v-106h-127zM3746 -729v41q0 26 12.5 40.5t40.5 0.5q7 -3 11 -13.5t5.5 -26t1.5 -28t-1 -29.5t-1 -22v-6v-17t-0.5 -18t-2 -19t-4 -16.5t-7 -14t-10 -8t-14.5 -2.5t-19 7q-15 5 -18 29t1.5 61t4.5 41z
M3779 1049h73v73h-73v-73zM3779 1593l24 -430h25l24 430h-73zM3897 -893h25v193l86 -193h29v279h-33v-189l-82 189h-25v-279zM3930 -119v602h172q43 0 79 -39.5t36 -115.5q0 -106 -53 -135q57 -40 57 -152q0 -79 -34 -119.5t-77 -40.5h-180zM4028 -29h45q26 0 37.5 29.5
t8.5 69.5q-8 73 -54 73h-37v-172zM4028 229h37q45 0 45 78q0 90 -49 90h-33v-168zM4239 -119l111 602h94l103 -602h-99l-20 144h-66l-20 -144h-103zM4379 111h32l-16 122zM4563 94l94 4q0 -71 21 -106q8 -32 36 -21q21 4 21 49q0 23 -11.5 47.5t-19.5 35.5t-34.5 39
t-28.5 30q-7 11 -26 30.5t-23 30.5q-37 47 -29 140q3 67 64.5 100.5t123.5 5.5q35 -15 54 -49t23.5 -66t4.5 -77l-98 -4v13v15.5t-0.5 15t-1.5 17t-2.5 15t-4.5 14l-7 10.5t-9 9.5t-12 4.5q-19 2 -29.5 -13t-10.5 -33t3 -32q3 -9 7.5 -17.5t11 -16t10.5 -11.5l12.5 -12.5
l11.5 -11.5l50 -53q84 -91 73 -201q-3 -41 -32 -76t-74 -47q-44 -6 -85.5 13.5t-62.5 60.5q-20 45 -20 147zM4880 -119v602h234v-102h-135v-131h110v-107h-110v-159h135v-103h-234z" />
    <glyph glyph-name="colon" unicode=":" horiz-adv-x="841" 
d="M297 -39q-86 0 -147.5 61.5t-61.5 147.5t61.5 147.5t147.5 61.5t147.5 -61.5t61.5 -147.5t-61.5 -147.5t-147.5 -61.5zM297 862q0 86 61.5 147.5t147.5 61.5t147.5 -61.5t61.5 -147.5t-61.5 -147.5t-147.5 -61.5t-147.5 61.5t-61.5 147.5z" />
    <glyph glyph-name="semicolon" unicode=";" horiz-adv-x="839" 
d="M-8 -160q181 53 266 197q-50 17 -86.5 63.5t-36.5 116.5q0 75 64 132t145 57q76 0 132 -56t56 -133q0 -63 -35 -128.5t-92 -120t-126.5 -100t-141.5 -74.5t-133 -36zM297 870q0 86 61.5 147.5t147.5 61.5t147.5 -61.5t61.5 -147.5t-61.5 -147t-147.5 -61t-147.5 61
t-61.5 147z" />
    <glyph glyph-name="less" unicode="&#x3c;" horiz-adv-x="1005" 
d="M66 0l-58 74l529 426l-213 381l122 102l426 -442l-57 -152z" />
    <glyph glyph-name="equal" unicode="=" horiz-adv-x="1599" 
d="M31 287l49 184h1393l-50 -184h-1392zM129 659l49 185h1393l-49 -185h-1393z" />
    <glyph glyph-name="greater" unicode="&#x3e;" horiz-adv-x="1005" 
d="M958 983l58 -74l-529 -426l213 -381l-122 -102l-426 442l57 152z" />
    <glyph glyph-name="question" unicode="?" horiz-adv-x="999" 
d="M446 0q-86 0 -147 61.5t-61 147.5t61 147.5t147 61.5t147.5 -61.5t61.5 -147.5t-61.5 -147.5t-147.5 -61.5zM326 1085q-72 68 -45 191q29 132 155 248q172 158 429 190q89 12 184 6q89 -5 161 -38.5t115.5 -91t59 -129.5t-9.5 -161t-89 -178q-44 -59 -107.5 -109.5
t-127.5 -85.5t-132.5 -68.5t-129 -67.5t-110 -73.5t-82 -94.5t-40.5 -123h-160q15 98 45 171.5t68.5 118.5t93.5 91t109.5 83t128 102.5t137.5 141.5q81 95 98.5 178.5t-30 135t-150.5 55.5q-162 6 -285 -88q-84 -64 -101 -134q-16 -66 41 -88q41 -16 110 -3
q19 -64 -10.5 -121t-83 -86.5t-122 -24.5t-120.5 53z" />
    <glyph glyph-name="at" unicode="@" horiz-adv-x="1988" 
d="M748 0q-143 0 -228.5 79t-95 220.5t67.5 337.5q49 122 122 221.5t151.5 160.5t156 93.5t143.5 32.5q142 0 223 -90l12 41h271q-41 -147 -114 -442.5t-85 -356.5q-11 -47 -0.5 -81t43.5 -34q52 0 102.5 32.5t97 92.5t80 115t72.5 129l9 16q55 129 73 250t1.5 220
t-64.5 181t-121.5 136.5t-174 81t-218.5 18.5q-167 -12 -342 -88t-325.5 -198t-271.5 -290.5t-181 -353.5q-46 -148 -48.5 -286t36.5 -248t110.5 -192.5t177 -127.5t231.5 -45q240 0 484 148l57 -95q-265 -165 -541 -165q-123 0 -231 38.5t-189.5 107t-139.5 166t-84.5 212
t-19.5 248.5t50 272q85 267 282 494.5t445.5 363t491.5 150.5q136 9 255 -24t207 -98.5t147 -164t81.5 -215.5t4 -256.5t-80.5 -284.5q-40 -94 -117 -213q-89 -145 -184 -227t-217 -82q-101 0 -168 57.5t-90 151.5q-155 -209 -354 -209zM778 623q-38 -106 -50 -191.5
t0.5 -138t39.5 -81.5t66 -32q70 -8 150.5 52t123.5 176q114 416 133 483q-17 44 -43.5 75t-54.5 40q-83 28 -184.5 -70t-180.5 -313z" />
    <glyph glyph-name="A" unicode="A" horiz-adv-x="2002" 
d="M1790 -319q-98 16 -176 73.5t-125 133.5t-78.5 174.5t-44.5 187.5t-16 182q-146 -29 -412 -6q-36 -71 -56 -109t-58 -106t-66.5 -110t-72 -99.5t-84 -97t-93 -79.5t-107.5 -69q-54 -28 -111 -39.5t-108 -7t-98 22t-84 46.5t-64.5 68t-41 83.5t-10.5 96.5t24 105
q13 30 50 68t56 20q0 -67 34.5 -107t94.5 -40q64 0 124 24t98 49t89.5 87t70 88.5t67.5 102.5l7.5 10.5t6 9t6.5 10.5q-131 2 -269 -29t-239 -94q-10 -3 -20 4q31 74 105.5 134t167.5 95.5t187.5 55.5t178.5 22q46 78 104 188.5t104 199t104.5 192.5t118.5 189.5t131 168
t158.5 150.5t186.5 116q-116 41 -240.5 58t-250 7.5t-242 -60t-199.5 -138.5q-113 -119 -93 -186q13 -44 73 -41q48 2 100 35q13 4 17 -7q3 -3 -7.5 -23.5t-33 -49.5t-51.5 -59t-70 -55.5t-82 -35.5q-86 -21 -158.5 15.5t-95 112.5t26.5 184q103 203 381 337
q180 81 379.5 105.5t400 -16t364.5 -144.5q114 107 230 123q11 0 13.5 -7.5t-7.5 -12.5q-44 -32 -66 -56q-102 -98 -179 -237t-121 -292.5t-66 -325t-21.5 -335t19.5 -321.5q18 -156 65.5 -268t159.5 -191q25 -17 51 -30t63.5 -22t54.5 -12.5t67.5 -11t58.5 -8.5
q7 -1 10 -8.5t0 -13.5q-64 -95 -170.5 -143.5t-220.5 -30.5zM1034 629q245 -24 320 -25q2 58 14 168q87 616 387 1010l-33 22q-102 -80 -188.5 -187t-156 -236.5t-119.5 -240.5t-115.5 -265.5t-108.5 -245.5z" />
    <glyph glyph-name="B" unicode="B" horiz-adv-x="2154" 
d="M39 -172q-47 47 -66 116.5t2 135.5t82 96q11 11 23 -4q-13 -59 23.5 -103t109.5 -44q54 0 101.5 27.5t84 77t67 106.5t56.5 129.5t44.5 131t38.5 126t32 100.5q23 64 64.5 197t80.5 236t90 198q232 437 543 444q11 3 13.5 -8t-5.5 -16q-141 -60 -233 -213
q-73 -132 -117.5 -278.5t-88 -367t-64.5 -303.5q-4 -18 -19 -82t-20.5 -85t-20 -77t-24 -82t-26 -75t-32 -80t-36 -73t-45 -78.5t-52.5 -73.5q-50 -69 -128 -116t-161.5 -62.5t-169.5 9.5t-147 91zM303 1593q40 89 129 168.5t197.5 133.5t220.5 88.5t209 44.5q83 9 173 7
t177 -10t173.5 -32t161 -58.5t140 -89t111.5 -123.5q66 -100 82.5 -213.5t-15.5 -217t-96 -193t-161.5 -151.5t-209.5 -83q77 -28 139 -85.5t100 -133.5t56.5 -164t13 -182t-33.5 -182q-54 -170 -193.5 -281t-314.5 -121q-97 -6 -176 20.5t-126.5 73t-72.5 108t-21.5 123.5
t35.5 121t89 99q51 34 114.5 47t122.5 4q12 -3 12 -14q-5 -10 -10 -10q-67 -23 -116.5 -64t-59.5 -96q-7 -54 15.5 -88t61.5 -42.5t84 -1t83 29.5q190 113 223 381q17 134 -55 250t-203 157q-171 -89 -269 -53q-55 19 -58 67q-4 50 51 86q92 59 260 15l6 -2q259 145 368 336
q51 97 60 194t-22.5 180t-105.5 148.5t-182 99.5q-249 77 -521 -28q-176 -67 -288 -179q-85 -86 -73 -139q9 -37 69 -41q72 0 99 37q6 6 12 3.5t7 -9t-3 -12.5q-29 -71 -98 -131t-153 -82.5t-165 20.5q-46 26 -66.5 75t-15.5 100.5t29 94.5z" />
    <glyph glyph-name="C" unicode="C" horiz-adv-x="1507" 
d="M1094 -598q-103 -23 -206.5 -19.5t-200.5 25t-186.5 69.5t-163.5 113.5t-133 157.5t-95 201q-58 176 -68 368.5t21.5 372t99.5 352.5q239 576 635 840q76 53 163.5 84.5t173 39t167 -12.5t145 -64t107 -121t53.5 -178q9 -89 -9.5 -174.5t-58 -152t-94.5 -120.5
t-119.5 -80t-132.5 -30t-133 29q-57 26 -81.5 82t-6 122t77.5 115q8 8 18 4q2 -2 2 -4q-8 -39 9 -76.5t48 -37.5q44 0 97 43.5t91.5 108.5t57.5 141t-4 141q-41 112 -164.5 108.5t-277.5 -112.5q-125 -89 -229.5 -231.5t-174.5 -307t-106 -347.5t-32 -353t56 -325t150 -261
q91 -99 223.5 -152.5t270.5 -55.5t277 41t247 128q8 3 14.5 -2t3.5 -14q-23 -90 -99.5 -185t-193 -169.5t-239.5 -100.5z" />
    <glyph glyph-name="D" unicode="D" horiz-adv-x="2215" 
d="M1329 -219q-88 -22 -168 -25t-148.5 9.5t-141.5 45t-137 73t-144 100.5q-52 -62 -130 -95.5t-155 -33t-143 47t-92 134.5q-12 49 -4 94t38.5 79.5t67.5 55t83.5 19.5t86.5 -27q47 55 88 130.5t63 131t56.5 153t52.5 142.5q103 273 115 303q140 343 303 503
q167 163 381 177q6 2 9.5 -3t3 -11.5t-6.5 -9.5q-107 -51 -185.5 -147.5t-125.5 -217t-81.5 -258t-64.5 -285.5t-62.5 -284t-88 -268t-129.5 -224q11 -6 34 -19t38.5 -21t40.5 -21t45 -21t46.5 -18t51 -15t51.5 -9t55.5 -3.5t57.5 4.5q117 18 225.5 112t187.5 232.5
t135 311.5t77.5 344.5t5 337t-73.5 284.5q-40 83 -102.5 146t-137.5 100t-161.5 54t-175.5 12.5t-177 -29.5q-134 -38 -232 -142q-78 -82 -77 -144q1 -59 78 -59q10 0 20 1q44 8 63 31q6 7 16 1t5 -14q-59 -129 -182 -172q-105 -36 -195 4q-86 39 -100 123q-17 97 73 217
q175 217 492 295q106 25 219.5 31t233 -11t229.5 -56.5t208.5 -113.5t172 -174t117 -245.5t45.5 -321.5q2 -156 -30.5 -327t-98 -336t-155 -304.5t-211 -239.5t-255.5 -134z" />
    <glyph glyph-name="E" unicode="E" horiz-adv-x="1796" 
d="M51 -66q13 -20 97 38t108 89q-43 4 -90.5 -8t-83 -44t-31.5 -75zM-104 -211q-55 79 -38.5 160.5t79 147.5t139.5 87q99 37 286 29q49 79 99 177t81 166.5t85 193.5q-186 7 -338 -74q-3 -3 -8.5 -1.5t-8.5 5.5q21 57 69 103.5t109 74.5t125 44.5t127 21.5q37 84 50.5 114
t49 108t55.5 115.5l56 105t65 110t67 97t78.5 99.5t84.5 86q-204 53 -296 63q-246 28 -397 -107q-2 -3 -5 -5q-6 -7 -14.5 -1.5t-3.5 13.5q43 99 117.5 166t163.5 98t201.5 42t221.5 2.5t233 -25t228 -36t214 -35.5t183 -19q112 -9 239.5 -3t231.5 38q24 8 141 61
q27 6 31 -31q6 -56 -33 -137l-10 -20q-39 -69 -99.5 -118t-142 -72.5t-161.5 -36t-187.5 -4.5t-188 16.5t-195.5 33t-177.5 39.5t-163.5 41q-227 -346 -364 -813q65 -5 183.5 -25t199.5 -31t184 -4t182 44q13 6 19 -6q-20 -43 -53.5 -77.5t-72 -57t-91.5 -37t-100 -22.5
t-109.5 -9.5t-107.5 -0.5t-107.5 7t-96.5 10t-85 11q-34 -112 -56 -180.5t-60.5 -169.5t-78.5 -185q94 -12 218.5 -54t226.5 -85t230.5 -82.5t233.5 -48.5q131 -10 267 6.5t204 50.5q8 2 13.5 -2.5t5.5 -11.5q12 -77 -26 -150.5t-102 -122.5t-138 -69q-90 -24 -185.5 -25.5
t-190 18.5t-183.5 49t-185.5 72.5t-175 82t-173.5 85t-161 74.5q-47 -67 -91.5 -115.5t-101 -90.5t-123.5 -61t-143 -15q-165 4 -249 108z" />
    <glyph glyph-name="F" unicode="F" horiz-adv-x="2088" 
d="M2415 2017q11 7 18 4q-22 -104 -61 -185t-92 -135t-114 -90.5t-137 -55t-151 -24.5t-164 -3q-179 -198 -317 -731q45 -5 124.5 -19t136.5 -21.5t128 -11.5t136.5 7.5t125.5 38.5q13 6 16 -7q-128 -257 -714 -188q-16 -61 -36 -153.5t-33 -153t-38.5 -141.5t-56 -141
t-82 -126t-119.5 -121q-50 -41 -106.5 -67.5t-110 -36.5t-106.5 -7.5t-96 20t-78.5 45.5t-54 69t-22 90.5t16.5 110.5q14 46 46.5 71t55.5 6q-6 -63 31 -90.5t88 -20.5t96 36q47 30 89.5 88.5t77 136t60.5 147t55.5 154.5t45.5 125q-92 11 -160.5 12t-152.5 -17t-162 -59
q-8 -5 -18 5q34 72 99 124t146 78t159.5 37.5t158.5 9.5q32 83 59 145.5t70.5 147t87.5 151.5t106 138t131 127q-88 8 -263 32.5t-304.5 34.5t-232.5 -1q-193 -20 -314 -104t-139 -198q-6 -4 -13 -0.5t-9 9.5q-38 104 -9 215.5t101 175.5q41 37 91.5 65.5t99 48.5t112 33
t113.5 21t123 10t120.5 1.5t125.5 -5t118.5 -8.5t119 -11t109.5 -10q125 -10 219 -13t195 3.5t178 26.5t149.5 58.5t127.5 96.5z" />
    <glyph glyph-name="G" unicode="G" horiz-adv-x="1568" 
d="M705 -766q-83 -60 -186 -88.5t-204.5 -24.5t-198 39.5t-170 96t-118.5 154.5t-45 206q0 16 6 49t15.5 68t24 59t28.5 21q0 -181 133 -293q69 -58 167.5 -77.5t190 -3.5t160.5 58q50 30 96 84t79 111.5t67 138.5t54 140.5t46 142.5q-83 -65 -190.5 -100t-211.5 -34
t-195 49.5t-136 139.5q-64 129 -74 279.5t22.5 286t98.5 270.5q119 245 340.5 497t441.5 381q237 141 459 109q156 -21 240 -128t79 -270q-2 -91 -30.5 -178t-72.5 -153.5t-102 -114t-117 -66t-119.5 -2.5t-108.5 70q-45 60 -26.5 142.5t73.5 127.5q10 10 20 0
q39 -121 124 -72q69 40 133 163q14 28 26 57q15 38 16.5 82t-12 85t-52 69t-96.5 32q-175 10 -349 -107.5t-302 -310.5q-295 -448 -301 -897q-3 -98 59 -209q34 -59 115 -75t167 5.5t149 65.5q6 15 28 72t31.5 81t32.5 78t38 82t39 73t45.5 71t48 55t55 46t58.5 26
q59 18 97 2t55 -50t9 -85.5t-40 -104.5q-83 -136 -248 -288q-33 -99 -63.5 -243.5t-55 -257.5t-63.5 -234t-108.5 -223t-171.5 -175z" />
    <glyph glyph-name="H" unicode="H" horiz-adv-x="2205" 
d="M627 -238q-62 -37 -140 -43.5t-148.5 18.5t-126 69.5t-79 114.5t-2.5 149q12 34 40 71t48 21q8 -50 48 -81.5t88 -34t94 14.5q45 20 81.5 60t63.5 94t46.5 103t42 112t38.5 98q-56 -2 -103.5 -14t-90.5 -36.5t-70 -43t-71.5 -54.5t-66.5 -52q-11 -11 -18 2
q48 145 179 259.5t308 135.5q24 62 55.5 151.5t55 158t57.5 155t65.5 154.5t75.5 144t91.5 135.5t110 117t133.5 100.5q-94 44 -206 53t-214 -12t-196.5 -62.5t-160.5 -94.5t-99.5 -113.5t-18.5 -114.5q12 -46 68.5 -46t113.5 44q8 3 14 -3t0 -15q-35 -77 -76.5 -130.5
t-105.5 -84.5q-61 -29 -125.5 -22t-107 45.5t-56.5 102.5t25 150q54 120 157 216t231 154t270 86.5t283.5 20.5t262.5 -49q79 -29 123 -65q21 -22 24 -47t-9.5 -42.5t-32 -28t-44.5 -5t-45 27.5q-75 -80 -132 -179.5t-96.5 -216.5t-65 -213t-57.5 -235t-54 -217q16 0 70 0.5
t74 1t66.5 2t73 4.5t65.5 8t72 12.5t66 17.5q43 165 106 315.5t149.5 293.5t204 264t255.5 206q87 54 174 74q21 11 106 17q96 8 88 -17q-1 -5 -8 -11q-120 -34 -229 -114t-192.5 -189.5t-153 -240t-117.5 -272t-78.5 -278.5t-42.5 -266q-39 -440 119 -610q34 -37 96 -60.5
t129 -23.5q6 0 7.5 -9t-4.5 -15q-84 -81 -208 -88.5t-221 59.5q-293 199 -221 772q-72 -32 -162 -47t-169.5 -15t-165.5 1q-10 -32 -31 -105.5t-32.5 -112.5t-35 -106.5t-42.5 -109t-50 -98t-63 -95.5t-76 -79t-94 -69z" />
    <glyph glyph-name="I" unicode="I" horiz-adv-x="1392" 
d="M356 -266q-67 17 -121.5 68.5t-80 114t-12.5 131.5t71 116q6 5 14 3.5t11 -7.5q0 -62 44 -100.5t106 -34t108 54.5q44 48 83.5 110t74 138t57.5 134t56.5 148.5t49.5 130.5q27 70 72 197.5t75 211t82 197.5t103.5 194.5t128.5 162.5t168 137q-312 98 -595 0
q-176 -61 -277 -173q-77 -85 -62 -147q13 -59 111 -59q68 0 110 33q16 4 19 -6q-14 -91 -109.5 -174.5t-193.5 -83.5q-74 0 -125 38t-64 106t27 163q46 105 138 194.5t207.5 149.5t251.5 96t267 40.5t257 -24.5t220 -91q36 -35 22.5 -75.5t-51.5 -47.5t-75 26
q-144 -125 -254 -478q-44 -142 -136 -531q-96 -403 -169 -594q-132 -345 -324 -441q-125 -62 -285 -28z" />
    <glyph glyph-name="J" unicode="J" horiz-adv-x="1591" 
d="M651 -680q-98 -53 -212 -68.5t-229.5 11t-207.5 94.5q-70 52 -117 130.5t-64 163t2.5 172t76.5 152.5q51 57 119 89.5t141 33.5q11 0 14 -12q-46 -47 -75 -85t-50.5 -84t-18 -94t32.5 -97q40 -68 106 -104t138 -37t144 22t129 67q106 80 194.5 221.5t151.5 308t120 354.5
t113 377.5t117 359t146.5 316.5t187.5 234q-89 29 -196.5 33.5t-209.5 -12t-196.5 -52t-161.5 -83t-99.5 -109t-15.5 -125.5q12 -46 60 -47.5t120 45.5q14 3 17 -6q4 -3 -2.5 -17t-15 -29t-9.5 -18q-42 -81 -111.5 -130.5t-160.5 -43.5q-70 5 -115.5 49t-52.5 106t20 132
q46 105 137 194.5t204.5 150t247 96.5t263 40.5t254.5 -24.5t219 -92q34 -28 24.5 -68t-43.5 -53t-69 12q-4 4 -41 27q-48 -68 -89 -151.5t-67.5 -155t-53 -173.5t-39.5 -165t-35 -172q-12 -60 -35 -186q-22 -124 -34.5 -189.5t-39 -189.5t-47.5 -198t-56.5 -186.5t-70 -186
t-84.5 -165t-104 -155t-123.5 -125t-147.5 -103.5z" />
    <glyph glyph-name="K" unicode="K" horiz-adv-x="2168" 
d="M2224 -348q-80 -45 -173 -57.5t-181.5 9t-166 89.5t-120.5 174q-24 61 -40.5 142t-23 156.5t-17 159.5t-21.5 156.5t-37 140.5t-63.5 117.5t-101 82.5t-149.5 40q-21 -76 -50.5 -210t-53.5 -228t-61 -208t-91.5 -212.5t-125.5 -179.5q-72 -81 -187 -106.5t-227 14
t-172 135.5q-48 70 -39 158.5t74 138.5q4 5 12 3t12 -9q0 -43 27.5 -75.5t67 -46t87 -8t84.5 32.5q57 41 111 139.5t85 189t67 206t47 145.5q24 63 60.5 169t63.5 180t66.5 172t81 173t95 153t120.5 141.5t146 111.5q-84 32 -189 38.5t-207 -9t-198.5 -51.5t-167 -83.5
t-108 -110.5t-25.5 -128q4 -21 25 -29.5t46 -5.5q43 0 111 33q8 3 14.5 -3t3.5 -15q-40 -79 -81 -132t-103 -83q-86 -40 -168.5 -20t-115.5 93.5t20 202.5q53 120 156 216t231 154t270 86.5t284 20.5t263 -49q80 -28 123 -65q35 -37 20.5 -76.5t-53 -45.5t-76.5 27
q-54 -56 -99 -127t-74 -133t-59 -152.5t-45.5 -148t-41.5 -160.5t-39 -151q103 21 194 -2q120 38 207.5 92t137.5 110t91.5 131.5t65.5 141.5t63 156t81 159q71 118 178.5 199.5t237.5 107.5t263 -36q7 -3 5.5 -13t-7.5 -12q-132 -19 -213.5 -81t-136.5 -165
q-11 -21 -40.5 -77.5t-43.5 -83t-44 -80.5t-48.5 -84t-50 -79t-55.5 -80.5t-58.5 -72.5t-65.5 -70.5t-69.5 -60.5t-77.5 -55q-141 -89 -293 -107q90 -65 151 -164.5t94.5 -206.5t62 -212.5t74 -209t110.5 -169.5q48 -48 130.5 -61.5t165.5 3t146 54.5q5 3 11 1t8 -5
q-10 -72 -64.5 -138.5t-132.5 -111.5z" />
    <glyph glyph-name="L" unicode="L" horiz-adv-x="1789" 
d="M248 -37q60 20 116 72.5t93 114.5q-163 48 -290 -23q-76 -42 -99 -101q-21 -54 20 -77q48 -26 160 14zM-104 -156q-38 74 -26 150.5t59 141.5t114 102q189 106 496 61q42 81 102.5 219.5t114 266.5t127.5 283t146 284.5t165.5 255t189.5 211.5t216 136.5t247 45.5
q118 -2 210 -23.5t161 -83.5q55 -43 84.5 -106.5t31.5 -128.5t-20 -128.5t-63 -110t-104.5 -70t-137.5 -11.5q-32 4 -81 34.5t-32 53.5q175 60 172 205q5 50 -12.5 92.5t-49.5 68.5t-74 43.5t-88 17t-91 -10.5q-75 -21 -144 -69t-122.5 -109t-104.5 -145.5t-88 -164
t-76 -179t-65 -176.5t-58.5 -170.5t-52.5 -147.5q-8 -22 -42 -112.5t-49 -130t-44.5 -106.5t-56.5 -120q62 -20 174.5 -76.5t231.5 -117.5t254 -120.5t283.5 -96t277.5 -33.5q62 1 120.5 31t96.5 77q16 6 22 -10q24 -90 6.5 -162t-61 -126.5t-110.5 -90t-143 -52t-157 -13
t-153 27.5q-120 40 -257 114.5t-238.5 144.5t-241.5 167t-226 150q-187 -261 -410 -310q-69 -15 -124.5 -19t-113.5 6t-105 45t-80 95z" />
    <glyph glyph-name="M" unicode="M" horiz-adv-x="2691" 
d="M1473 285q60 -8 112 65.5t83 184t48 222.5t15 191q-135 -148 -230 -348q-90 -188 -71 -272q9 -38 43 -43zM156 164q3 5 9 4.5t9 -6.5q0 -43 21.5 -74t54.5 -44t75 -8t81 30q48 31 93 92t82 142.5t64 151.5t58 159t45 124q24 62 60.5 165t64.5 179.5t68 175t82.5 175.5
t96 155.5t120.5 141t144 106.5q-19 11 -39 18.5t-47.5 12t-39.5 6.5t-48.5 5.5t-42.5 4.5q-179 2 -341.5 -60.5t-262.5 -185.5q-53 -67 -58 -140.5t50 -107.5q49 -49 168 11q8 3 14 -3.5t2 -15.5q-21 -43 -32.5 -63.5t-42 -56.5t-70.5 -62q-48 -34 -102.5 -38.5t-99.5 18.5
t-80 61t-50 91.5t-4 107.5q22 143 112.5 261t218 190.5t278 107.5t296.5 24q89 -6 172.5 -31.5t165.5 -76.5t147 -123.5t114 -180t69 -239.5q480 417 1028 528q149 76 287 62q10 0 10.5 -11t-8.5 -14q-152 -42 -268 -152t-218 -272q-113 -174 -199.5 -449.5t-104.5 -554.5
t85 -464q14 -24 37 -45.5t40 -35t53.5 -32t49.5 -24.5t56 -25q7 -3 8.5 -10.5t-4.5 -13.5q-83 -80 -207.5 -86t-216.5 61q-174 123 -211 393q-27 194 12 406.5t129 408t207.5 370.5t257.5 323q-231 -103 -441 -269t-368 -368q7 -206 -16.5 -376.5t-66 -279.5t-99.5 -182
t-115.5 -100.5t-113.5 -18.5q-48 8 -87.5 42.5t-62.5 94t-28.5 137t20.5 177.5t78 208.5t150 237.5t231 258q-31 141 -110 289.5t-179 216.5q-93 -85 -165 -218.5t-118.5 -284t-85 -317t-74.5 -333t-76 -315.5t-100.5 -280t-138.5 -212q-105 -108 -259.5 -117t-266.5 93
q-75 72 -80.5 177t74.5 173z" />
    <glyph glyph-name="N" unicode="N" horiz-adv-x="2394" 
d="M1735 -301q-61 157 -94.5 383t-57.5 547q-13 145 -29 411.5t-24 376.5q-22 205 -74 320q-72 -100 -130 -234.5t-98 -274t-76.5 -291t-74.5 -300.5t-82.5 -286t-110.5 -265t-149 -221q-73 -82 -180 -117t-213.5 -5.5t-167.5 124.5q-46 69 -36.5 158t73.5 139q12 9 22 -4
q0 -61 41 -93.5t103 -22t115 64.5q46 47 85.5 104t74.5 132.5t55 124t55 144t47 127.5q27 68 70.5 192t73 204.5t79.5 192t99 190.5t122 161.5t158 141.5q-68 100 -261 101q-179 1 -361 -78q-178 -78 -241 -187q-49 -84 -9 -168q34 -72 188 4q8 5 16 -2t5 -16
q-65 -119 -130.5 -179.5t-152.5 -66.5q-57 -4 -99.5 11t-64.5 42t-33 63t-10 72t10 72q29 113 113.5 214.5t197.5 172.5t249 114.5t266 49t252 -33.5t204 -124q81 -84 135 -205t82.5 -269.5t44.5 -286.5t36.5 -321.5t43.5 -309.5q36 102 75.5 235.5t69.5 239.5t68 226.5
t80 220.5t96 196.5t126.5 178.5t160.5 144q58 37 124.5 53.5t137 5t125.5 -54.5q6 -4 7.5 -12.5t-3.5 -11.5q-145 -99 -283 -255.5t-247.5 -333t-207 -373t-167 -382.5t-120.5 -354t-76 -295.5t-25 -200.5z" />
    <glyph glyph-name="O" unicode="O" horiz-adv-x="1814" 
d="M1507 1077q12 105 16.5 171.5t3 161t-23 172.5t-63.5 144q-38 54 -91.5 84t-106.5 30t-100.5 -21t-79 -72t-36.5 -121q-7 -120 36 -227t138 -158q48 -22 180 -33q5 0 9 -4t4 -8q-48 -74 -136 -100t-176.5 2t-142.5 98q-53 63 -76.5 144t-20 158.5t26.5 158.5
q-109 -61 -214.5 -194t-180.5 -300.5t-118 -341t-32.5 -335.5t80.5 -265q142 -209 356 -177q184 29 369 224q188 200 296 484q62 163 83 325zM23 225q-13 145 12.5 311t81.5 328t143 319.5t192.5 286.5t235.5 228t266 145q53 83 138.5 136.5t181 67t188 -5t169.5 -81
t116 -158.5q59 -145 64.5 -312t-29 -321t-105 -320t-147 -299t-170.5 -269q-64 -80 -123.5 -145.5t-140 -138t-159.5 -123.5t-175.5 -88.5t-192.5 -47.5q-218 -21 -371.5 120.5t-174.5 366.5z" />
    <glyph glyph-name="P" unicode="P" horiz-adv-x="2193" 
d="M831 -186q-65 -59 -155.5 -79.5t-175.5 -3.5t-154 75.5t-92 146.5q-18 65 3 128t75 93q6 4 13 1t9 -11q-3 -49 22 -82.5t62.5 -45t79.5 -7.5t74 24q40 24 76 79t53 95.5t43 110.5q27 71 58.5 183.5t58 218t64.5 231t77.5 232.5t97 211.5t123.5 179.5t157 125t197 59
q9 2 12.5 -10t-5.5 -15q-144 -67 -222 -215q-48 -92 -83 -209.5t-50 -202.5t-37 -232.5t-34 -217.5q131 9 257 49t234 108t180.5 174t87.5 234q18 152 -32.5 286.5t-171.5 225.5q-128 95 -294.5 126.5t-329 2t-302.5 -109.5q-90 -50 -152.5 -142t-46.5 -180q8 -47 68 -43.5
t100 51.5q11 7 19 2q3 -1 3.5 -6t-1.5 -8q-31 -70 -84 -123q-63 -63 -131 -93.5t-122.5 -25.5t-102 30t-71 74t-27.5 104.5t27 124t93 130.5q171 171 405 257t492 89q124 1 247.5 -18t247.5 -65.5t222 -115.5t168 -176t90 -239q22 -146 -12.5 -281.5t-111 -238.5
t-187.5 -181t-237.5 -115.5t-267 -34t-270.5 55.5q-4 -20 -16.5 -83.5t-17.5 -87.5t-18.5 -82t-22 -86t-25 -80t-31.5 -83t-37.5 -75.5t-46 -76.5t-54 -68.5t-65.5 -67.5z" />
    <glyph glyph-name="Q" unicode="Q" horiz-adv-x="1886" 
d="M1247 -684q-43 29 -80.5 70.5t-62.5 82t-51 98t-40.5 98t-36.5 103.5t-34 95q-134 -57 -261 -69.5t-228.5 15.5t-185 90t-137.5 149t-79.5 196.5t-15.5 228.5q11 198 91 413.5t206 403.5t299.5 337.5t359.5 215.5q71 113 202.5 169.5t266.5 37.5q101 -10 181 -70
t125 -148t67 -186.5t18 -195.5q-11 -239 -93 -483t-205.5 -450t-288.5 -398q-31 -35 -103 -107q18 -27 54.5 -86.5t59.5 -95.5t57 -82.5t65 -79.5q39 -43 106.5 -62.5t132.5 -1t90 76.5q2 8 9 11.5t14 0.5q52 -31 66.5 -91.5t-2 -121t-52.5 -107.5q-57 -75 -149.5 -107.5
t-189.5 -18t-175 68.5zM473 231q65 -111 187.5 -155t213.5 -4q-40 107 -118.5 196.5t-182.5 134.5q-12 6 -6 19q50 22 104.5 15.5t102.5 -26.5t96 -56t85 -73t69 -77q30 -37 47 -62q136 104 237 264.5t154 323t82 346.5q6 57 9 89t7.5 94.5t3.5 102.5t-5 99t-14 99t-28 87.5
t-43.5 79.5t-63.5 60t-85 43q-85 21 -145 -8t-85.5 -89.5t-29.5 -134.5t17 -148t59 -126q42 -64 106 -87t168 -28q38 -15 -35 -67q-58 -41 -94 -50q-4 -1 -6 -1q-80 -19 -145 -0.5t-114.5 59.5t-82 102.5t-48 129.5t-12 140t26.5 134q-91 -51 -176.5 -152.5t-150.5 -227.5
t-110.5 -272.5t-63 -285t-1 -268.5t69.5 -220z" />
    <glyph glyph-name="R" unicode="R" horiz-adv-x="2107" 
d="M2044 -340q-92 -51 -194 -61t-194 20.5t-166 111t-106 199.5q-16 60 -27.5 139t-17 148.5t-14.5 147.5t-19.5 143.5t-34 129t-56.5 110.5t-87.5 81.5t-126.5 47.5q-11 -60 -30 -178t-31.5 -191.5t-40 -180.5t-59.5 -183t-86.5 -159.5t-124.5 -146.5q-78 -69 -192 -87
t-208 26q-98 40 -153.5 139t-20.5 195q11 31 43.5 67t51.5 17q3 -52 29 -87.5t63 -41.5q49 -9 92.5 3.5t77 41t63 73t52 95.5t43 112t36.5 120t33 122q4 15 6 23.5t5.5 21.5t6.5 24q108 404 226 650q34 70 68 127.5t82.5 119t100 103.5t119 70t140.5 30q7 1 10 -4t2 -11
t-6 -7q-55 -28 -100.5 -68.5t-78 -81.5t-60 -99.5t-44 -103.5t-33.5 -115.5t-25 -113.5t-21.5 -119t-20.5 -112q74 9 152 -13t139 -71q110 14 222 91t165 181q67 133 71 262t-47.5 229.5t-155 171t-243.5 91.5q-61 14 -138.5 10t-157 -16t-157.5 -42.5t-140 -69.5
t-104.5 -96.5t-50.5 -123.5q-9 -57 46 -66.5t135 33.5q9 13 16 2q6 -3 2 -14q-57 -136 -178 -191q-40 -19 -84.5 -26t-87.5 -1t-78.5 33.5t-52.5 73.5q-31 102 22 203.5t146 171.5q174 140 396 202t447.5 44t434.5 -107q115 -56 194.5 -136t116 -167.5t40 -184t-26 -186.5
t-89 -173t-142 -146.5t-192.5 -104t-233 -47.5q23 -30 43.5 -63.5t35.5 -60t32 -68t26 -63t24.5 -70t20.5 -65.5t21 -72t20 -68q35 -92 72.5 -160.5t91 -126t114 -82.5t141.5 -16t175 61q9 4 16.5 -1.5t4.5 -14.5q-21 -74 -73.5 -144t-123.5 -110z" />
    <glyph glyph-name="S" unicode="S" horiz-adv-x="1873" 
d="M340 -504q-142 68 -240 189t-137 263.5t-18.5 301.5t106.5 299q67 109 164 185.5t215.5 106t241.5 -17.5q68 -22 120 -74.5t77.5 -117.5t20.5 -138t-46 -133q-3 -2 -12 -10t-18 -14t-15 -6q-53 128 -84 174q-24 36 -51 57q-79 62 -177.5 73.5t-187 -36t-129.5 -147.5
q-35 -84 -36.5 -177t29.5 -176.5t85 -153t136 -114.5t177 -53q156 -14 288 34.5t218 143t133 223.5t43 275q-3 114 -24 250t-43 248.5t-39.5 232.5t-14 245t34.5 242q40 155 176 264.5t299 112.5q113 -2 201 -32t139 -78.5t82 -108t36.5 -122.5t-5 -120.5t-35.5 -103.5
q-50 -92 -130.5 -134t-162.5 -29.5t-145 71.5q-41 37 -51 96.5t24 97.5q14 -15 32.5 -26.5t43.5 -18t55 1.5t60 31q32 25 46.5 67.5t12.5 83t-14 74.5q-17 47 -53.5 75.5t-82.5 33t-94 -7t-92 -44t-72 -79.5q-57 -95 -68.5 -222.5t14.5 -267t61.5 -271t74.5 -284.5t50 -258
q18 -160 -7.5 -324t-101.5 -292q-84 -143 -219.5 -245.5t-286.5 -147.5t-310.5 -38.5t-293.5 70.5z" />
    <glyph glyph-name="T" unicode="T" horiz-adv-x="1875" 
d="M1262 -98q-46 -71 -120 -117.5t-155 -57.5t-158.5 6t-140 75t-90.5 147q-20 65 3.5 135t76.5 84q9 9 18 -4q0 -53 35 -82.5t86.5 -28.5t100.5 29q42 24 79 68.5t62 88.5t51 112.5t39 110.5t33.5 114.5t27.5 95.5q13 41 50.5 165t57.5 187.5t60 172.5t72 176t78 139
t94 116q-115 17 -351.5 83t-346.5 81q-224 32 -346 -68q-71 -57 -77 -128q-5 -56 33 -74q4 -1 7 -2q38 -10 123 12q5 2 11 -1.5t7 -10.5q22 -70 -4 -128t-79.5 -83.5t-114 -29t-114.5 33t-73 104.5q-28 98 7.5 191.5t128 169t226.5 130t315.5 77t381.5 6.5q110 -9 256 -39.5
t257.5 -57.5t251.5 -42.5t259 -2.5q154 19 291 156q8 8 16 0q-5 -77 -47 -147.5t-106 -121t-140 -85t-153 -47.5q-201 -35 -469 0q-74 -94 -126.5 -215.5t-82.5 -247.5t-51.5 -260.5t-41 -269.5t-43 -259t-65 -244.5t-100.5 -211.5z" />
    <glyph glyph-name="U" unicode="U" horiz-adv-x="2340" 
d="M846 -236q-115 16 -202 106t-116 202q-40 140 -19 307t82 339t159 343t211 319.5t238.5 267.5t242.5 187q-132 52 -278.5 55t-266 -34t-213 -94t-135.5 -129t-19 -136q18 -47 69 -48.5t114 46.5q9 5 16 -6q3 -3 -3.5 -17t-14.5 -29t-9 -18q-26 -57 -72 -101t-99 -65.5
t-111 -7t-103 71.5q-35 52 -43.5 106.5t6 102t46 95t72 87t90.5 76.5t95 64t91 49q146 70 307 100t330.5 6.5t296.5 -108.5q36 -37 21.5 -77t-53 -45.5t-75.5 27.5q-106 -103 -197.5 -229t-163 -265.5t-126 -273.5t-105.5 -288q-63 -216 -58 -363t54.5 -223t128.5 -74
q73 65 185 215.5t195 279t197.5 311t137.5 218.5q158 244 213 320q237 329 459 449q155 83 315 75q10 0 10.5 -11t-8.5 -14q-80 -22 -151.5 -64.5t-131.5 -102t-107.5 -120t-96.5 -137.5q-40 -59 -82.5 -150.5t-83 -203.5t-71 -237t-50.5 -250.5t-18.5 -245.5t23.5 -219.5
t76 -175t138 -109.5q52 -25 86 -39q8 -7 8 -13.5t-5.5 -12.5t-12.5 -11.5t-15.5 -11.5t-11.5 -10q-70 -47 -153.5 -52.5t-156.5 25.5t-133.5 89.5t-90.5 133.5q-130 300 -31 719q-100 -184 -248 -412.5t-293 -428.5q-57 -79 -130 -110t-150 -20z" />
    <glyph glyph-name="V" unicode="V" horiz-adv-x="1984" 
d="M793 -221q-83 38 -138 107t-79.5 149.5t-28.5 181t7 194t34.5 197.5t47.5 181t52 155q45 116 92 215.5t112.5 207.5t136.5 194t164.5 163t197.5 127q-310 77 -575 -42q-156 -70 -240 -180q-63 -83 -45 -133q13 -35 67 -34q43 0 111 33q9 3 18 -6q2 -3 -4.5 -17t-14 -29
t-8.5 -18q-62 -117 -157 -163q-45 -24 -94 -20t-89.5 25t-67 66t-26.5 103q0 100 61.5 193.5t158 162.5t212.5 121t229 78.5t203 25.5q152 -2 267.5 -24.5t206.5 -91.5q20 -17 24 -40t-6.5 -41t-27 -31t-39.5 -12.5t-42 17.5q-10 10 -36 25q-110 -67 -224.5 -220
t-202.5 -352t-142.5 -408t-49.5 -410t80 -335q97 121 199 278t181 296t176.5 298t189 293.5t214.5 271t256 241.5q107 90 237 141t269 51q44 0 91 -13t76 -35t20 -44q-106 0 -224 -66q-122 -71 -305 -257.5t-376 -421t-377 -467t-357 -445t-268 -305.5z" />
    <glyph glyph-name="W" unicode="W" horiz-adv-x="2557" 
d="M1470 -229q-94 27 -159 116q-86 126 -86 379q-75 -94 -227 -230.5t-267 -185.5q-233 -101 -332 68q-92 150 -43 397q62 269 226.5 568t391 554.5t458.5 397.5q-67 31 -160 42t-189.5 3t-192.5 -36.5t-171.5 -72t-123.5 -108t-50 -139.5q-1 -58 51 -64.5t109 35.5
q9 5 16 -6q2 -2 0 -8t-6 -15t-8 -16.5t-8 -15.5t-5 -9q-25 -55 -75 -98.5t-106 -62.5t-112.5 -5.5t-91.5 64.5q-38 54 -42 114t21 115.5t66.5 108.5t96.5 99t109 82t106 61q146 70 306.5 100t330 6.5t296.5 -108.5q36 -37 22 -77t-52.5 -45.5t-75.5 27.5
q-119 -104 -270 -323.5t-278 -466t-201 -495.5t-44 -396q27 -130 282 99q135 121 271 280q35 207 101.5 418.5t156.5 386.5q20 39 50.5 88t79 107.5t96 95t100 37.5t92.5 -52q15 -20 16.5 -55.5t-10.5 -80.5t-30.5 -95.5t-45.5 -107.5t-54 -109.5t-58 -108t-54.5 -96
t-47.5 -81t-33 -56.5q-27 -103 -41.5 -205t-8.5 -234t44 -239q89 110 151 200q66 103 157.5 257.5t158.5 269.5t160.5 258.5t179.5 256t199.5 230t234.5 209.5q91 73 217 114t248 33t190 -73q-114 -31 -268.5 -138.5t-299 -242.5t-292.5 -297q-94 -103 -213 -242
t-214 -253.5t-230.5 -282.5t-199 -247.5t-186.5 -234.5t-129 -163zM1585 958q10 19 36 66.5l52 95t56.5 106.5t52.5 109t37 93t13.5 68.5t-22.5 27.5q-34 -11 -85.5 -119.5t-91.5 -238.5t-48 -208z" />
    <glyph glyph-name="X" unicode="X" horiz-adv-x="2107" 
d="M1681 -225q-109 48 -202.5 137t-156 189t-108.5 216q-172 -182 -346.5 -308t-375.5 -183q-65 -18 -136.5 -19t-141.5 16t-123.5 63.5t-72.5 117.5q-32 129 66 250q1 3 7.5 3.5t10.5 -1.5q4 -11 2 -14q-25 -67 -30 -111q-5 -74 31 -121.5t94 -61.5t123.5 -7.5t123.5 32.5
q103 46 200 113.5t185 152t158.5 165t149.5 182.5q-21 117 -25 250.5t12 274t49.5 271.5t91.5 249.5t134 201.5q-166 60 -348 36t-334 -120q-105 -66 -169 -174q-56 -94 -36 -145q15 -40 76 -29q48 5 108 45q13 3 19 -6q3 -3 -3 -18t-13 -30.5t-7 -17.5q-24 -61 -71 -107
t-102 -66.5t-115 -2.5t-105 78q-62 105 -31 217t120 210t217 172t259 103q130 29 250.5 34.5t251.5 -26t227 -106.5q22 -22 20.5 -51t-20.5 -46.5t-45 -22.5t-53 20q-12 12 -24 18q-169 -294 -103 -874q48 71 89 129.5t101 140.5t116 148t125.5 143.5t138 136t144.5 116
t153.5 93.5t158 58.5t164.5 20.5t166 -28q10 -3 8.5 -13.5t-12.5 -10.5q-98 1 -198.5 -37t-187.5 -101.5t-178.5 -155.5t-166.5 -187t-156 -208t-143.5 -208t-132 -197t-117.5 -164q48 -164 121.5 -286t178 -206.5t229 -138t288.5 -90.5q7 -3 9 -10.5t-3 -13.5
q-114 -103 -278.5 -124t-305.5 44z" />
    <glyph glyph-name="Y" unicode="Y" horiz-adv-x="2152" 
d="M854 -715q-102 -5 -195 22.5t-161 77.5t-113 120t-59 146.5t9 161.5t85 162q46 57 115 88.5t145 34.5q12 0 12 -12q4 -4 -2 -10q-51 -41 -86 -90t-45 -95q-20 -85 20 -161t117 -107q76 -34 163 -23t163 45.5t143 88.5q78 64 145.5 158t112.5 190t88 217.5t69.5 218
t60.5 215t57 187.5q-51 -85 -171.5 -252.5t-193.5 -257.5q-65 -80 -123 -123t-145 -51q-149 -13 -261 82t-134 243q-25 165 31 362t164.5 372t251 323t286.5 229q-81 26 -184.5 31.5t-210.5 -14t-200 -60t-158.5 -113.5t-80.5 -167q-2 -17 0.5 -30.5t12 -22.5t25.5 -11
t41.5 6.5t58.5 28.5q13 3 16 -6q2 -3 1 -8t-5.5 -14.5t-8.5 -17t-8.5 -15.5t-5.5 -9q-62 -118 -153 -163q-45 -24 -94 -20.5t-89.5 24t-66.5 66t-27 104.5q-1 64 25 126t66 110t96 93.5t107.5 77t109.5 60.5q145 70 306 100t331 6.5t297 -108.5q20 -17 24 -40t-6.5 -41
t-27 -31t-39.5 -12.5t-42 17.5q-11 11 -32 23q-377 -332 -498 -873q-10 -48 -13 -103.5t4 -114.5t35.5 -104t75.5 -59q61 -18 135.5 19.5t140 103.5t139 162.5t123 174.5t101.5 161.5t66 103.5q23 56 33 79t34 77.5t38.5 81.5t41 75t47.5 76t52 67t60.5 64.5t67 52.5
t77.5 46q30 15 55 8.5t41 -22.5t15.5 -41t-21.5 -48q-8 -8 -44.5 -46.5t-46 -49t-39 -42.5t-43 -47.5t-36 -42.5t-40 -50t-34.5 -47q-37 -89 -70.5 -215t-57.5 -254t-54 -277t-58.5 -288.5t-72.5 -283t-95 -267.5t-127 -234t-167 -189.5t-217 -129t-275 -56.5z" />
    <glyph glyph-name="Z" unicode="Z" horiz-adv-x="1871" 
d="M299 -25q46 24 107 74q35 33 86 94q-194 58 -327 -12q-77 -40 -97 -100q-18 -54 25 -80q63 -38 206 24zM-80 -195q-51 61 -52.5 142.5t37 153t101.5 112.5q210 148 602 74q85 115 219 307t231.5 326.5t224.5 294.5t266.5 296t289.5 246q-385 46 -589 46q-479 0 -611 -193
q-43 -62 16 -90q74 -35 237 5q13 3 26 7q32 5 29 -14q-6 -30 -83 -88q-77 -59 -159 -89q-68 -36 -137 -38.5t-122.5 22.5t-89.5 72t-45 104t19.5 125t95.5 129q51 46 117 81.5t132.5 58.5t154.5 36.5t160.5 19.5t175.5 3.5t175 -6.5t182.5 -15.5t174.5 -20t175 -23.5
t161 -21q127 61 298 65q162 3 226 -51q61 -51 -6 -137q-42 -48 -104.5 -67.5t-126 -13t-116 21t-94.5 34.5q-86 -49 -190 -155.5t-201 -234.5t-208.5 -289t-203 -303t-193.5 -293t-173 -244q94 -30 212.5 -84t215 -104.5t223.5 -107t236 -91.5q332 -106 461 63q4 3 11.5 0
t8.5 -10q24 -87 8 -158t-58.5 -125t-107.5 -90.5t-138.5 -54t-152 -16t-147.5 23.5q-120 37 -257 109t-230.5 134t-241.5 165t-215 147q-117 -119 -233.5 -196t-249.5 -97q-109 -15 -209.5 7t-157.5 89z" />
    <glyph glyph-name="bracketleft" unicode="[" horiz-adv-x="741" 
d="M-205 -569l660 2400h770l-41 -98h-408l-606 -2204h428l-41 -98h-762z" />
    <glyph glyph-name="backslash" unicode="\" horiz-adv-x="1216" 
d="M700 -471l-356 1987h168l356 -1987h-168z" />
    <glyph glyph-name="bracketright" unicode="]" horiz-adv-x="909" 
d="M1104 1831l-660 -2400h-770l41 98h408l606 2204h-428l41 98h762z" />
    <glyph glyph-name="asciicircum" unicode="^" horiz-adv-x="964" 
d="M266 1171l557 390l205 -377l-106 -86l-213 209l-381 -209z" />
    <glyph glyph-name="underscore.ss01" unicode="_" horiz-adv-x="643" 
d="M-5173 -1245q-150 0 -262 47.5t-169 122t-74.5 168.5t7.5 185.5t92 174.5t166 133q144 74 335.5 108.5t428.5 33.5t500.5 -20t603 -51.5t682 -63.5t791 -53.5t880.5 -22.5q646 0 1008 230q213 136 283 322q55 145 5 262q-37 83 -116 115l16 115q150 -38 223 -183
q79 -156 38 -362q-48 -241 -238 -435q-263 -268 -711 -349q-176 -31 -373 -31q-532 -8 -1124 9t-1001.5 37.5t-786.5 31.5t-625 -11t-372 -87q-121 -64 -177.5 -182.5t-29.5 -243.5z" />
    <glyph glyph-name="grave" unicode="`" horiz-adv-x="1042" 
d="M905 1065q-67 32 -134 74t-133.5 95.5t-117 119t-69.5 129.5l258 131q17 -95 53.5 -181.5t97 -161.5t135.5 -116z" />
    <glyph glyph-name="a" unicode="a" horiz-adv-x="1306" 
d="M281 0q-143 0 -228.5 79t-95 220.5t67.5 337.5q49 122 122 221.5t151.5 160.5t156 93.5t143.5 32.5q142 0 223 -90l13 41h270q-41 -147 -114 -442.5t-85 -356.5q-11 -47 -0.5 -81t43.5 -34q52 0 104.5 34t99.5 95.5t81.5 118t73.5 131.5q15 0 39 -14.5t40 -28.5l17 -14
q-106 -193 -152 -261q-134 -196 -281 -233q-37 -10 -77 -10q-101 0 -168 57.5t-90 151.5q-155 -209 -354 -209zM311 623q-38 -106 -50 -191.5t0.5 -138t39.5 -81.5t66 -32q70 -8 150.5 52t123.5 176q114 416 133 483q-17 44 -43.5 75t-54.5 40q-83 28 -184.5 -70
t-180.5 -313z" />
    <glyph glyph-name="b" unicode="b" horiz-adv-x="1126" 
d="M371 -47q-139 -12 -246.5 74t-142 245t40.5 379l258 944q34 127 102 199.5t144 79.5t153.5 -50t130.5 -173q47 -99 39 -260t-70 -336q69 -61 108 -162.5t32 -233.5q-6 -117 -41 -227q80 -3 145 29t102 100q14 0 38 -14.5t42 -28.5l17 -14q-63 -115 -168 -164.5
t-228 -38.5q-77 -151 -198.5 -244.5t-257.5 -103.5zM260 375q13 -97 68 -147.5t123 -45.5q140 8 219 162q-141 66 -221 188q-82 -85 -189 -157zM270 532q54 35 127 105q-26 71 -26 160q0 76 17.5 137.5t47 99.5t68 62.5t81.5 26.5t87 -9q41 137 45 258t-29 187
q-23 46 -48 64.5t-46.5 10t-38.5 -34t-27 -63.5q-10 -42 -61.5 -243t-116 -449t-80.5 -312zM494 836q-14 -117 52 -215t175 -148l12 45q56 206 -8 347q-38 82 -98.5 102.5t-100.5 -36.5q-24 -36 -32 -95z" />
    <glyph glyph-name="c" unicode="c" horiz-adv-x="968" 
d="M455 0q-161 -7 -274.5 73t-157.5 217t-15 302q22 128 76.5 230.5t127 165t151.5 97.5t161 41q97 6 170.5 -20.5t111.5 -73.5t52 -102.5t2 -110.5q-18 -91 -92 -119q-62 -22 -115 10q-55 34 -45 99q5 25 19 51q36 65 22.5 102.5t-71.5 43.5q-95 9 -180.5 -102.5
t-106.5 -293.5q-22 -179 53 -294t186 -115q87 0 175.5 54.5t153.5 133.5t112 172q15 0 38.5 -14.5t39.5 -28.5l16 -14q-24 -43 -36.5 -64t-42 -68t-50.5 -74.5t-56.5 -70.5t-66 -70t-73.5 -58.5t-85 -50t-94 -32.5t-106 -16z" />
    <glyph glyph-name="d" unicode="d" horiz-adv-x="1384" 
d="M283 0q-143 0 -228.5 79t-95.5 220.5t66 337.5q40 98 96 182t116 143t124.5 101t124 62t110.5 20q129 0 211 -76l8 27q43 150 135 499q23 85 62.5 147t86 94t99.5 37t103.5 -17.5t98 -75t81.5 -129.5q39 -86 41 -211t-37.5 -271.5t-113 -292t-196.5 -285.5t-276 -239
l-12 -55q-26 -115 94 -115q51 0 111 35.5t114.5 92.5t101.5 121.5t81 129.5q14 0 37 -14.5t39 -28.5l16 -14q-273 -504 -557 -504q-125 0 -202 49.5t-104 136.5q-147 -186 -335 -186zM313 623q-38 -106 -50 -191.5t0.5 -138t39.5 -81.5t66 -32q57 -6 123.5 34t113.5 120
q6 34 15 74q8 28 59.5 214.5t83.5 297.5q-36 70 -86 86q-83 28 -184.5 -70t-180.5 -313zM942 532q110 75 199 188.5t141 232.5t80 237t26 215t-30 154q-23 46 -48 64.5t-46.5 10t-38.5 -34t-27 -63.5q-7 -28 -49.5 -189.5t-63.5 -250.5q-38 -134 -143 -564z" />
    <glyph glyph-name="e" unicode="e" horiz-adv-x="1019" 
d="M459 0q-97 -4 -179.5 24.5t-139 82.5t-94.5 130t-45.5 165.5t7.5 189.5q22 128 76.5 230.5t127 165t151.5 97.5t161 41q73 4 134.5 -6.5t102.5 -33t72 -53.5t43.5 -67t17.5 -73.5t-7 -73.5q-63 -264 -580 -416q29 -94 90.5 -148t134.5 -54q134 0 278 110.5t212 249.5
q14 0 37.5 -14.5t40.5 -28.5l16 -14q-35 -62 -75 -119.5t-104 -129t-132 -123.5t-159.5 -90t-186.5 -42zM289 524q264 89 346 297q28 67 14 123t-69 62q-94 9 -179.5 -102t-107.5 -294q-4 -31 -4 -86z" />
    <glyph glyph-name="f" unicode="f" horiz-adv-x="1001" 
d="M49 -295q-62 -256 86 -256q54 0 108 57.5t95.5 150.5t72 211.5t37 240.5t-9.5 237q-93 42 -194 117zM-193 -156l226 844q-87 142 -62 246q13 55 53.5 73t94.5 -1l160 589q34 127 102.5 199.5t145 79.5t154.5 -50t130 -173q38 -85 38.5 -210t-34 -265.5t-113.5 -294
t-190 -283.5q21 -42 41 -102l16 -54q56 -27 117 -35t120 3t111.5 49.5t86.5 101.5q15 0 38.5 -14.5t39.5 -28.5l16 -14q-82 -150 -213.5 -199t-288.5 -14q16 -125 1 -252.5t-47 -246t-85.5 -222.5t-116.5 -181.5t-139 -122t-152 -44.5q-140 0 -220.5 65t-94.5 203t65 354z
M342 846q53 -53 113 -144q86 104 147.5 233.5t88 246.5t26.5 218t-29 159q-24 46 -49.5 64.5t-47 10t-38 -34t-25.5 -63.5q-12 -45 -87.5 -323.5t-98.5 -366.5z" />
    <glyph glyph-name="g" unicode="g" horiz-adv-x="1292" 
d="M-113 -1096q-39 87 -42.5 193.5t36 227.5t119 239.5t218 236t319.5 209.5l30 119q-129 -129 -284 -129q-143 0 -228.5 79t-95.5 220.5t66 337.5q40 98 96 182t116 143t125 101t124.5 62t111.5 20q141 0 223 -88l13 39h270q-37 -129 -124.5 -465.5t-129.5 -507.5
q144 77 263 199t181 239q15 0 38.5 -14.5t39.5 -28.5l17 -14q-195 -361 -582 -551q-10 -34 -36.5 -127t-50.5 -174.5t-42 -140.5q-74 -281 -103 -383q-32 -111 -87 -197t-118.5 -135.5t-134 -70t-135 -7.5t-121.5 60.5t-92 125.5zM33 -1020q33 -67 83 -79t103 43t86 171
q41 142 103 396q65 229 90 344q-128 -77 -227 -175.5t-155 -195.5t-85 -193.5t-27.5 -175.5t29.5 -135zM315 623q-39 -106 -51.5 -191.5t-0.5 -138t39 -81.5t67 -32q70 -8 150.5 51.5t123.5 174.5q105 393 133 487q-17 43 -43.5 73.5t-54.5 39.5q-82 28 -183 -70t-180 -313z
" />
    <glyph glyph-name="h" unicode="h" horiz-adv-x="1208" 
d="M791 0q-70 -7 -124 11t-87 54t-49.5 87.5t-16 111.5t17.5 125q22 86 71 228.5t54 164.5q35 166 -53 166q-52 0 -124.5 -86t-149 -243.5t-133.5 -346.5l-64 -243h-280q18 66 212 771t218 795q23 85 62.5 147t86 94t99.5 37t103 -17.5t98 -75t83 -129.5q41 -92 39.5 -231.5
t-47.5 -295.5q91 -35 124.5 -135.5t-5.5 -243.5q-25 -91 -75 -249.5t-54 -171.5q-18 -59 -2 -94t59 -37q32 0 70.5 18.5t84.5 58.5t98.5 115t102.5 176q15 0 38.5 -14.5t39.5 -28.5l17 -14q-247 -483 -514 -504zM369 922q154 195 313 215q36 131 38.5 245t-28.5 177
q-23 46 -48 64.5t-46.5 10t-38.5 -34t-27 -63.5z" />
    <glyph glyph-name="i" unicode="i" horiz-adv-x="624" 
d="M209 0q-76 0 -134.5 33.5t-89.5 90t-40 130t14 154.5q66 267 191 688h270q-41 -147 -114 -442.5t-85 -356.5q-10 -51 1 -83t44 -32q42 0 86 24.5t79 60t73.5 90.5t65 100t57.5 104q13 0 36.5 -14.5t40.5 -28.5l17 -14q-107 -195 -157 -267q-139 -200 -292 -231
q-31 -6 -63 -6zM160 1372q0 76 54.5 130t129.5 54t128.5 -54t53.5 -130t-53.5 -129t-128.5 -53q-76 0 -130 53t-54 129z" />
    <glyph glyph-name="j" unicode="j" horiz-adv-x="608" 
d="M-797 -1096q-39 87 -42.5 193.5t36 227.5t119 239.5t218.5 236t321 209.5q47 186 151.5 573t143.5 513h270q-40 -141 -128.5 -480.5t-125.5 -494.5q145 76 261.5 198t180.5 242q13 0 37 -14.5t42 -28.5l18 -14q-197 -364 -582 -551q-75 -273 -127 -442
q-74 -281 -107 -383q-32 -111 -86.5 -197t-117.5 -135.5t-133.5 -70t-135 -7.5t-121.5 60.5t-92 125.5zM-651 -1020q33 -67 83.5 -79t103.5 43t85 171q18 58 55 203.5t50 192.5q65 243 90 344q-128 -76 -227.5 -174.5t-156 -195.5t-85.5 -194t-27.5 -176t29.5 -135z
M150 1372q0 76 53.5 130t128.5 54t128.5 -54t53.5 -130t-53.5 -129t-128.5 -53t-128.5 53t-53.5 129z" />
    <glyph glyph-name="k" unicode="k" horiz-adv-x="1212" 
d="M793 0q-129 -10 -201.5 55t-83.5 178q-11 110 -38.5 167.5t-69.5 77t-119 22.5q-43 -101 -84 -234l-64 -237h-280q36 128 219.5 789.5t214.5 776.5q22 85 61 147t85.5 94t99.5 37t103.5 -17.5t98 -75t82.5 -129.5q42 -89 40.5 -226.5t-46.5 -289.5q75 -17 115 -73
t37 -132t-48 -152q-43 -76 -118 -138t-154 -91q105 -15 135 -213q10 -75 31 -105t57 -32q68 -3 159 82t187 280q15 0 39 -14.5t41 -28.5l17 -14q-56 -107 -112 -190.5t-120.5 -154.5t-136.5 -112t-147 -47zM332 612q96 -8 191 41.5t136 128.5q38 76 21 123.5t-74 42.5
q-53 -3 -127 -93.5t-147 -242.5zM373 920q149 186 311 215q37 132 39.5 245.5t-29.5 178.5q-30 61 -63 73t-58 -16t-38 -80q-2 -8 -23.5 -90.5t-63 -238t-75.5 -287.5z" />
    <glyph glyph-name="l" unicode="l" horiz-adv-x="718" 
d="M254 0q-79 0 -141 22t-98.5 60t-57.5 89.5t-19 111.5t17 125q80 322 192 688l136 499q22 85 61 147t85.5 94t99.5 37t104 -17.5t99 -75t83 -129.5q39 -86 40.5 -211.5t-38.5 -272t-114 -292.5t-197.5 -285t-276.5 -238l-12 -55q-10 -52 11.5 -83.5t82.5 -31.5
q69 0 151 61.5t146.5 145t110.5 172.5q15 0 39 -14.5t40 -28.5l17 -14q-43 -78 -84 -142t-97.5 -134t-112.5 -118t-126 -79t-141 -31zM274 532q110 75 199 188.5t141 232.5t80.5 237.5t27 215t-29.5 153.5q-24 46 -49.5 64.5t-46.5 10t-37.5 -34t-26.5 -63.5
q-12 -48 -53 -204.5t-61 -235.5q-53 -186 -144 -564z" />
    <glyph glyph-name="m" unicode="m" horiz-adv-x="1734" 
d="M-147 29q253 920 297 1067h270l-45 -160q76 100 149.5 149.5t161.5 53.5q98 3 161 -52.5t75 -152.5q75 101 149.5 151t163.5 54q140 5 203.5 -106.5t11.5 -287.5q-25 -91 -75 -249.5t-54 -171.5q-18 -59 -2 -94t59 -37q71 0 166.5 87.5t190.5 280.5q15 0 39 -14.5
t40 -28.5l17 -14q-251 -483 -516 -504q-70 -7 -124 11t-86.5 54t-49.5 87.5t-16 111.5t18 125q22 86 71 228.5t54 164.5q35 166 -54 166q-55 0 -128 -101t-148 -274l-158 -544h-282q211 696 223 753q35 166 -55 166q-77 0 -185.5 -190.5t-195.5 -481.5l-66 -247h-280z" />
    <glyph glyph-name="n" unicode="n" horiz-adv-x="1212" 
d="M-147 29q253 920 297 1067h270l-47 -170q84 104 165 156.5t173 56.5q139 5 203 -106.5t14 -287.5q-26 -89 -75.5 -245t-55.5 -176q-18 -59 -2 -94t61 -37q32 0 69.5 18.5t84 58.5t99.5 115t103 176q14 0 38 -14.5t42 -28.5l17 -14q-254 -484 -516 -504q-88 -8 -150.5 21
t-90.5 84t-34.5 129t17.5 155q22 86 70.5 228t53.5 165q35 166 -55 166q-80 0 -199 -195t-208 -483l-64 -241h-280z" />
    <glyph glyph-name="o" unicode="o" horiz-adv-x="1126" 
d="M373 -47q-139 -12 -246.5 74t-142 245t38.5 379q30 84 79.5 163t112.5 143.5t140 103t153 37.5q42 24 90.5 26t96 -15t91 -56.5t75.5 -94t49 -132.5t12 -167q-6 -117 -41 -227q80 -3 145 29t102 100q14 0 37.5 -14.5t40.5 -28.5l17 -14q-63 -115 -168 -164.5t-226 -38.5
q-77 -151 -199 -244.5t-257 -103.5zM266 508q-13 -86 -2 -149t40 -103t67 -58.5t80 -15.5q140 8 221 164q-131 58 -214.5 176.5t-84.5 270.5q-80 -85 -107 -285zM498 836q-16 -117 49 -215t174 -148l12 45q56 206 -7 347q-38 82 -98 102.5t-98 -36.5q-24 -36 -32 -95z" />
    <glyph glyph-name="p" unicode="p" horiz-adv-x="1200" 
d="M-483 -1249l622 2345h271l-21 -76q128 125 264 125q129 0 204 -77t87 -212t-31 -317q-55 -213 -151 -342q141 47 257.5 139.5t184.5 224.5q13 0 36 -14.5t40 -28.5l16 -14q-99 -190 -297 -321t-469 -160q-86 -26 -172 -23q-137 7 -217 84l-354 -1333h-270zM182 240
q39 -89 94 -101q105 -21 203.5 76.5t161.5 308.5q62 213 44 324t-99 119q-68 7 -147.5 -50.5t-121.5 -168.5z" />
    <glyph glyph-name="q" unicode="q" horiz-adv-x="1189" 
d="M-788 -502q118 58 244.5 90t237 40t244 -3t234.5 -29t240 -49l155 582q-132 -129 -286 -129q-144 0 -229.5 79t-94.5 220.5t68 337.5q40 98 95.5 182t115.5 143t124 101t124 62t112 20q136 0 217 -84l10 35h271l-426 -1608q112 -24 198 -40t196 -29t201 -13t199 11.5
t204 39.5t202.5 77t208.5 118q84 -166 90 -182q-142 -88 -306 -136t-288 -63.5t-321 2.5t-290 33.5t-309 57.5l-18 3l-164 -616h-270l176 665q-122 22 -222 33t-213 11t-209 -16.5t-196.5 -55.5t-189.5 -101zM311 623q-39 -106 -51.5 -191.5t0.5 -138t41 -81.5t68 -32
q67 -8 147 50.5t123 172.5l133 496q-37 88 -96 107q-81 28 -183.5 -70t-181.5 -313z" />
    <glyph glyph-name="r" unicode="r" horiz-adv-x="942" 
d="M96 504q-32 -8 -63.5 9t-32.5 48q93 179 141 350q-68 12 -112.5 64.5t-44.5 122.5q0 78 55.5 133t134.5 55q77 0 131.5 -55t54.5 -133q0 -38 -12 -68q145 45 249.5 29t139.5 -88q17 -35 18.5 -78t-11 -89.5t-31.5 -95t-45 -101.5t-50.5 -101.5t-49.5 -103t-40 -97.5
q-19 -57 -0.5 -90t58.5 -33q42 0 85.5 25t76.5 58.5t73 92t63 98.5t58 105q14 0 38 -14.5t41 -28.5l17 -14q-107 -198 -161 -274q-141 -203 -301 -227q-23 -3 -46 -3q-76 0 -135 33.5t-90.5 90t-41.5 130t13 154.5q15 67 45.5 135.5t61 119t58 97.5t40.5 87t4 71
q-10 36 -73 37t-152 -33q-32 -137 -164 -418z" />
    <glyph glyph-name="s" unicode="s" horiz-adv-x="1015" 
d="M258 -14q-250 -8 -376 103q-87 75 -81 173q6 93 92 150q66 45 164 51q102 6 200 -19t171 -71q12 70 16 215q3 73 6 107.5t11.5 96t27 104t46.5 73.5q-106 -25 -210 -129.5t-229 -335.5q-33 -8 -64.5 9t-31.5 48q43 77 81.5 137.5t91.5 129.5t106 118t122 92t142 63
t163 20.5t187 -25.5q-83 -46 -130 -185t-42 -313q2 -118 -28 -225.5t-87 -193t-147 -137.5t-201 -56zM63 319q-68 -12 -87 -60q-19 -47 24 -86q59 -54 190 -42q131 8 193 111q-58 51 -144 71.5t-176 5.5z" />
    <glyph glyph-name="t" unicode="t" horiz-adv-x="722" 
d="M258 -2q-79 0 -141 22t-99 60t-58 89.5t-19.5 111.5t16.5 125q114 430 193 688l96 356q-100 20 -156.5 31t-150.5 26.5t-153.5 21.5t-145.5 11.5t-147 1t-138 -14.5t-139.5 -31t-129.5 -52t-128 -74l-138 211q73 36 149.5 61t144 41t149 22t143 8t148.5 -7t142.5 -16
t148 -25t142.5 -29t148 -33t144 -32l6 22l229 176l88 -36l-63 -213q153 -25 285.5 -30t279.5 13t295 75.5t291 154.5q80 -165 90 -183q-120 -74 -252 -120.5t-252 -65t-259.5 -17t-255 15t-257.5 38.5q-49 -171 -84 -307q-41 -143 -113 -437t-86 -362q-11 -52 10.5 -83.5
t83.5 -31.5q52 0 112 35.5t114 93t100.5 122.5t81.5 130q15 0 38.5 -14.5t39.5 -28.5l16 -14q-43 -78 -84 -142t-97.5 -134.5t-112.5 -118.5t-125.5 -79.5t-139.5 -31.5z" />
    <glyph glyph-name="u" unicode="u" horiz-adv-x="1210" 
d="M147 0q-153 0 -202.5 92t-5.5 256q22 90 94 345.5t117 402.5h286q-23 -86 -69 -255t-80 -294t-39 -146q-30 -91 -21.5 -153.5t60.5 -65.5q58 -5 116.5 49.5t104.5 141t80 194.5q114 409 149 529h271q-41 -147 -114 -442.5t-85 -356.5q-22 -115 45 -115q51 0 102.5 33.5
t100 96.5t82 117t75.5 132q13 0 36 -14.5t40 -28.5l17 -14q-107 -198 -161 -274q-141 -203 -301 -227q-23 -3 -46 -3q-106 0 -175 61.5t-87 161.5q-169 -223 -390 -223z" />
    <glyph glyph-name="v" unicode="v" horiz-adv-x="1095" 
d="M340 0q-62 -5 -114.5 5t-101.5 41.5t-81.5 84.5t-48 140t-7.5 200t46.5 273t107.5 352l291 -2q-51 -155 -84 -286t-45.5 -224t-12.5 -166t11.5 -117.5t31 -73t41.5 -39t46 -8.5q67 4 136.5 84.5t131.5 204.5q-72 134 -72 326q0 213 92 320q62 73 135 62q70 -10 105 -91
q41 -96 10 -248q-43 -194 -124 -363q40 -38 85 -44.5t92.5 25.5t86.5 103q15 0 38.5 -14.5t39.5 -28.5l16 -14q-60 -109 -136.5 -160.5t-148.5 -44.5t-135 63q-94 -158 -205.5 -254.5t-226.5 -105.5zM739 834q-15 -120 15 -220q32 77 49 134q53 175 33 249q-11 38 -35 19
q-38 -31 -59 -159q-1 -11 -3 -23z" />
    <glyph glyph-name="w" unicode="w" horiz-adv-x="1523" 
d="M147 -2q-153 0 -202 91.5t-6 256.5q28 108 98.5 360.5t112.5 387.5h288q-41 -145 -110 -397.5t-80 -297.5q-30 -91 -20.5 -153.5t61.5 -65.5q55 -4 109 42.5t100 129.5q16 223 129 578q36 113 127 157q74 36 133 7q60 -30 52 -110q-4 -38 -24 -81q-74 -156 -117 -281
t-55 -206t-1.5 -135.5t38.5 -77.5t70 -23q123 0 268 287q-74 138 -74 328q0 212 93 320q63 73 136 62q70 -10 105 -91q40 -96 8 -248q-39 -188 -122 -365q39 -37 83.5 -43t92 26t86.5 103q15 0 38.5 -14.5t39.5 -28.5l16 -14q-60 -109 -136 -160.5t-147.5 -44.5t-134.5 61
q-94 -156 -205.5 -252.5t-224.5 -105.5q-109 -8 -176.5 33t-89.5 149q-157 -184 -359 -184zM1169 834q-14 -120 15 -222q33 84 47 136q55 174 35 249q-11 37 -34 19q-38 -28 -58 -151z" />
    <glyph glyph-name="x" unicode="x" horiz-adv-x="933" 
d="M-117 59q-39 62 -39.5 150t39.5 182.5t115 167.5q50 102 61.5 222.5t6.5 312.5h260q43 -84 118 -351q51 24 81.5 64t31 99t-42.5 122q-37 58 9 106q41 44 110 43q87 -1 133 -77l2 -4q25 -43 25.5 -94.5t-23.5 -103t-65 -99.5t-102 -87t-132 -61l39 -149q41 -150 71 -216
t68 -75q44 -10 86 13.5t78 74t66 115t57 145.5q14 0 37.5 -14.5t40.5 -28.5l16 -14q-32 -128 -92.5 -240t-151.5 -188t-190 -76q-62 0 -110 20.5t-81.5 54.5t-62.5 95.5t-48.5 124t-43.5 160.5l-27 110q-127 -47 -149 -157.5t65 -258.5q33 -58 -14 -111q-43 -48 -111 -50
q-83 -3 -131 73zM150 659q40 17 45 19l-31 117q-2 -41 -14 -136z" />
    <glyph glyph-name="y" unicode="y" horiz-adv-x="1198" 
d="M-207 -1096q-33 72 -40.5 159t10.5 183.5t70.5 199t132 200t202 192.5t274.5 172l35 144q-148 -154 -330 -154q-153 0 -202.5 92t-5.5 256q174 626 211 748h288q-171 -617 -190 -695q-30 -91 -21 -153.5t60 -65.5q83 -7 162.5 98.5t134.5 268.5q126 453 155 547h269
q-41 -151 -123.5 -469t-104.5 -410l-4 -18q-2 -10 -9.5 -37.5l-10.5 -38.5q146 77 264.5 199t179.5 239q14 0 37.5 -14.5t40.5 -28.5l16 -14q-197 -365 -583 -551q-68 -263 -125 -442q-74 -281 -107 -383q-32 -111 -86.5 -197t-118 -135.5t-134 -70t-135 -7.5t-121 60.5
t-91.5 125.5zM-61 -1020q32 -67 81.5 -79t103 43t87.5 171q18 57 53.5 199.5t50.5 196.5q17 61 88 344q-128 -76 -227 -174.5t-155 -195.5t-85 -194t-27 -176t30 -135z" />
    <glyph glyph-name="z" unicode="z" horiz-adv-x="1054" 
d="M94 504q-34 -8 -64.5 9t-29.5 48q75 134 102 297l-106 146l61 90h756l8 2l74 -90q-159 -194 -304.5 -342t-299.5 -258q64 16 107 8t85 -32.5t72.5 -50.5t68 -46.5t72.5 -20.5q206 0 359 295q15 0 39 -14.5t40 -28.5l17 -14q-258 -477 -565 -477q-49 0 -95.5 18.5
t-80 43.5t-67 52.5t-62.5 45t-60.5 20.5t-67.5 -21.5t-77 -79.5v2l-86 -133l-115 154q270 300 420 489.5t213 337.5q-67 16 -145 5.5t-140 -48.5q-20 -207 -129 -407z" />
    <glyph glyph-name="braceleft" unicode="{" horiz-adv-x="1259" 
d="M635 -553q-133 44 -228 95.5t-150 99t-79.5 109t-29.5 108t13 115t35.5 109.5t49.5 111q26 55 38 83t28.5 76.5t18 76.5t-3.5 67.5t-27 66.5t-61 56t-96 52l17 106q186 11 279 154q51 77 103 254q54 187 82 254q84 202 239 293q200 119 558 90l58 -58
q-139 -23 -242.5 -70t-165.5 -107.5t-106 -133t-71.5 -150t-54 -154.5t-62.5 -150t-87 -133t-137.5 -106.5t-204.5 -68.5q94 -45 146 -104.5t64 -124t3 -136t-30.5 -145.5t-43.5 -148t-30.5 -148t4 -141t65 -131t146.5 -114z" />
    <glyph glyph-name="bar" unicode="|" horiz-adv-x="528" 
d="M-201 -569l742 2400h225l-741 -2400h-226z" />
    <glyph glyph-name="braceright" unicode="}" horiz-adv-x="909" 
d="M281 1823q104 -34 184.5 -73.5t136.5 -74.5t89.5 -83.5t54 -81.5t20 -88.5t-2 -84.5t-23 -90t-32 -84.5t-39.5 -86.5q-36 -77 -51.5 -116t-29 -102t1 -102t58.5 -82.5t124 -75.5l-16 -106q-186 -11 -279 -153q-51 -78 -103 -255q-55 -186 -83 -253q-84 -202 -238 -294
q-200 -119 -559 -90l-57 57q139 23 242.5 70t165.5 107.5t105.5 133.5t71.5 150.5t54 154.5t62 149.5t87 133t137.5 107t204.5 68.5q-94 45 -146 104.5t-63.5 124t-3 136t30.5 145t44 148t30.5 148t-4 140.5t-65 131t-146.5 114z" />
    <glyph glyph-name="asciitilde" unicode="~" horiz-adv-x="1169" 
d="M643 356q-54 5 -108 36.5t-100 66t-70 41.5q-38 10 -76 -15t-64 -96l-82 12q39 139 127.5 225t188.5 62q46 -12 140.5 -72.5t141.5 -66.5q69 -10 113 17t88 118l94 -20q-14 -35 -37 -75t-60.5 -85t-80.5 -79t-100 -54.5t-115 -14.5z" />
    <glyph glyph-name="uni00A0" unicode="&#xa0;" horiz-adv-x="616" 
 />
    <glyph glyph-name="exclamdown" unicode="&#xa1;" horiz-adv-x="1107" 
d="M803 844l-455 -1135l-393 -12l688 1147h160zM655 1212q0 86 61.5 147.5t147.5 61.5t147.5 -61.5t61.5 -147.5t-61.5 -147t-147.5 -61t-147.5 61t-61.5 147z" />
    <glyph glyph-name="cent" unicode="&#xa2;" horiz-adv-x="1069" 
d="M217 -209l127 387q-150 60 -217.5 214t-32.5 347q22 128 76.5 230.5t127 165.5t152 98t160.5 41q40 3 78 0l86 285h152l-103 -324q78 -42 108.5 -116.5t14.5 -151.5q-18 -91 -92 -119q-62 -22 -115 10q-55 34 -45 99q5 25 19 51q36 65 22.5 102t-71.5 43
q-95 9 -180.5 -102t-106.5 -293q-22 -179 53 -294.5t186 -115.5q87 0 175.5 55t153.5 134t112 172q15 0 38.5 -14.5t39.5 -28.5l16 -15q-24 -43 -36.5 -64t-42 -68t-50.5 -74.5t-56.5 -70.5t-66 -70t-73.5 -58.5t-85 -50t-94 -32.5t-106 -16h-58l-114 -356h-152z" />
    <glyph glyph-name="sterling" unicode="&#xa3;" horiz-adv-x="1857" 
d="M326 606l57 144h322q85 320 297 521t493 224q204 16 288 -95q58 -77 36 -176q-19 -88 -86 -130q-27 -17 -58 -21q-52 -6 -90 24t-50 76t8.5 102t74.5 97q-130 45 -253 -22.5t-213 -225t-132 -374.5h467l-57 -144h-435q-52 -227 -307 -366q215 -98 405 -116t310.5 49.5
t132.5 207.5l90 -21q0 -111 -30 -202.5t-96.5 -160.5t-163 -103t-239 -23.5t-315.5 72.5q-119 43 -223.5 66.5t-203 19t-146.5 -48.5q0 145 93.5 232.5t229.5 68.5q25 15 44.5 33.5t33.5 43.5t23 42t16 51t10 48.5t8 55t7 51.5h-348z" />
    <glyph glyph-name="currency" unicode="&#xa4;" horiz-adv-x="1355" 
d="M512 225q-116 0 -186 51l-191 -145l-123 148l242 112q-19 100 49 219q74 124 225 228l-106 96l225 131l60 -131q136 57 264 57q104 0 172 -43l225 150l123 -148l-270 -106q32 -101 -45 -234q-64 -108 -179 -196l97 -86l-238 -164l-59 129q-149 -68 -285 -68zM639 369
q119 0 212 119q75 97 89 208q14 106 -41 140q-20 12 -47 12q-121 0 -213 -119q-74 -97 -88 -208q-13 -106 42 -140q20 -12 46 -12z" />
    <glyph glyph-name="yen" unicode="&#xa5;" horiz-adv-x="1456" 
d="M467 -25q3 94 76 147t186 64l35 103h-432l35 102h428q4 13 14.5 49t17.5 58h-428l35 102h414q-19 141 -37.5 316.5t-27.5 281.5l-9 105q-60 11 -116.5 -8t-98 -59.5t-76 -95t-51.5 -115t-24.5 -119t6.5 -107.5q-115 -3 -169 79q-53 80 -17 190q45 135 200 232
q220 137 580 142q20 -374 67 -707q124 117 223 248.5t144 237.5q38 104 21.5 170t-79.5 75q72 27 130.5 28.5t97 -25.5t55.5 -69t7 -102.5t-48 -126.5q-60 -106 -210 -264.5t-302 -281.5l-8 -25h289l-33 -102h-289l-35 -107h289l-35 -102h-286l-56 -170q47 -20 88.5 -6
t71.5 55q11 -5 29.5 -18.5t31.5 -23.5l13 -11q-59 -90 -128 -120.5t-143 5.5q-67 22 -106 33t-91.5 19.5t-89.5 2.5t-79 -25t-80 -55z" />
    <glyph glyph-name="brokenbar" unicode="&#xa6;" horiz-adv-x="665" 
d="M266 819l234 1229h393l-524 -1229h-103zM-193 -791l525 1229h102l-233 -1229h-394z" />
    <glyph glyph-name="logo" unicode="&#xa7;" horiz-adv-x="12111" 
d="M348 -494q-142 68 -240 189t-137 263.5t-18.5 301.5t106.5 299q67 109 163.5 186t215.5 106.5t242 -17.5q68 -22 120 -74.5t77.5 -117.5t20.5 -138t-46 -133l-18 -15q-19 -16 -27 -16q-53 128 -84 174q-24 36 -51 57q-79 62 -177.5 73.5t-187 -36t-129.5 -147.5
q-35 -84 -36.5 -177t29.5 -176.5t85 -153t136 -114.5t177 -53q156 -14 288 34.5t218 143t133 223.5t43 275q-3 114 -24 250t-43 248.5t-39.5 232.5t-14 245t34.5 242q40 155 176 264.5t299 112.5q110 -2 196 -30.5t138 -73.5t83 -103.5t39.5 -117.5t0.5 -119q124 41 201 90
l98 76l88 -37l-22 -72q251 72 537.5 127.5t607.5 89.5t627 39t608 -30.5t540 -112.5q7 -73 -37 -171.5t-104 -158.5q-314 153 -733.5 221t-951.5 42.5t-1125 -152.5q-95 -326 -129 -461q-41 -143 -113 -437t-86 -362q-11 -51 11 -83t84 -32q52 0 112 35.5t114 93t100 122.5
t81 130q92 177 141 351q-68 12 -112.5 64t-44.5 122q0 78 55.5 133t134.5 55q77 0 132 -55t55 -133q0 -36 -13 -68q145 45 249.5 29t139.5 -88q17 -35 18.5 -78t-11 -89.5t-31.5 -95t-45 -101.5t-50.5 -101.5t-49.5 -103t-40 -97.5q-19 -57 -0.5 -89.5t58.5 -32.5
q41 0 82.5 23t74.5 56t70.5 85.5t62 94.5t56.5 101q77 280 160 553h286q-23 -87 -69 -255t-80 -293t-39 -146q-30 -91 -21.5 -153.5t60.5 -65.5q58 -5 116.5 49.5t104.5 141t80 194.5q109 392 149 528h271q-41 -147 -114 -442.5t-85 -356.5q-22 -114 45 -114
q52 0 103.5 33.5t99 94.5t82 117t74.5 131l6 33q22 128 76.5 230.5t127 165.5t152 98t160.5 41q97 6 170.5 -21t111.5 -74t52 -102.5t2 -110.5q-18 -91 -92 -118q-61 -23 -115 9q-55 34 -46 98q5 26 19 52q36 65 22.5 102.5t-71.5 43.5q-95 9 -180.5 -102t-106.5 -293
q-22 -179 53.5 -294.5t186.5 -115.5q86 0 173.5 53.5t152 131t112.5 169.5q48 175 115.5 418.5t113.5 411.5t58 211q33 127 101.5 199.5t144.5 79.5t154 -50.5t130 -173.5q42 -89 40.5 -226.5t-46.5 -289.5q114 -26 144 -134t-39 -223q-43 -76 -118.5 -138t-154.5 -91
q105 -15 135 -213q10 -73 37 -114.5t59 -47t63.5 9t55.5 44.5q41 215 152 321q72 69 135 59q53 -9 62 -72q12 -78 -56 -200q-82 -147 -213 -240q31 -71 127 -71q54 0 101.5 27.5t84 77t67 106.5t56.5 129.5t44.5 131t38.5 126t32 100.5q23 63 64.5 196.5t81 236.5t90.5 198
q232 437 543 444q11 3 13.5 -8t-5.5 -16q-142 -60 -234 -213q-73 -132 -117.5 -278.5t-88 -366.5t-64.5 -303q-5 -19 -19.5 -82t-20 -85t-20 -77.5t-24 -82t-26 -75t-32 -80t-36 -73t-45 -78.5t-52.5 -74q-50 -69 -128 -116t-161.5 -62.5t-169.5 9.5t-147 91
q-38 38 -58 94.5t-15 110.5q-79 -31 -155.5 -32t-138 25.5t-103.5 87.5t-52 148q-8 67 -20 110.5t-27.5 69.5t-43.5 38.5t-55.5 16t-76.5 3.5q-35 -81 -84 -234l-64 -237h-280l53 192q-183 -211 -420 -221q-177 -7 -294 88t-152 258q-34 -60 -65.5 -106.5t-73 -93t-83 -77.5
t-92.5 -50t-106 -19q-106 0 -175 61.5t-87 161.5q-169 -223 -389 -223q-116 0 -173 53.5t-57 151.5q-152 -205 -330 -205q-76 0 -135 33.5t-90 90t-41 130t13 154.5q18 81 59.5 166.5t77.5 140t58.5 110.5t12.5 93q-10 36 -73 37t-152 -33q-32 -137 -164 -418h-2
q-43 -78 -84 -142t-97.5 -134.5t-112.5 -118.5t-125.5 -79.5t-139.5 -31.5q-79 0 -141 22t-99 60t-58 89.5t-19.5 111.5t16.5 125q114 430 193 688l112 414l-78 -9l-8 -16q-50 -92 -130.5 -134t-162.5 -29.5t-145 71.5q-41 37 -51 96.5t24 97.5q14 -15 32.5 -26.5t43.5 -18
t55 1.5t60 31q32 25 46.5 67.5t12.5 83t-14 74.5q-17 47 -53.5 75.5t-82 33t-93.5 -7t-92 -44t-72 -79.5q-57 -95 -68.5 -222.5t14.5 -267t61 -271t74 -284.5t50 -258q18 -160 -7.5 -324t-101.5 -292q-84 -143 -219.5 -245.5t-286.5 -147.5t-310.5 -38.5t-293.5 70.5z
M1968 -428q142 62 348 100t431.5 53t529.5 10.5t578.5 -19.5t645.5 -47t665 -61t698 -71q63 -7 94 -10q242 -25 585.5 -62.5t575 -62.5t526.5 -54.5t522.5 -46t474 -28.5t470 -11t428.5 15q163 11 306.5 37.5t253.5 64.5t202.5 86.5t157 102t112.5 111.5t74.5 116t38 114.5
t7 106.5t-21.5 93q-113 -107 -278 -113q-150 -4 -253.5 33.5t-156.5 103.5q-123 -123 -262 -123q-101 0 -168 57.5t-90 151.5q-72 -96 -162.5 -152.5t-192.5 -56.5q-143 0 -228.5 79t-95 220.5t67.5 337.5q39 98 95 182t116 143t125 101t125.5 62t112.5 20q142 0 223 -90
l12 41h271q-41 -147 -114 -442.5t-85 -356.5q-22 -114 43 -114q78 0 160 79q3 53 36 98t91 72q12 19 24.5 41t26 48t21.5 40q43 77 81 137.5t91.5 129.5t106.5 117.5t122 92t141.5 63.5t162.5 20.5t187 -25.5q-83 -46 -130 -185t-42 -313q3 -237 -106 -405q33 -52 51 -114.5
t18.5 -134t-17 -146t-59.5 -151.5t-104 -150t-155 -141.5t-208 -125.5t-268.5 -103t-330.5 -73q-249 -38 -538 -53t-554 -11.5t-616 23t-636.5 42t-710 54.5t-746.5 52q-235 14 -664 42q-388 25 -572 36t-487.5 27t-451.5 17.5t-369 1.5t-341.5 -15t-267.5 -38.5t-248 -61.5
t-189 -91q-74 -45 -121.5 -96.5t-64 -101.5t-10.5 -96.5t34 -86.5q-114 0 -213 25t-169.5 68.5t-117 103t-63 125.5t-0.5 139.5t63 143.5t135.5 138t210.5 121zM6058 623q96 -8 191.5 41.5t136.5 128.5q38 76 20.5 123t-74.5 42q-53 -3 -127 -93t-147 -242zM6099 930
q149 186 311 215q37 132 39.5 245.5t-29.5 178.5q-30 61 -63 73t-58 -16t-38 -80q-2 -8 -23.5 -90.5t-63 -238t-75.5 -287.5zM7016 1604q40 89 129 168.5t197.5 133t220.5 88t209 44.5q83 9 173 7t177 -10t173.5 -32t161 -58t140 -88.5t111.5 -123.5q55 -84 75.5 -178
t7 -182t-54.5 -171.5t-103.5 -149.5t-146.5 -113t-177 -65q77 -28 138.5 -85.5t99.5 -133.5t56.5 -164t13.5 -182t-34 -182q-54 -170 -193.5 -280t-314.5 -121q-97 -6 -176 20.5t-126.5 73t-72.5 108t-21.5 123t35.5 120.5t89 99q51 34 115 47.5t122 4.5q13 -3 13 -15
q-5 -10 -11 -10q-67 -23 -116.5 -64t-59.5 -96q-7 -54 15.5 -88t61.5 -42.5t84 -1t83 29.5q190 113 223 381q17 134 -55 250t-203 157q-171 -89 -269 -53q-55 19 -58 67q-4 50 51 86q92 59 260 15l6 -2q261 146 369 336q51 97 60 194t-22.5 180t-105.5 148.5t-182 99.5
q-249 77 -521 -28q-176 -67 -288 -179q-85 -86 -73 -139q9 -37 69 -41q71 0 98 37q6 6 12 3.5t7 -9t-3 -12.5q-30 -71 -98 -131t-152 -82.5t-165 20.5q-46 26 -66.5 75.5t-16 101t28.5 94.5zM9138 633q-38 -106 -50 -191.5t0.5 -138t39 -81.5t65.5 -32q70 -8 151 52t124 176
q114 416 133 483q-17 44 -43.5 75t-54.5 40q-83 28 -184.5 -70t-180.5 -313zM10197 330q-67 -11 -87 -59q-19 -47 23 -87q59 -55 191 -43q130 8 192 111q-59 51 -144.5 72t-174.5 6zM10207 473q98 3 191 -22t164 -68q12 70 16 215q3 63 4 85t7 78.5t14.5 86.5t25 68t39.5 63
q-106 -25 -209.5 -129.5t-228.5 -335.5zM11108 602q22 128 76.5 230.5t127 165.5t152 98t160.5 41q73 4 134.5 -7t102.5 -33.5t72 -53.5t43.5 -66.5t17.5 -73.5t-7 -74q-63 -263 -580 -415q29 -94 91 -148.5t135 -54.5q134 0 277.5 110.5t211.5 249.5q14 0 37.5 -14.5
t40.5 -28.5l16 -14q-35 -62 -75 -119.5t-104 -129t-132 -123.5t-159.5 -90t-186.5 -42q-97 -4 -179.5 24.5t-139 82.5t-94.5 130t-45.5 165.5t7.5 189.5zM11389 535q265 89 346 296q28 67 14 123t-69 62q-94 9 -179.5 -101.5t-107.5 -293.5q-4 -31 -4 -86z" />
    <glyph glyph-name="dieresis" unicode="&#xa8;" horiz-adv-x="1177" 
d="M580 1114q-71 0 -124 51t-53 121t53 123t124 53q70 0 121 -52.5t51 -123.5q0 -70 -51 -121t-121 -51zM813 1286q0 70 52.5 123t123.5 53q70 0 121 -52.5t51 -123.5q0 -70 -50.5 -121t-121.5 -51t-123.5 51t-52.5 121z" />
    <glyph glyph-name="copyright" unicode="&#xa9;" horiz-adv-x="2039" 
d="M1051 -170q231 0 429 115.5t313.5 312t115.5 426.5q0 173 -68.5 332t-183.5 274t-274 183.5t-332 68.5q-230 0 -426.5 -115.5t-312 -313.5t-115.5 -429q0 -172 68.5 -330t183 -272.5t272.5 -183t330 -68.5zM135 684q0 184 74 354t197.5 294t292.5 198t352 74
q184 0 354 -74t293.5 -198t197.5 -294t74 -354q0 -183 -74 -352t-197.5 -292t-293.5 -197t-354 -74q-182 0 -351.5 74t-293 197t-197.5 292.5t-74 351.5zM592 780q22 128 76.5 230.5t127 165.5t152 98t160.5 41q97 6 170.5 -20.5t111.5 -73.5t52 -102.5t2 -110.5
q-18 -91 -92 -118q-61 -23 -115 9q-55 34 -46 98q4 25 19 52q36 65 22.5 102t-71.5 43q-95 9 -180.5 -102t-106.5 -293q-22 -179 53.5 -294.5t186.5 -115.5q128 0 247 107t193 254q15 0 38.5 -14.5t39.5 -29.5l17 -14q-24 -42 -37 -64t-42 -68t-50 -74.5t-56.5 -71
t-66.5 -69.5t-74 -58.5t-85 -50t-94 -32.5t-106 -16q-161 -7 -274 73t-157 217t-15 302z" />
    <glyph glyph-name="ordfeminine" unicode="&#xaa;" horiz-adv-x="880" 
d="M354 760q-100 0 -159.5 55t-66.5 154.5t46 236.5q67 165 184.5 260t216.5 95q101 0 156 -64l10 31h189q-28 -101 -79 -308t-60 -251q-15 -82 30 -82q37 0 73.5 23.5t70 67t57 83t51.5 92.5q10 0 27 -10.5t29 -20.5l12 -10q-85 -153 -126 -208q-108 -144 -233 -144
q-70 0 -117.5 40t-62.5 107q-108 -147 -248 -147zM35 442l37 181h716l-36 -181h-717zM375 1196q-27 -74 -35 -134.5t0.5 -97t27.5 -56t46 -21.5q49 -7 105.5 34.5t86.5 122.5q6 22 38.5 144t53.5 196q-22 63 -67 80q-58 20 -129 -49t-127 -219z" />
    <glyph glyph-name="guillemotleft" unicode="&#xab;" horiz-adv-x="1497" 
d="M958 983l58 -74l-529 -426l213 -381l-122 -102l-426 442l57 152zM643 442l57 152l750 389l57 -74l-528 -426l213 -381l-123 -102z" />
    <glyph glyph-name="logicalnot" unicode="&#xac;" horiz-adv-x="1689" 
d="M1257 135l119 357h-1292l49 184h1485l-180 -541h-181z" />
    <glyph glyph-name="registered" unicode="&#xae;" horiz-adv-x="2152" 
d="M1112 -215q187 0 367 78q-79 13 -140 67t-86 146q-13 49 -21.5 120.5t-12 130t-16 123t-32.5 110.5t-61.5 81.5t-103.5 46.5q-7 -39 -19.5 -115.5t-20.5 -123.5t-26 -116.5t-39 -118.5t-56.5 -103t-80.5 -95q-75 -65 -182 -59q237 -172 530 -172zM139 696q0 194 78.5 374
t209.5 311t311 209.5t374 78.5t374 -78.5t311 -209.5t209.5 -311t78.5 -374q0 -202 -83 -386t-228 -320q-36 -54 -93 -90q-33 -18 -55 -25q-236 -151 -514 -151q-194 0 -374 78t-311 209t-209.5 311t-78.5 374zM201 696q0 -300 184 -546q0 24 8 43q6 19 27 43t33 12
q3 -34 20 -57.5t39 -26.5q116 -21 188 143q27 64 75 243q4 14 7 25q69 261 146 422q29 59 58 104t70 90.5t93 71t111 27.5q6 0 7.5 -7t-3.5 -9q-36 -18 -66 -44t-51 -53t-38.5 -64.5t-28.5 -67.5t-21.5 -74.5t-16 -73.5t-13.5 -76.5t-13 -72.5q47 6 97.5 -9t90.5 -47
q71 9 143 59.5t107 118.5q44 85 46.5 169t-31 149t-100.5 110.5t-157 59.5q-50 7 -109.5 6t-123.5 -18.5t-117.5 -43.5t-90.5 -69t-44 -94q-4 -24 11 -35.5t43.5 -7.5t62.5 22q1 3 5 3.5t5 -1.5q2 -2 2 -10q-36 -86 -117 -123q-35 -17 -73 -20.5t-73 14t-50 57.5
q-20 67 14.5 133t95.5 111q112 90 256 130t290.5 28.5t281.5 -68.5q99 -48 156 -122.5t68 -154t-15 -161t-82.5 -146.5t-146 -109t-195.5 -50q19 -25 36.5 -55t28 -52t24.5 -60.5t19.5 -55t19 -63t17.5 -58.5q21 -56 43.5 -98t54.5 -79t67 -55.5t82 -18.5t101 23
q125 127 194.5 291.5t69.5 347.5q0 184 -72.5 353t-195 291t-291 195t-352.5 73t-352.5 -73t-291 -195t-195 -291t-72.5 -353z" />
    <glyph glyph-name="macron" unicode="&#xaf;" horiz-adv-x="1034" 
d="M326 1204l36 180h717l-37 -180h-716z" />
    <glyph glyph-name="degree" unicode="&#xb0;" horiz-adv-x="751" 
d="M532 856q77 0 125 48t48 124t-48 124t-125 48q-76 0 -124 -48t-48 -124t48 -124t124 -48zM238 1028q0 120 87 207.5t207 87.5t207.5 -87.5t87.5 -207.5t-87.5 -207.5t-207.5 -87.5t-207 87.5t-87 207.5z" />
    <glyph glyph-name="plusminus" unicode="&#xb1;" horiz-adv-x="1597" 
d="M530 102l132 390h-494l41 184h514l135 405h189l-136 -405h469l-41 -184h-489l-131 -390h-189zM-106 -287l49 185h1392l-49 -185h-1392z" />
    <glyph glyph-name="uni00B2" unicode="&#xb2;" horiz-adv-x="905" 
d="M381 1274q-90 39 -96 136q-5 99 78 196q103 122 277 158q60 12 124 12q79 0 144 -34.5t100.5 -92t39 -133.5t-41.5 -160q-57 -100 -180.5 -195.5t-272.5 -173.5q17 -5 59 -18t62 -18.5t57 -14t61.5 -8.5t56.5 2.5t61.5 13.5t58.5 29q30 20 56 1.5t1 -50.5
q-68 -77 -134 -116.5t-117 -44.5t-107 10.5t-97 39t-94 49.5t-92 35q-83 -97 -160 -84q-48 8 -65 52q-19 51 23 95q60 63 208 58q70 48 111.5 79t104.5 84t113.5 112t90.5 126q38 59 41 123t-28 108.5t-85 49.5q-92 10 -182 -62q-76 -59 -91 -125q-13 -64 40 -94
q41 -23 25 -74q-14 -47 -60 -70q-44 -22 -90 -1z" />
    <glyph glyph-name="uni00B3" unicode="&#xb3;" horiz-adv-x="800" 
d="M477 801q-183 0 -275 106q-64 74 -55 160q8 76 69 104q57 27 138 -4q-35 -43 -41 -93.5t13 -91.5t62.5 -68t100.5 -27q118 0 196 100q64 82 63 175q-2 92 -69 123q-26 12 -58 13q-130 -64 -199 -36q-40 17 -33 53q7 39 63 60q70 28 179 7q94 3 145 73.5t34.5 145.5
t-89.5 89q-80 14 -140 -38q-40 -35 -37 -66q3 -25 38 -25q48 0 52 -38q5 -37 -31 -69q-42 -37 -97 -22q-72 20 -92 84q-21 70 32 137q75 95 243 108l50 2q82 0 142.5 -23.5t89.5 -61t35 -85t-13 -94t-63 -90t-107 -70.5q112 -49 127 -156q16 -104 -65 -206
q-95 -120 -265 -160q-69 -16 -143 -16z" />
    <glyph glyph-name="acute" unicode="&#xb4;" horiz-adv-x="1058" 
d="M367 1163q239 69 454 398l266 -127q-159 -138 -342 -239t-313 -130z" />
    <glyph glyph-name="uni00B5" unicode="&#xb5;" horiz-adv-x="1191" 
d="M147 0q-101 0 -159 43l-162 -592h-127l221 803q5 36 19 94q22 90 94 345.5t117 402.5h286q-23 -86 -69 -255t-80 -294t-39 -146q-30 -91 -21.5 -153.5t60.5 -65.5q58 -5 116.5 49.5t104.5 141t80 194.5q114 409 149 529h271q-41 -147 -114 -442.5t-85 -356.5
q-22 -115 45 -115q51 0 102.5 33.5t100 96.5t82 117t75.5 132q13 0 36 -14.5t40 -28.5l17 -14q-107 -198 -161 -274q-141 -203 -301 -227q-23 -3 -46 -3q-106 0 -175 61.5t-87 161.5q-169 -223 -390 -223z" />
    <glyph glyph-name="paragraph" unicode="&#xb6;" horiz-adv-x="1585" 
d="M625 -569l700 2265h-475l-700 -2265h-226l701 2265h-219l49 184h1392l-49 -184h-248l-700 -2265h-225z" />
    <glyph glyph-name="periodcentered" unicode="&#xb7;" horiz-adv-x="819" 
d="M461 573q-86 0 -147.5 61.5t-61.5 147.5t61.5 147.5t147.5 61.5t147.5 -61.5t61.5 -147.5t-61.5 -147.5t-147.5 -61.5z" />
    <glyph glyph-name="cedilla" unicode="&#xb8;" horiz-adv-x="1148" 
d="M20 -471q16 -49 65 -80t110 -36.5t121 4t105.5 41t57.5 75.5q23 87 -59 131.5t-236 11.5l17 86l344 291l73 -53l-176 -205q50 -3 96.5 -22t82.5 -52t49.5 -80.5t-2.5 -107.5q-22 -77 -81.5 -133t-136 -83t-163 -32t-162.5 13.5t-135 61.5t-80 103z" />
    <glyph glyph-name="uni00B9" unicode="&#xb9;" horiz-adv-x="583" 
d="M289 844l160 506q-73 -30 -140 -47l-18 67q211 122 334 316l34 61h115l-293 -903h-192z" />
    <glyph glyph-name="ordmasculine" unicode="&#xba;" horiz-adv-x="753" 
d="M418 727q-97 -8 -172 52t-99.5 171.5t27.5 266.5q45 125 140.5 220.5t199.5 92.5q30 16 64 16.5t67 -11.5t63.5 -40t52.5 -66t33.5 -92t8.5 -116q-3 -78 -29 -158q122 -3 174 90q9 0 25.5 -10.5t28.5 -20.5l12 -10q-44 -80 -118.5 -115t-158.5 -26q-54 -106 -139 -171.5
t-180 -72.5zM-49 442l37 181h717l-37 -181h-717zM344 1116q-19 -113 23 -172.5t106 -56.5q101 8 154 114q-90 40 -149 123t-60 189q-54 -60 -74 -197zM506 1346q-10 -83 35.5 -150.5t122.5 -103.5l8 30q42 156 -12 256q-32 60 -78 63t-67 -56q-6 -17 -9 -39z" />
    <glyph glyph-name="guillemotright" unicode="&#xbb;" horiz-adv-x="1497" 
d="M512 0l-57 74l528 426l-213 381l123 102l426 -442l-57 -152zM-37 74l529 426l-213 381l122 102l426 -442l-57 -152l-750 -389z" />
    <glyph glyph-name="onequarter" unicode="&#xbc;" horiz-adv-x="1890" 
d="M242 635l180 577q-78 -33 -158 -53l-18 80q236 136 381 367l37 61h131l-334 -1032h-219zM-8 -57l1650 1405h209l-1650 -1405h-209zM852 29q64 28 114 64.5t85 75t60 87.5t39 95t22.5 105.5t11 110t2.5 117.5h244q15 -61 -17.5 -182.5t-110 -261.5t-174.5 -228
q123 -13 218 -16l86 270l229 418h131l-213 -661q51 18 100 49q23 15 47 11t30.5 -22t-11.5 -45q-115 -149 -229 -190l-58 -174h-221l59 184q-30 11 -86.5 35.5t-100.5 39t-85 17.5q-95 -63 -181 -39q-53 15 -66 53q-13 43 42 73q15 8 33 14z" />
    </font>
</defs>
</svg>
