<?xml version="1.0" encoding="UTF-8" standalone="no"?>
<svg
   xmlns:dc="http://purl.org/dc/elements/1.1/"
   xmlns:cc="http://creativecommons.org/ns#"
   xmlns:rdf="http://www.w3.org/1999/02/22-rdf-syntax-ns#"
   xmlns:svg="http://www.w3.org/2000/svg"
   xmlns="http://www.w3.org/2000/svg"
   version="1.1"
   width="20"
   height="20"
   viewBox="0 0 20 20"
   id="svg973">
  <metadata
     id="metadata979">
    <rdf:RDF>
      <cc:Work
         rdf:about="">
        <dc:format>image/svg+xml</dc:format>
        <dc:type
           rdf:resource="http://purl.org/dc/dcmitype/StillImage" />
        <dc:title></dc:title>
      </cc:Work>
    </rdf:RDF>
  </metadata>
  <defs
     id="defs977" />
  <path
     d="M 10,0 A 10,10 0 0 1 20,10 10,10 0 0 1 10,20 10,10 0 0 1 0,10 10,10 0 0 1 10,0 m 0,2 a 8,8 0 0 0 -8,8 8,8 0 0 0 8,8 8,8 0 0 0 8,-8 8,8 0 0 0 -8,-8 m 0,6.5 A 1.5,1.5 0 0 1 11.5,10 1.5,1.5 0 0 1 10,11.5 1.5,1.5 0 0 1 8.5,10 1.5,1.5 0 0 1 10,8.5 m -4.5,0 A 1.5,1.5 0 0 1 7,10 1.5,1.5 0 0 1 5.5,11.5 1.5,1.5 0 0 1 4,10 1.5,1.5 0 0 1 5.5,8.5 m 9,0 A 1.5,1.5 0 0 1 16,10 1.5,1.5 0 0 1 14.5,11.5 1.5,1.5 0 0 1 13,10 1.5,1.5 0 0 1 14.5,8.5 Z"
     id="path971" />
</svg>
